<svg xmlns="http://www.w3.org/2000/svg" viewBox="0 0 1200 675" role="img" aria-label="Vale da Pinta Hole 1">
  <defs>
    <marker id="arrow" markerWidth="8" markerHeight="8" refX="7" refY="4" orient="auto">
      <path d="M0,0 L8,4 L0,8 z" fill="#d9d22b" />
    </marker>
  </defs>
  <rect width="1200" height="675" fill="#eef3fb"/>
  <circle cx="638.0" cy="482.0" r="7.1" fill="#21493a" fill-opacity="0.74"/>
  <circle cx="139.0" cy="180.0" r="7.0" fill="#0b2a23" fill-opacity="0.74"/>
  <circle cx="985.0" cy="526.0" r="6.9" fill="#0b2a23" fill-opacity="0.68"/>
  <circle cx="135.0" cy="451.0" r="7.1" fill="#21493a" fill-opacity="0.73"/>
  <circle cx="878.0" cy="621.0" r="7.8" fill="#103429" fill-opacity="0.60"/>
  <circle cx="1101.0" cy="60.0" r="8.0" fill="#103429" fill-opacity="0.85"/>
  <circle cx="886.0" cy="589.0" r="7.3" fill="#0b2a23" fill-opacity="0.87"/>
  <circle cx="1062.0" cy="203.0" r="7.2" fill="#103429" fill-opacity="0.59"/>
  <circle cx="496.0" cy="426.0" r="7.5" fill="#21493a" fill-opacity="0.65"/>
  <circle cx="816.0" cy="404.0" r="5.7" fill="#21493a" fill-opacity="0.59"/>
  <circle cx="341.0" cy="429.0" r="5.5" fill="#103429" fill-opacity="0.72"/>
  <circle cx="858.0" cy="417.0" r="6.3" fill="#103429" fill-opacity="0.86"/>
  <circle cx="191.0" cy="527.0" r="7.7" fill="#21493a" fill-opacity="0.88"/>
  <circle cx="562.0" cy="501.0" r="5.4" fill="#103429" fill-opacity="0.62"/>
  <circle cx="853.0" cy="283.0" r="5.7" fill="#0b2a23" fill-opacity="0.64"/>
  <circle cx="483.0" cy="547.0" r="5.3" fill="#0b2a23" fill-opacity="0.67"/>
  <circle cx="455.0" cy="60.0" r="7.3" fill="#0b2a23" fill-opacity="0.67"/>
  <circle cx="834.0" cy="350.0" r="6.8" fill="#103429" fill-opacity="0.88"/>
  <circle cx="476.0" cy="607.0" r="7.3" fill="#0b2a23" fill-opacity="0.65"/>
  <circle cx="880.0" cy="65.0" r="5.0" fill="#103429" fill-opacity="0.56"/>
  <circle cx="127.0" cy="338.0" r="4.6" fill="#103429" fill-opacity="0.86"/>
  <circle cx="943.0" cy="262.0" r="4.8" fill="#21493a" fill-opacity="0.63"/>
  <circle cx="797.0" cy="548.0" r="5.7" fill="#0b2a23" fill-opacity="0.66"/>
  <circle cx="639.0" cy="263.0" r="6.9" fill="#21493a" fill-opacity="0.88"/>
  <circle cx="423.0" cy="399.0" r="5.5" fill="#0b2a23" fill-opacity="0.78"/>
  <circle cx="480.0" cy="471.0" r="6.4" fill="#21493a" fill-opacity="0.80"/>
  <circle cx="762.0" cy="362.0" r="6.4" fill="#21493a" fill-opacity="0.70"/>
  <circle cx="1119.0" cy="89.0" r="5.8" fill="#0b2a23" fill-opacity="0.72"/>
  <circle cx="80.0" cy="623.0" r="5.5" fill="#103429" fill-opacity="0.66"/>
  <circle cx="553.0" cy="63.0" r="7.8" fill="#103429" fill-opacity="0.56"/>
  <circle cx="368.0" cy="525.0" r="4.5" fill="#0b2a23" fill-opacity="0.82"/>
  <circle cx="1076.0" cy="67.0" r="7.7" fill="#21493a" fill-opacity="0.82"/>
  <circle cx="273.0" cy="461.0" r="5.6" fill="#103429" fill-opacity="0.63"/>
  <circle cx="819.0" cy="203.0" r="5.7" fill="#21493a" fill-opacity="0.69"/>
  <circle cx="994.0" cy="267.0" r="4.6" fill="#21493a" fill-opacity="0.75"/>
  <circle cx="327.0" cy="355.0" r="5.3" fill="#103429" fill-opacity="0.89"/>
  <circle cx="361.0" cy="528.0" r="4.7" fill="#103429" fill-opacity="0.79"/>
  <circle cx="508.0" cy="377.0" r="4.7" fill="#103429" fill-opacity="0.74"/>
  <circle cx="360.0" cy="251.0" r="6.0" fill="#103429" fill-opacity="0.79"/>
  <circle cx="989.0" cy="586.0" r="5.7" fill="#0b2a23" fill-opacity="0.82"/>
  <circle cx="848.0" cy="150.0" r="4.6" fill="#0b2a23" fill-opacity="0.75"/>
  <circle cx="969.0" cy="439.0" r="6.4" fill="#0b2a23" fill-opacity="0.84"/>
  <circle cx="1037.0" cy="85.0" r="6.3" fill="#0b2a23" fill-opacity="0.69"/>
  <circle cx="240.0" cy="454.0" r="5.3" fill="#21493a" fill-opacity="0.74"/>
  <circle cx="119.0" cy="340.0" r="5.9" fill="#0b2a23" fill-opacity="0.84"/>
  <circle cx="1080.0" cy="374.0" r="5.8" fill="#103429" fill-opacity="0.69"/>
  <circle cx="1109.0" cy="89.0" r="7.1" fill="#0b2a23" fill-opacity="0.74"/>
  <circle cx="310.0" cy="153.0" r="7.5" fill="#103429" fill-opacity="0.60"/>
  <circle cx="537.0" cy="328.0" r="6.6" fill="#0b2a23" fill-opacity="0.73"/>
  <circle cx="701.0" cy="145.0" r="6.3" fill="#103429" fill-opacity="0.55"/>
  <circle cx="359.0" cy="491.0" r="4.7" fill="#0b2a23" fill-opacity="0.81"/>
  <circle cx="314.0" cy="588.0" r="5.9" fill="#0b2a23" fill-opacity="0.74"/>
  <circle cx="414.0" cy="201.0" r="6.5" fill="#103429" fill-opacity="0.89"/>
  <circle cx="227.0" cy="274.0" r="6.8" fill="#0b2a23" fill-opacity="0.79"/>
  <circle cx="286.0" cy="263.0" r="5.4" fill="#0b2a23" fill-opacity="0.62"/>
  <circle cx="196.0" cy="319.0" r="5.6" fill="#103429" fill-opacity="0.84"/>
  <circle cx="523.0" cy="589.0" r="5.6" fill="#103429" fill-opacity="0.84"/>
  <circle cx="492.0" cy="577.0" r="7.5" fill="#103429" fill-opacity="0.73"/>
  <circle cx="771.0" cy="574.0" r="6.8" fill="#103429" fill-opacity="0.66"/>
  <circle cx="735.0" cy="473.0" r="6.9" fill="#0b2a23" fill-opacity="0.72"/>
  <circle cx="150.0" cy="479.0" r="7.3" fill="#21493a" fill-opacity="0.79"/>
  <circle cx="456.0" cy="197.0" r="7.8" fill="#0b2a23" fill-opacity="0.77"/>
  <circle cx="769.0" cy="304.0" r="7.9" fill="#0b2a23" fill-opacity="0.69"/>
  <circle cx="1110.0" cy="389.0" r="5.8" fill="#0b2a23" fill-opacity="0.76"/>
  <circle cx="84.0" cy="284.0" r="6.4" fill="#0b2a23" fill-opacity="0.78"/>
  <circle cx="515.0" cy="229.0" r="4.7" fill="#21493a" fill-opacity="0.55"/>
  <circle cx="491.0" cy="589.0" r="5.9" fill="#103429" fill-opacity="0.59"/>
  <circle cx="225.0" cy="454.0" r="4.8" fill="#21493a" fill-opacity="0.73"/>
  <circle cx="530.0" cy="351.0" r="4.8" fill="#0b2a23" fill-opacity="0.74"/>
  <circle cx="222.0" cy="163.0" r="6.6" fill="#103429" fill-opacity="0.82"/>
  <circle cx="217.0" cy="134.0" r="7.0" fill="#0b2a23" fill-opacity="0.74"/>
  <circle cx="175.0" cy="154.0" r="6.8" fill="#103429" fill-opacity="0.73"/>
  <circle cx="1160.0" cy="392.0" r="7.2" fill="#0b2a23" fill-opacity="0.78"/>
  <circle cx="433.0" cy="624.0" r="5.3" fill="#103429" fill-opacity="0.83"/>
  <circle cx="1041.0" cy="77.0" r="6.3" fill="#0b2a23" fill-opacity="0.86"/>
  <circle cx="316.0" cy="321.0" r="4.7" fill="#21493a" fill-opacity="0.86"/>
  <circle cx="93.0" cy="615.0" r="6.0" fill="#103429" fill-opacity="0.69"/>
  <circle cx="440.0" cy="327.0" r="5.7" fill="#103429" fill-opacity="0.64"/>
  <circle cx="270.0" cy="491.0" r="4.9" fill="#21493a" fill-opacity="0.82"/>
  <circle cx="699.0" cy="75.0" r="7.2" fill="#103429" fill-opacity="0.79"/>
  <circle cx="861.0" cy="417.0" r="7.5" fill="#103429" fill-opacity="0.77"/>
  <circle cx="978.0" cy="239.0" r="7.0" fill="#103429" fill-opacity="0.83"/>
  <circle cx="93.0" cy="247.0" r="6.5" fill="#0b2a23" fill-opacity="0.66"/>
  <circle cx="50.0" cy="518.0" r="6.9" fill="#0b2a23" fill-opacity="0.77"/>
  <circle cx="917.0" cy="125.0" r="6.7" fill="#103429" fill-opacity="0.70"/>
  <circle cx="806.0" cy="454.0" r="6.9" fill="#0b2a23" fill-opacity="0.76"/>
  <circle cx="225.0" cy="457.0" r="7.3" fill="#103429" fill-opacity="0.65"/>
  <circle cx="250.0" cy="625.0" r="6.2" fill="#21493a" fill-opacity="0.69"/>
  <circle cx="1064.0" cy="492.0" r="6.5" fill="#103429" fill-opacity="0.64"/>
  <circle cx="961.0" cy="616.0" r="5.6" fill="#103429" fill-opacity="0.68"/>
  <path d="M 148 542 C 405 435, 755 238, 972 154" fill="none" stroke="#1d5a36" stroke-width="126" stroke-linecap="round"/>
  <path d="M 150 541 C 409 433, 752 239, 970 156" fill="none" stroke="#3d7f3d" stroke-width="91" stroke-linecap="round" fill-opacity="0.96"/>
  <path d="M 151 540 C 409 434, 751 240, 969 157" fill="none" stroke="#76ae4a" stroke-width="73" stroke-linecap="round" fill-opacity="0.92"/>
  <ellipse cx="245.9" cy="499.1" rx="60.7" ry="21.8" fill="#86c254" transform="rotate(-21.2 245.9 499.1)" fill-opacity="0.95"/>
  <ellipse cx="401.4" cy="425.4" rx="40.8" ry="26.2" fill="#7bb84a" transform="rotate(9.7 401.4 425.4)" fill-opacity="0.95"/>
  <ellipse cx="571.7" cy="341.0" rx="55.6" ry="22.5" fill="#86c254" transform="rotate(-9.6 571.7 341.0)" fill-opacity="0.95"/>
  <ellipse cx="698.5" cy="278.2" rx="54.5" ry="19.8" fill="#86c254" transform="rotate(-14.3 698.5 278.2)" fill-opacity="0.95"/>
  <ellipse cx="877.3" cy="193.8" rx="55.5" ry="21.5" fill="#7bb84a" transform="rotate(-11.3 877.3 193.8)" fill-opacity="0.95"/>
  <path d="M 318.9 429.7 C 328.7 410.0, 363.2 412.5, 373.1 429.7 C 379.3 447.0, 358.3 456.8, 338.6 453.1 C 321.3 449.4, 311.5 439.6, 318.9 429.7 Z" fill="#f8f8f5" stroke="#e5e7eb" stroke-width="1.5"/>
  <path d="M 542.1 291.9 C 550.1 276.0, 578.0 278.0, 586.0 291.9 C 591.0 305.9, 574.1 313.9, 558.1 310.9 C 544.1 307.9, 536.1 299.9, 542.1 291.9 Z" fill="#f8f8f5" stroke="#e5e7eb" stroke-width="1.5"/>
  <path d="M 789.4 207.3 C 798.8 188.6, 831.6 190.9, 840.9 207.3 C 846.8 223.7, 826.9 233.0, 808.2 229.5 C 791.8 226.0, 782.4 216.6, 789.4 207.3 Z" fill="#f8f8f5" stroke="#e5e7eb" stroke-width="1.5"/>
  <path d="M 166.0 526.0 C 405.0 425.4, 755.0 233.2, 960.0 150.8" fill="none" stroke="#d9d22b" stroke-width="3" marker-end="url(#arrow)" stroke-linecap="round"/>
  <path d="M 174.0 542.0 C 415.0 435.0, 747.0 238.0, 954.0 154.0" fill="none" stroke="#d9d22b" stroke-width="3" marker-end="url(#arrow)" stroke-linecap="round"/>
  <path d="M 182.0 558.0 C 425.0 444.6, 739.0 242.8, 948.0 157.2" fill="none" stroke="#d9d22b" stroke-width="3" marker-end="url(#arrow)" stroke-linecap="round"/>
  <circle cx="155.5" cy="491.3" r="7.8" fill="#1e4638" fill-opacity="0.77"/>
  <circle cx="167.6" cy="499.0" r="5.0" fill="#103529" fill-opacity="0.86"/>
  <circle cx="199.2" cy="510.1" r="8.6" fill="#1e4638" fill-opacity="0.92"/>
  <circle cx="215.5" cy="464.4" r="5.8" fill="#08261f" fill-opacity="0.81"/>
  <circle cx="214.8" cy="466.4" r="8.7" fill="#103529" fill-opacity="0.87"/>
  <circle cx="249.2" cy="475.9" r="7.9" fill="#103529" fill-opacity="0.91"/>
  <circle cx="250.3" cy="466.5" r="6.3" fill="#103529" fill-opacity="0.91"/>
  <circle cx="274.8" cy="461.2" r="8.7" fill="#1e4638" fill-opacity="0.88"/>
  <circle cx="319.1" cy="536.3" r="7.9" fill="#103529" fill-opacity="0.88"/>
  <circle cx="340.7" cy="406.4" r="8.8" fill="#1e4638" fill-opacity="0.90"/>
  <circle cx="344.6" cy="400.0" r="6.6" fill="#103529" fill-opacity="0.78"/>
  <circle cx="374.9" cy="480.9" r="8.6" fill="#103529" fill-opacity="0.95"/>
  <circle cx="406.8" cy="441.3" r="8.5" fill="#1e4638" fill-opacity="0.91"/>
  <circle cx="420.1" cy="394.6" r="6.9" fill="#08261f" fill-opacity="0.90"/>
  <circle cx="443.9" cy="405.6" r="7.3" fill="#08261f" fill-opacity="0.84"/>
  <circle cx="471.2" cy="387.8" r="8.4" fill="#1e4638" fill-opacity="0.93"/>
  <circle cx="487.9" cy="336.1" r="5.7" fill="#103529" fill-opacity="0.77"/>
  <circle cx="485.1" cy="392.2" r="6.0" fill="#1e4638" fill-opacity="0.94"/>
  <circle cx="519.8" cy="348.2" r="7.1" fill="#08261f" fill-opacity="0.83"/>
  <circle cx="544.3" cy="367.4" r="7.8" fill="#1e4638" fill-opacity="0.81"/>
  <circle cx="551.9" cy="359.4" r="8.0" fill="#1e4638" fill-opacity="0.93"/>
  <circle cx="571.0" cy="287.8" r="5.4" fill="#08261f" fill-opacity="0.77"/>
  <circle cx="597.3" cy="383.9" r="6.2" fill="#103529" fill-opacity="0.82"/>
  <circle cx="626.0" cy="286.6" r="8.8" fill="#1e4638" fill-opacity="0.86"/>
  <circle cx="661.4" cy="299.8" r="8.9" fill="#103529" fill-opacity="0.85"/>
  <circle cx="656.4" cy="294.4" r="5.7" fill="#1e4638" fill-opacity="0.80"/>
  <circle cx="688.6" cy="325.8" r="6.1" fill="#08261f" fill-opacity="0.82"/>
  <circle cx="724.8" cy="281.2" r="5.7" fill="#1e4638" fill-opacity="0.82"/>
  <circle cx="741.7" cy="209.7" r="5.9" fill="#1e4638" fill-opacity="0.88"/>
  <circle cx="768.0" cy="305.7" r="5.1" fill="#08261f" fill-opacity="0.76"/>
  <circle cx="770.9" cy="225.6" r="5.3" fill="#08261f" fill-opacity="0.92"/>
  <circle cx="793.6" cy="293.8" r="8.4" fill="#08261f" fill-opacity="0.88"/>
  <circle cx="825.0" cy="242.4" r="7.8" fill="#103529" fill-opacity="0.90"/>
  <circle cx="826.4" cy="268.1" r="6.7" fill="#103529" fill-opacity="0.85"/>
  <circle cx="865.6" cy="149.6" r="7.2" fill="#103529" fill-opacity="0.77"/>
  <circle cx="873.4" cy="203.6" r="8.9" fill="#08261f" fill-opacity="0.85"/>
  <circle cx="891.3" cy="251.2" r="7.4" fill="#103529" fill-opacity="0.77"/>
  <circle cx="908.4" cy="195.5" r="7.4" fill="#08261f" fill-opacity="0.84"/>
  <circle cx="911.1" cy="170.4" r="5.6" fill="#103529" fill-opacity="0.81"/>
  <circle cx="941.4" cy="192.0" r="5.0" fill="#103529" fill-opacity="0.93"/>
  <circle cx="957.1" cy="159.2" r="5.5" fill="#1e4638" fill-opacity="0.82"/>
  <circle cx="983.6" cy="122.3" r="5.1" fill="#1e4638" fill-opacity="0.87"/>
  <circle cx="592.6" cy="330.6" r="31" fill="#e2d71c" stroke="#c5b90f" stroke-width="2"/>
  <text x="592.6" y="342.6" text-anchor="middle" fill="#0f172a" font-family="Georgia, serif" font-size="58" font-weight="700">1</text>
</svg>
