<svg xmlns="http://www.w3.org/2000/svg" viewBox="0 0 1200 675" role="img" aria-label="Vale da Pinta Hole 11">
  <defs>
    <marker id="arrow" markerWidth="8" markerHeight="8" refX="7" refY="4" orient="auto">
      <path d="M0,0 L8,4 L0,8 z" fill="#d9d22b" />
    </marker>
  </defs>
  <rect width="1200" height="675" fill="#eef3fb"/>
  <circle cx="449.0" cy="609.0" r="5.1" fill="#0b2a23" fill-opacity="0.59"/>
  <circle cx="444.0" cy="96.0" r="5.8" fill="#0b2a23" fill-opacity="0.58"/>
  <circle cx="1041.0" cy="172.0" r="6.6" fill="#103429" fill-opacity="0.56"/>
  <circle cx="85.0" cy="94.0" r="6.9" fill="#0b2a23" fill-opacity="0.59"/>
  <circle cx="1031.0" cy="437.0" r="7.7" fill="#103429" fill-opacity="0.57"/>
  <circle cx="985.0" cy="630.0" r="5.8" fill="#103429" fill-opacity="0.73"/>
  <circle cx="726.0" cy="248.0" r="4.6" fill="#103429" fill-opacity="0.57"/>
  <circle cx="1157.0" cy="266.0" r="4.8" fill="#21493a" fill-opacity="0.82"/>
  <circle cx="257.0" cy="237.0" r="5.6" fill="#0b2a23" fill-opacity="0.58"/>
  <circle cx="589.0" cy="190.0" r="7.6" fill="#103429" fill-opacity="0.69"/>
  <circle cx="1025.0" cy="377.0" r="5.8" fill="#103429" fill-opacity="0.87"/>
  <circle cx="960.0" cy="167.0" r="7.4" fill="#103429" fill-opacity="0.80"/>
  <circle cx="748.0" cy="187.0" r="6.6" fill="#0b2a23" fill-opacity="0.81"/>
  <circle cx="61.0" cy="294.0" r="6.8" fill="#103429" fill-opacity="0.61"/>
  <circle cx="1033.0" cy="72.0" r="6.4" fill="#103429" fill-opacity="0.86"/>
  <circle cx="297.0" cy="254.0" r="5.6" fill="#0b2a23" fill-opacity="0.58"/>
  <circle cx="891.0" cy="408.0" r="7.3" fill="#103429" fill-opacity="0.77"/>
  <circle cx="754.0" cy="588.0" r="7.0" fill="#103429" fill-opacity="0.87"/>
  <circle cx="217.0" cy="242.0" r="6.2" fill="#21493a" fill-opacity="0.85"/>
  <circle cx="984.0" cy="110.0" r="6.8" fill="#103429" fill-opacity="0.61"/>
  <circle cx="1044.0" cy="360.0" r="7.5" fill="#21493a" fill-opacity="0.62"/>
  <circle cx="427.0" cy="469.0" r="6.4" fill="#21493a" fill-opacity="0.68"/>
  <circle cx="159.0" cy="619.0" r="7.4" fill="#103429" fill-opacity="0.74"/>
  <circle cx="468.0" cy="588.0" r="7.5" fill="#21493a" fill-opacity="0.68"/>
  <circle cx="1114.0" cy="85.0" r="6.4" fill="#21493a" fill-opacity="0.64"/>
  <circle cx="353.0" cy="241.0" r="5.0" fill="#21493a" fill-opacity="0.78"/>
  <circle cx="903.0" cy="491.0" r="7.1" fill="#103429" fill-opacity="0.67"/>
  <circle cx="670.0" cy="95.0" r="6.8" fill="#0b2a23" fill-opacity="0.58"/>
  <circle cx="863.0" cy="221.0" r="7.3" fill="#0b2a23" fill-opacity="0.62"/>
  <circle cx="755.0" cy="176.0" r="7.4" fill="#103429" fill-opacity="0.76"/>
  <circle cx="1103.0" cy="589.0" r="5.3" fill="#21493a" fill-opacity="0.74"/>
  <circle cx="157.0" cy="114.0" r="7.4" fill="#103429" fill-opacity="0.57"/>
  <circle cx="743.0" cy="290.0" r="4.8" fill="#0b2a23" fill-opacity="0.85"/>
  <circle cx="1017.0" cy="277.0" r="5.2" fill="#21493a" fill-opacity="0.77"/>
  <circle cx="759.0" cy="593.0" r="6.9" fill="#21493a" fill-opacity="0.76"/>
  <circle cx="172.0" cy="603.0" r="7.3" fill="#21493a" fill-opacity="0.71"/>
  <circle cx="510.0" cy="300.0" r="5.6" fill="#103429" fill-opacity="0.67"/>
  <circle cx="903.0" cy="593.0" r="6.4" fill="#21493a" fill-opacity="0.68"/>
  <circle cx="443.0" cy="276.0" r="5.9" fill="#21493a" fill-opacity="0.79"/>
  <circle cx="390.0" cy="590.0" r="7.1" fill="#21493a" fill-opacity="0.56"/>
  <circle cx="514.0" cy="258.0" r="5.8" fill="#0b2a23" fill-opacity="0.60"/>
  <circle cx="150.0" cy="499.0" r="6.0" fill="#103429" fill-opacity="0.73"/>
  <circle cx="121.0" cy="388.0" r="5.4" fill="#103429" fill-opacity="0.74"/>
  <circle cx="717.0" cy="313.0" r="6.9" fill="#0b2a23" fill-opacity="0.61"/>
  <circle cx="508.0" cy="136.0" r="5.6" fill="#103429" fill-opacity="0.90"/>
  <circle cx="615.0" cy="282.0" r="7.7" fill="#103429" fill-opacity="0.73"/>
  <circle cx="1072.0" cy="560.0" r="5.4" fill="#21493a" fill-opacity="0.89"/>
  <circle cx="569.0" cy="177.0" r="7.7" fill="#103429" fill-opacity="0.72"/>
  <circle cx="108.0" cy="247.0" r="5.8" fill="#0b2a23" fill-opacity="0.74"/>
  <circle cx="833.0" cy="211.0" r="5.8" fill="#0b2a23" fill-opacity="0.61"/>
  <circle cx="825.0" cy="202.0" r="5.3" fill="#21493a" fill-opacity="0.80"/>
  <circle cx="742.0" cy="209.0" r="7.3" fill="#0b2a23" fill-opacity="0.65"/>
  <circle cx="742.0" cy="447.0" r="5.2" fill="#0b2a23" fill-opacity="0.68"/>
  <circle cx="226.0" cy="201.0" r="5.0" fill="#103429" fill-opacity="0.61"/>
  <circle cx="419.0" cy="139.0" r="6.7" fill="#103429" fill-opacity="0.62"/>
  <circle cx="697.0" cy="313.0" r="7.5" fill="#0b2a23" fill-opacity="0.82"/>
  <circle cx="908.0" cy="396.0" r="6.6" fill="#21493a" fill-opacity="0.70"/>
  <circle cx="1156.0" cy="211.0" r="4.8" fill="#0b2a23" fill-opacity="0.83"/>
  <circle cx="53.0" cy="209.0" r="7.3" fill="#103429" fill-opacity="0.66"/>
  <circle cx="863.0" cy="589.0" r="5.4" fill="#103429" fill-opacity="0.72"/>
  <circle cx="1150.0" cy="439.0" r="6.6" fill="#103429" fill-opacity="0.76"/>
  <circle cx="646.0" cy="302.0" r="6.0" fill="#0b2a23" fill-opacity="0.89"/>
  <circle cx="735.0" cy="410.0" r="6.0" fill="#0b2a23" fill-opacity="0.82"/>
  <circle cx="1037.0" cy="323.0" r="5.4" fill="#21493a" fill-opacity="0.67"/>
  <circle cx="194.0" cy="185.0" r="4.6" fill="#0b2a23" fill-opacity="0.58"/>
  <circle cx="609.0" cy="524.0" r="5.5" fill="#103429" fill-opacity="0.57"/>
  <circle cx="545.0" cy="242.0" r="5.7" fill="#103429" fill-opacity="0.76"/>
  <circle cx="91.0" cy="354.0" r="6.6" fill="#103429" fill-opacity="0.87"/>
  <circle cx="1121.0" cy="590.0" r="7.8" fill="#0b2a23" fill-opacity="0.67"/>
  <circle cx="856.0" cy="542.0" r="5.4" fill="#0b2a23" fill-opacity="0.70"/>
  <circle cx="127.0" cy="625.0" r="5.9" fill="#0b2a23" fill-opacity="0.78"/>
  <circle cx="307.0" cy="549.0" r="6.1" fill="#0b2a23" fill-opacity="0.55"/>
  <circle cx="600.0" cy="380.0" r="6.1" fill="#21493a" fill-opacity="0.85"/>
  <circle cx="332.0" cy="185.0" r="4.5" fill="#21493a" fill-opacity="0.80"/>
  <circle cx="740.0" cy="281.0" r="5.2" fill="#0b2a23" fill-opacity="0.80"/>
  <circle cx="35.0" cy="389.0" r="4.9" fill="#0b2a23" fill-opacity="0.58"/>
  <circle cx="718.0" cy="348.0" r="6.9" fill="#103429" fill-opacity="0.72"/>
  <circle cx="166.0" cy="566.0" r="6.8" fill="#0b2a23" fill-opacity="0.85"/>
  <circle cx="178.0" cy="515.0" r="7.0" fill="#21493a" fill-opacity="0.67"/>
  <circle cx="178.0" cy="622.0" r="7.4" fill="#103429" fill-opacity="0.76"/>
  <circle cx="40.0" cy="242.0" r="5.5" fill="#0b2a23" fill-opacity="0.78"/>
  <circle cx="564.0" cy="170.0" r="4.8" fill="#21493a" fill-opacity="0.88"/>
  <circle cx="510.0" cy="374.0" r="6.9" fill="#103429" fill-opacity="0.69"/>
  <circle cx="893.0" cy="342.0" r="5.4" fill="#21493a" fill-opacity="0.69"/>
  <circle cx="868.0" cy="561.0" r="4.9" fill="#0b2a23" fill-opacity="0.80"/>
  <circle cx="1144.0" cy="286.0" r="6.6" fill="#103429" fill-opacity="0.80"/>
  <circle cx="795.0" cy="565.0" r="6.9" fill="#103429" fill-opacity="0.87"/>
  <circle cx="1109.0" cy="584.0" r="6.5" fill="#21493a" fill-opacity="0.71"/>
  <circle cx="844.0" cy="125.0" r="7.5" fill="#103429" fill-opacity="0.68"/>
  <circle cx="1080.0" cy="615.0" r="7.4" fill="#103429" fill-opacity="0.79"/>
  <path d="M 148 506 C 585 330, 755 294, 876 290" fill="none" stroke="#1d5a36" stroke-width="126" stroke-linecap="round"/>
  <path d="M 150 505 C 589 328, 752 295, 874 292" fill="none" stroke="#3d7f3d" stroke-width="91" stroke-linecap="round" fill-opacity="0.96"/>
  <path d="M 151 504 C 589 329, 751 296, 873 293" fill="none" stroke="#76ae4a" stroke-width="73" stroke-linecap="round" fill-opacity="0.92"/>
  <ellipse cx="312.5" cy="441.5" rx="45.1" ry="16.6" fill="#7bb84a" transform="rotate(-37.6 312.5 441.5)" fill-opacity="0.95"/>
  <ellipse cx="496.1" cy="375.3" rx="57.5" ry="26.7" fill="#86c254" transform="rotate(31.6 496.1 375.3)" fill-opacity="0.95"/>
  <ellipse cx="635.1" cy="332.2" rx="64.7" ry="14.3" fill="#86c254" transform="rotate(-27.9 635.1 332.2)" fill-opacity="0.95"/>
  <ellipse cx="738.5" cy="307.0" rx="63.6" ry="26.1" fill="#7bb84a" transform="rotate(-37.4 738.5 307.0)" fill-opacity="0.95"/>
  <ellipse cx="811.4" cy="295.0" rx="32.0" ry="22.8" fill="#86c254" transform="rotate(-0.9 811.4 295.0)" fill-opacity="0.95"/>
  <path d="M 420.8 377.4 C 430.1 358.8, 462.7 361.1, 472.0 377.4 C 477.8 393.7, 458.0 403.1, 439.4 399.6 C 423.1 396.1, 413.8 386.8, 420.8 377.4 Z" fill="#f8f8f5" stroke="#e5e7eb" stroke-width="1.5"/>
  <path d="M 594.7 339.7 C 602.1 324.9, 627.9 326.8, 635.3 339.7 C 639.9 352.6, 624.2 360.0, 609.5 357.2 C 596.5 354.5, 589.2 347.1, 594.7 339.7 Z" fill="#f8f8f5" stroke="#e5e7eb" stroke-width="1.5"/>
  <path d="M 767.1 283.0 C 776.9 263.2, 811.6 265.7, 821.5 283.0 C 827.7 300.3, 806.6 310.2, 786.8 306.5 C 769.5 302.8, 759.6 292.9, 767.1 283.0 Z" fill="#f8f8f5" stroke="#e5e7eb" stroke-width="1.5"/>
  <path d="M 166.0 490.0 C 585.0 320.4, 755.0 289.2, 864.0 286.8" fill="none" stroke="#d9d22b" stroke-width="3" marker-end="url(#arrow)" stroke-linecap="round"/>
  <path d="M 174.0 506.0 C 595.0 330.0, 747.0 294.0, 858.0 290.0" fill="none" stroke="#d9d22b" stroke-width="3" marker-end="url(#arrow)" stroke-linecap="round"/>
  <circle cx="153.7" cy="457.5" r="8.8" fill="#103529" fill-opacity="0.91"/>
  <circle cx="183.8" cy="441.9" r="5.6" fill="#1e4638" fill-opacity="0.78"/>
  <circle cx="210.0" cy="423.9" r="6.9" fill="#1e4638" fill-opacity="0.76"/>
  <circle cx="248.3" cy="417.6" r="5.1" fill="#103529" fill-opacity="0.93"/>
  <circle cx="260.5" cy="443.2" r="7.6" fill="#08261f" fill-opacity="0.94"/>
  <circle cx="309.6" cy="433.0" r="7.7" fill="#1e4638" fill-opacity="0.78"/>
  <circle cx="319.8" cy="411.3" r="8.1" fill="#08261f" fill-opacity="0.89"/>
  <circle cx="351.8" cy="425.6" r="8.4" fill="#1e4638" fill-opacity="0.91"/>
  <circle cx="360.8" cy="379.7" r="8.0" fill="#08261f" fill-opacity="0.86"/>
  <circle cx="390.7" cy="458.0" r="8.1" fill="#1e4638" fill-opacity="0.94"/>
  <circle cx="422.5" cy="362.5" r="6.7" fill="#08261f" fill-opacity="0.84"/>
  <circle cx="435.0" cy="384.7" r="7.5" fill="#103529" fill-opacity="0.91"/>
  <circle cx="475.6" cy="440.7" r="8.1" fill="#103529" fill-opacity="0.79"/>
  <circle cx="503.2" cy="414.2" r="6.9" fill="#103529" fill-opacity="0.81"/>
  <circle cx="513.8" cy="407.2" r="8.7" fill="#1e4638" fill-opacity="0.80"/>
  <circle cx="536.7" cy="326.8" r="8.0" fill="#08261f" fill-opacity="0.84"/>
  <circle cx="551.4" cy="393.4" r="6.4" fill="#103529" fill-opacity="0.83"/>
  <circle cx="566.9" cy="384.8" r="7.5" fill="#1e4638" fill-opacity="0.83"/>
  <circle cx="572.4" cy="293.0" r="7.2" fill="#1e4638" fill-opacity="0.90"/>
  <circle cx="599.5" cy="375.4" r="7.5" fill="#1e4638" fill-opacity="0.76"/>
  <circle cx="637.5" cy="351.6" r="6.2" fill="#1e4638" fill-opacity="0.87"/>
  <circle cx="647.0" cy="278.1" r="5.9" fill="#08261f" fill-opacity="0.87"/>
  <circle cx="641.3" cy="346.3" r="7.9" fill="#1e4638" fill-opacity="0.84"/>
  <circle cx="685.4" cy="359.5" r="7.6" fill="#08261f" fill-opacity="0.89"/>
  <circle cx="692.8" cy="321.8" r="5.8" fill="#08261f" fill-opacity="0.86"/>
  <circle cx="694.7" cy="362.7" r="5.2" fill="#1e4638" fill-opacity="0.90"/>
  <circle cx="710.7" cy="315.9" r="6.4" fill="#08261f" fill-opacity="0.79"/>
  <circle cx="722.1" cy="251.0" r="6.1" fill="#1e4638" fill-opacity="0.93"/>
  <circle cx="747.9" cy="275.5" r="7.0" fill="#08261f" fill-opacity="0.95"/>
  <circle cx="743.6" cy="321.2" r="8.4" fill="#08261f" fill-opacity="0.88"/>
  <circle cx="750.3" cy="345.1" r="8.6" fill="#1e4638" fill-opacity="0.93"/>
  <circle cx="767.3" cy="346.8" r="8.7" fill="#103529" fill-opacity="0.76"/>
  <circle cx="776.9" cy="286.7" r="6.2" fill="#103529" fill-opacity="0.90"/>
  <circle cx="813.5" cy="254.0" r="6.7" fill="#103529" fill-opacity="0.95"/>
  <circle cx="812.0" cy="339.2" r="6.3" fill="#1e4638" fill-opacity="0.93"/>
  <circle cx="818.5" cy="354.6" r="7.7" fill="#1e4638" fill-opacity="0.89"/>
  <circle cx="833.2" cy="303.0" r="5.5" fill="#1e4638" fill-opacity="0.76"/>
  <circle cx="834.8" cy="334.9" r="6.4" fill="#103529" fill-opacity="0.80"/>
  <circle cx="838.6" cy="321.7" r="8.1" fill="#1e4638" fill-opacity="0.86"/>
  <circle cx="852.2" cy="322.3" r="5.5" fill="#103529" fill-opacity="0.91"/>
  <circle cx="851.9" cy="346.2" r="8.6" fill="#103529" fill-opacity="0.78"/>
  <circle cx="871.0" cy="246.3" r="6.9" fill="#1e4638" fill-opacity="0.79"/>
  <circle cx="643.8" cy="329.8" r="31" fill="#e2d71c" stroke="#c5b90f" stroke-width="2"/>
  <text x="643.8" y="341.8" text-anchor="middle" fill="#0f172a" font-family="Georgia, serif" font-size="58" font-weight="700">11</text>
</svg>
