<svg xmlns="http://www.w3.org/2000/svg" viewBox="0 0 1200 675" role="img" aria-label="Vale da Pinta Hole 12">
  <defs>
    <marker id="arrow" markerWidth="8" markerHeight="8" refX="7" refY="4" orient="auto">
      <path d="M0,0 L8,4 L0,8 z" fill="#d9d22b" />
    </marker>
  </defs>
  <rect width="1200" height="675" fill="#eef3fb"/>
  <circle cx="166.0" cy="144.0" r="5.7" fill="#21493a" fill-opacity="0.89"/>
  <circle cx="57.0" cy="169.0" r="6.4" fill="#0b2a23" fill-opacity="0.75"/>
  <circle cx="409.0" cy="296.0" r="4.9" fill="#103429" fill-opacity="0.58"/>
  <circle cx="1046.0" cy="559.0" r="5.7" fill="#103429" fill-opacity="0.89"/>
  <circle cx="1053.0" cy="78.0" r="6.8" fill="#0b2a23" fill-opacity="0.63"/>
  <circle cx="873.0" cy="635.0" r="5.3" fill="#103429" fill-opacity="0.74"/>
  <circle cx="535.0" cy="297.0" r="5.1" fill="#0b2a23" fill-opacity="0.80"/>
  <circle cx="303.0" cy="389.0" r="7.8" fill="#103429" fill-opacity="0.64"/>
  <circle cx="806.0" cy="390.0" r="7.7" fill="#0b2a23" fill-opacity="0.89"/>
  <circle cx="229.0" cy="435.0" r="7.8" fill="#103429" fill-opacity="0.86"/>
  <circle cx="1080.0" cy="382.0" r="4.5" fill="#103429" fill-opacity="0.72"/>
  <circle cx="948.0" cy="523.0" r="4.7" fill="#103429" fill-opacity="0.69"/>
  <circle cx="80.0" cy="122.0" r="4.7" fill="#0b2a23" fill-opacity="0.85"/>
  <circle cx="375.0" cy="99.0" r="7.8" fill="#0b2a23" fill-opacity="0.68"/>
  <circle cx="46.0" cy="160.0" r="6.1" fill="#0b2a23" fill-opacity="0.78"/>
  <circle cx="911.0" cy="200.0" r="8.0" fill="#21493a" fill-opacity="0.81"/>
  <circle cx="339.0" cy="263.0" r="7.0" fill="#103429" fill-opacity="0.82"/>
  <circle cx="450.0" cy="189.0" r="6.7" fill="#103429" fill-opacity="0.56"/>
  <circle cx="638.0" cy="322.0" r="7.3" fill="#0b2a23" fill-opacity="0.61"/>
  <circle cx="786.0" cy="66.0" r="7.6" fill="#0b2a23" fill-opacity="0.77"/>
  <circle cx="417.0" cy="255.0" r="6.9" fill="#21493a" fill-opacity="0.60"/>
  <circle cx="869.0" cy="346.0" r="7.8" fill="#103429" fill-opacity="0.84"/>
  <circle cx="973.0" cy="500.0" r="5.8" fill="#21493a" fill-opacity="0.57"/>
  <circle cx="542.0" cy="339.0" r="5.3" fill="#103429" fill-opacity="0.64"/>
  <circle cx="177.0" cy="433.0" r="5.5" fill="#21493a" fill-opacity="0.76"/>
  <circle cx="357.0" cy="478.0" r="6.9" fill="#103429" fill-opacity="0.79"/>
  <circle cx="892.0" cy="366.0" r="6.5" fill="#21493a" fill-opacity="0.59"/>
  <circle cx="699.0" cy="238.0" r="5.0" fill="#103429" fill-opacity="0.59"/>
  <circle cx="539.0" cy="539.0" r="8.0" fill="#21493a" fill-opacity="0.82"/>
  <circle cx="706.0" cy="149.0" r="5.2" fill="#103429" fill-opacity="0.56"/>
  <circle cx="310.0" cy="145.0" r="7.9" fill="#0b2a23" fill-opacity="0.82"/>
  <circle cx="1041.0" cy="615.0" r="6.4" fill="#21493a" fill-opacity="0.71"/>
  <circle cx="374.0" cy="245.0" r="6.1" fill="#103429" fill-opacity="0.63"/>
  <circle cx="702.0" cy="367.0" r="7.5" fill="#0b2a23" fill-opacity="0.59"/>
  <circle cx="644.0" cy="370.0" r="6.9" fill="#103429" fill-opacity="0.66"/>
  <circle cx="570.0" cy="302.0" r="7.0" fill="#0b2a23" fill-opacity="0.89"/>
  <circle cx="580.0" cy="170.0" r="6.0" fill="#21493a" fill-opacity="0.56"/>
  <circle cx="83.0" cy="432.0" r="7.4" fill="#0b2a23" fill-opacity="0.62"/>
  <circle cx="743.0" cy="597.0" r="6.4" fill="#103429" fill-opacity="0.69"/>
  <circle cx="466.0" cy="252.0" r="7.5" fill="#0b2a23" fill-opacity="0.75"/>
  <circle cx="251.0" cy="591.0" r="5.2" fill="#103429" fill-opacity="0.77"/>
  <circle cx="1096.0" cy="265.0" r="7.6" fill="#0b2a23" fill-opacity="0.81"/>
  <circle cx="1022.0" cy="565.0" r="7.8" fill="#21493a" fill-opacity="0.88"/>
  <circle cx="744.0" cy="393.0" r="7.6" fill="#103429" fill-opacity="0.64"/>
  <circle cx="304.0" cy="82.0" r="6.9" fill="#103429" fill-opacity="0.87"/>
  <circle cx="890.0" cy="192.0" r="7.6" fill="#0b2a23" fill-opacity="0.77"/>
  <circle cx="61.0" cy="231.0" r="7.9" fill="#103429" fill-opacity="0.72"/>
  <circle cx="806.0" cy="115.0" r="5.9" fill="#103429" fill-opacity="0.78"/>
  <circle cx="327.0" cy="492.0" r="7.6" fill="#103429" fill-opacity="0.65"/>
  <circle cx="185.0" cy="117.0" r="4.6" fill="#21493a" fill-opacity="0.59"/>
  <circle cx="385.0" cy="618.0" r="7.0" fill="#103429" fill-opacity="0.71"/>
  <circle cx="265.0" cy="295.0" r="5.1" fill="#21493a" fill-opacity="0.78"/>
  <circle cx="769.0" cy="523.0" r="6.5" fill="#0b2a23" fill-opacity="0.66"/>
  <circle cx="300.0" cy="401.0" r="5.2" fill="#0b2a23" fill-opacity="0.67"/>
  <circle cx="124.0" cy="343.0" r="7.6" fill="#21493a" fill-opacity="0.70"/>
  <circle cx="350.0" cy="346.0" r="5.1" fill="#0b2a23" fill-opacity="0.69"/>
  <circle cx="836.0" cy="314.0" r="6.0" fill="#0b2a23" fill-opacity="0.70"/>
  <circle cx="894.0" cy="553.0" r="6.9" fill="#0b2a23" fill-opacity="0.87"/>
  <circle cx="498.0" cy="59.0" r="6.3" fill="#103429" fill-opacity="0.82"/>
  <circle cx="1064.0" cy="468.0" r="6.9" fill="#0b2a23" fill-opacity="0.83"/>
  <circle cx="185.0" cy="586.0" r="7.3" fill="#103429" fill-opacity="0.68"/>
  <circle cx="713.0" cy="455.0" r="5.9" fill="#0b2a23" fill-opacity="0.79"/>
  <circle cx="1016.0" cy="167.0" r="6.4" fill="#103429" fill-opacity="0.62"/>
  <circle cx="764.0" cy="296.0" r="7.6" fill="#21493a" fill-opacity="0.59"/>
  <circle cx="615.0" cy="292.0" r="5.8" fill="#103429" fill-opacity="0.86"/>
  <circle cx="906.0" cy="425.0" r="6.0" fill="#103429" fill-opacity="0.62"/>
  <circle cx="908.0" cy="380.0" r="6.4" fill="#21493a" fill-opacity="0.67"/>
  <circle cx="810.0" cy="555.0" r="4.8" fill="#0b2a23" fill-opacity="0.81"/>
  <circle cx="753.0" cy="465.0" r="7.0" fill="#0b2a23" fill-opacity="0.77"/>
  <circle cx="800.0" cy="494.0" r="5.9" fill="#21493a" fill-opacity="0.75"/>
  <circle cx="517.0" cy="92.0" r="6.4" fill="#21493a" fill-opacity="0.85"/>
  <circle cx="546.0" cy="627.0" r="7.1" fill="#21493a" fill-opacity="0.79"/>
  <circle cx="1001.0" cy="139.0" r="5.8" fill="#0b2a23" fill-opacity="0.74"/>
  <circle cx="975.0" cy="317.0" r="7.9" fill="#0b2a23" fill-opacity="0.76"/>
  <circle cx="638.0" cy="535.0" r="4.8" fill="#21493a" fill-opacity="0.85"/>
  <circle cx="292.0" cy="229.0" r="7.6" fill="#103429" fill-opacity="0.78"/>
  <circle cx="1011.0" cy="311.0" r="6.6" fill="#21493a" fill-opacity="0.86"/>
  <circle cx="1163.0" cy="108.0" r="4.9" fill="#103429" fill-opacity="0.65"/>
  <circle cx="999.0" cy="273.0" r="7.5" fill="#0b2a23" fill-opacity="0.83"/>
  <circle cx="991.0" cy="76.0" r="5.7" fill="#103429" fill-opacity="0.78"/>
  <circle cx="472.0" cy="101.0" r="7.5" fill="#103429" fill-opacity="0.84"/>
  <circle cx="175.0" cy="76.0" r="7.7" fill="#0b2a23" fill-opacity="0.86"/>
  <circle cx="485.0" cy="368.0" r="7.9" fill="#21493a" fill-opacity="0.60"/>
  <circle cx="338.0" cy="241.0" r="5.4" fill="#21493a" fill-opacity="0.87"/>
  <circle cx="718.0" cy="225.0" r="6.0" fill="#21493a" fill-opacity="0.89"/>
  <circle cx="550.0" cy="311.0" r="6.5" fill="#21493a" fill-opacity="0.63"/>
  <circle cx="1016.0" cy="255.0" r="7.8" fill="#103429" fill-opacity="0.81"/>
  <circle cx="353.0" cy="111.0" r="6.3" fill="#21493a" fill-opacity="0.74"/>
  <circle cx="350.0" cy="462.0" r="5.1" fill="#0b2a23" fill-opacity="0.64"/>
  <circle cx="249.0" cy="634.0" r="7.6" fill="#21493a" fill-opacity="0.80"/>
  <path d="M 176 560 C 360 295, 790 322, 1020 120" fill="none" stroke="#1d5a36" stroke-width="146" stroke-linecap="round"/>
  <path d="M 178 559 C 364 293, 787 323, 1018 122" fill="none" stroke="#3d7f3d" stroke-width="106" stroke-linecap="round" fill-opacity="0.96"/>
  <path d="M 179 558 C 364 294, 786 324, 1017 123" fill="none" stroke="#76ae4a" stroke-width="84" stroke-linecap="round" fill-opacity="0.92"/>
  <ellipse cx="273.9" cy="458.7" rx="67.8" ry="15.4" fill="#86c254" transform="rotate(27.8 273.9 458.7)" fill-opacity="0.95"/>
  <ellipse cx="376.9" cy="395.5" rx="45.9" ry="16.8" fill="#7bb84a" transform="rotate(3.8 376.9 395.5)" fill-opacity="0.95"/>
  <ellipse cx="589.3" cy="313.6" rx="48.5" ry="17.4" fill="#86c254" transform="rotate(-23.9 589.3 313.6)" fill-opacity="0.95"/>
  <ellipse cx="735.2" cy="266.6" rx="51.1" ry="21.6" fill="#7bb84a" transform="rotate(-37.3 735.2 266.6)" fill-opacity="0.95"/>
  <ellipse cx="901.6" cy="198.7" rx="30.7" ry="20.8" fill="#86c254" transform="rotate(37.3 901.6 198.7)" fill-opacity="0.95"/>
  <path d="M 348.8 338.5 C 356.9 322.3, 385.1 324.4, 393.2 338.5 C 398.2 352.6, 381.1 360.6, 365.0 357.6 C 350.9 354.6, 342.8 346.5, 348.8 338.5 Z" fill="#f8f8f5" stroke="#e5e7eb" stroke-width="1.5"/>
  <path d="M 562.3 322.1 C 570.8 305.2, 600.4 307.3, 608.9 322.1 C 614.2 336.9, 596.2 345.4, 579.3 342.2 C 564.5 339.0, 556.0 330.6, 562.3 322.1 Z" fill="#f8f8f5" stroke="#e5e7eb" stroke-width="1.5"/>
  <path d="M 907.2 181.3 C 916.7 162.2, 950.2 164.5, 959.7 181.3 C 965.7 198.0, 945.4 207.6, 926.3 204.0 C 909.6 200.4, 900.0 190.8, 907.2 181.3 Z" fill="#f8f8f5" stroke="#e5e7eb" stroke-width="1.5"/>
  <path d="M 194.0 544.0 C 360.0 285.4, 790.0 317.2, 1008.0 116.8" fill="none" stroke="#d9d22b" stroke-width="3" marker-end="url(#arrow)" stroke-linecap="round"/>
  <path d="M 202.0 560.0 C 370.0 295.0, 782.0 322.0, 1002.0 120.0" fill="none" stroke="#d9d22b" stroke-width="3" marker-end="url(#arrow)" stroke-linecap="round"/>
  <circle cx="173.6" cy="534.9" r="5.6" fill="#1e4638" fill-opacity="0.78"/>
  <circle cx="175.1" cy="559.9" r="7.3" fill="#103529" fill-opacity="0.90"/>
  <circle cx="197.4" cy="550.6" r="5.4" fill="#1e4638" fill-opacity="0.82"/>
  <circle cx="233.9" cy="490.6" r="8.0" fill="#1e4638" fill-opacity="0.88"/>
  <circle cx="241.9" cy="501.6" r="8.5" fill="#1e4638" fill-opacity="0.78"/>
  <circle cx="250.8" cy="517.1" r="8.1" fill="#08261f" fill-opacity="0.87"/>
  <circle cx="272.3" cy="413.8" r="5.1" fill="#103529" fill-opacity="0.91"/>
  <circle cx="293.2" cy="463.0" r="8.7" fill="#08261f" fill-opacity="0.80"/>
  <circle cx="309.3" cy="383.1" r="6.1" fill="#08261f" fill-opacity="0.80"/>
  <circle cx="321.1" cy="436.0" r="6.4" fill="#1e4638" fill-opacity="0.76"/>
  <circle cx="359.2" cy="402.3" r="8.2" fill="#103529" fill-opacity="0.77"/>
  <circle cx="368.9" cy="434.8" r="7.3" fill="#1e4638" fill-opacity="0.91"/>
  <circle cx="401.5" cy="436.6" r="5.5" fill="#1e4638" fill-opacity="0.91"/>
  <circle cx="396.3" cy="420.1" r="8.9" fill="#1e4638" fill-opacity="0.91"/>
  <circle cx="420.6" cy="368.9" r="5.6" fill="#103529" fill-opacity="0.90"/>
  <circle cx="449.3" cy="418.9" r="7.9" fill="#103529" fill-opacity="0.85"/>
  <circle cx="470.8" cy="334.1" r="8.6" fill="#103529" fill-opacity="0.89"/>
  <circle cx="492.7" cy="337.8" r="7.5" fill="#103529" fill-opacity="0.84"/>
  <circle cx="513.9" cy="269.9" r="8.4" fill="#1e4638" fill-opacity="0.76"/>
  <circle cx="544.4" cy="360.6" r="8.8" fill="#103529" fill-opacity="0.83"/>
  <circle cx="556.1" cy="281.5" r="7.9" fill="#103529" fill-opacity="0.76"/>
  <circle cx="600.9" cy="305.4" r="5.5" fill="#103529" fill-opacity="0.80"/>
  <circle cx="609.3" cy="268.0" r="7.8" fill="#08261f" fill-opacity="0.75"/>
  <circle cx="636.8" cy="287.6" r="6.7" fill="#103529" fill-opacity="0.83"/>
  <circle cx="674.4" cy="342.9" r="6.7" fill="#08261f" fill-opacity="0.93"/>
  <circle cx="695.2" cy="228.6" r="8.7" fill="#103529" fill-opacity="0.78"/>
  <circle cx="724.1" cy="309.1" r="8.4" fill="#103529" fill-opacity="0.92"/>
  <circle cx="738.1" cy="231.0" r="7.4" fill="#103529" fill-opacity="0.92"/>
  <circle cx="743.5" cy="313.7" r="8.2" fill="#08261f" fill-opacity="0.85"/>
  <circle cx="790.4" cy="218.5" r="7.8" fill="#103529" fill-opacity="0.79"/>
  <circle cx="801.2" cy="205.3" r="6.3" fill="#08261f" fill-opacity="0.78"/>
  <circle cx="813.1" cy="218.5" r="5.3" fill="#1e4638" fill-opacity="0.82"/>
  <circle cx="830.1" cy="188.2" r="7.2" fill="#08261f" fill-opacity="0.78"/>
  <circle cx="862.8" cy="276.6" r="8.1" fill="#08261f" fill-opacity="0.93"/>
  <circle cx="892.6" cy="214.7" r="5.3" fill="#08261f" fill-opacity="0.84"/>
  <circle cx="906.0" cy="246.7" r="6.3" fill="#1e4638" fill-opacity="0.85"/>
  <circle cx="926.4" cy="175.0" r="7.8" fill="#1e4638" fill-opacity="0.87"/>
  <circle cx="943.4" cy="226.3" r="6.7" fill="#103529" fill-opacity="0.87"/>
  <circle cx="977.0" cy="177.3" r="7.9" fill="#08261f" fill-opacity="0.75"/>
  <circle cx="986.1" cy="128.4" r="8.1" fill="#1e4638" fill-opacity="0.82"/>
  <circle cx="1008.2" cy="112.8" r="5.5" fill="#08261f" fill-opacity="0.90"/>
  <circle cx="1016.6" cy="161.6" r="6.3" fill="#103529" fill-opacity="0.86"/>
  <circle cx="599.9" cy="310.2" r="31" fill="#e2d71c" stroke="#c5b90f" stroke-width="2"/>
  <text x="599.9" y="322.2" text-anchor="middle" fill="#0f172a" font-family="Georgia, serif" font-size="58" font-weight="700">12</text>
</svg>
