<svg xmlns="http://www.w3.org/2000/svg" viewBox="0 0 1200 675" role="img" aria-label="Vale da Pinta Hole 15">
  <defs>
    <marker id="arrow" markerWidth="8" markerHeight="8" refX="7" refY="4" orient="auto">
      <path d="M0,0 L8,4 L0,8 z" fill="#d9d22b" />
    </marker>
  </defs>
  <rect width="1200" height="675" fill="#eef3fb"/>
  <circle cx="795.0" cy="533.0" r="7.5" fill="#103429" fill-opacity="0.88"/>
  <circle cx="62.0" cy="164.0" r="6.2" fill="#103429" fill-opacity="0.74"/>
  <circle cx="134.0" cy="198.0" r="6.1" fill="#0b2a23" fill-opacity="0.70"/>
  <circle cx="309.0" cy="263.0" r="5.3" fill="#21493a" fill-opacity="0.64"/>
  <circle cx="424.0" cy="170.0" r="5.1" fill="#0b2a23" fill-opacity="0.56"/>
  <circle cx="708.0" cy="170.0" r="5.0" fill="#0b2a23" fill-opacity="0.78"/>
  <circle cx="834.0" cy="164.0" r="5.3" fill="#103429" fill-opacity="0.67"/>
  <circle cx="925.0" cy="315.0" r="6.5" fill="#103429" fill-opacity="0.73"/>
  <circle cx="1061.0" cy="359.0" r="8.0" fill="#103429" fill-opacity="0.62"/>
  <circle cx="1086.0" cy="607.0" r="6.7" fill="#0b2a23" fill-opacity="0.61"/>
  <circle cx="687.0" cy="64.0" r="5.9" fill="#103429" fill-opacity="0.76"/>
  <circle cx="916.0" cy="165.0" r="6.7" fill="#0b2a23" fill-opacity="0.82"/>
  <circle cx="376.0" cy="79.0" r="7.4" fill="#0b2a23" fill-opacity="0.67"/>
  <circle cx="489.0" cy="520.0" r="7.4" fill="#21493a" fill-opacity="0.71"/>
  <circle cx="438.0" cy="556.0" r="6.0" fill="#0b2a23" fill-opacity="0.83"/>
  <circle cx="344.0" cy="396.0" r="4.5" fill="#21493a" fill-opacity="0.65"/>
  <circle cx="356.0" cy="451.0" r="6.3" fill="#21493a" fill-opacity="0.87"/>
  <circle cx="563.0" cy="263.0" r="5.9" fill="#103429" fill-opacity="0.72"/>
  <circle cx="101.0" cy="58.0" r="6.2" fill="#21493a" fill-opacity="0.61"/>
  <circle cx="902.0" cy="156.0" r="6.3" fill="#0b2a23" fill-opacity="0.65"/>
  <circle cx="48.0" cy="539.0" r="4.5" fill="#21493a" fill-opacity="0.64"/>
  <circle cx="211.0" cy="286.0" r="6.0" fill="#0b2a23" fill-opacity="0.78"/>
  <circle cx="46.0" cy="180.0" r="6.4" fill="#103429" fill-opacity="0.87"/>
  <circle cx="457.0" cy="524.0" r="4.8" fill="#0b2a23" fill-opacity="0.76"/>
  <circle cx="838.0" cy="444.0" r="7.4" fill="#103429" fill-opacity="0.88"/>
  <circle cx="403.0" cy="347.0" r="5.6" fill="#21493a" fill-opacity="0.56"/>
  <circle cx="622.0" cy="294.0" r="7.0" fill="#21493a" fill-opacity="0.82"/>
  <circle cx="764.0" cy="179.0" r="7.0" fill="#103429" fill-opacity="0.70"/>
  <circle cx="450.0" cy="181.0" r="7.8" fill="#0b2a23" fill-opacity="0.70"/>
  <circle cx="793.0" cy="593.0" r="4.8" fill="#103429" fill-opacity="0.63"/>
  <circle cx="830.0" cy="549.0" r="7.1" fill="#103429" fill-opacity="0.86"/>
  <circle cx="426.0" cy="567.0" r="7.2" fill="#103429" fill-opacity="0.60"/>
  <circle cx="948.0" cy="100.0" r="4.6" fill="#21493a" fill-opacity="0.71"/>
  <circle cx="891.0" cy="154.0" r="7.9" fill="#103429" fill-opacity="0.70"/>
  <circle cx="920.0" cy="522.0" r="4.6" fill="#103429" fill-opacity="0.71"/>
  <circle cx="481.0" cy="551.0" r="6.6" fill="#21493a" fill-opacity="0.60"/>
  <circle cx="633.0" cy="406.0" r="4.9" fill="#103429" fill-opacity="0.63"/>
  <circle cx="230.0" cy="325.0" r="7.0" fill="#103429" fill-opacity="0.72"/>
  <circle cx="127.0" cy="268.0" r="7.0" fill="#21493a" fill-opacity="0.59"/>
  <circle cx="528.0" cy="534.0" r="5.5" fill="#21493a" fill-opacity="0.78"/>
  <circle cx="64.0" cy="63.0" r="5.0" fill="#21493a" fill-opacity="0.74"/>
  <circle cx="1002.0" cy="332.0" r="8.0" fill="#103429" fill-opacity="0.60"/>
  <circle cx="810.0" cy="149.0" r="4.9" fill="#0b2a23" fill-opacity="0.84"/>
  <circle cx="372.0" cy="475.0" r="5.4" fill="#0b2a23" fill-opacity="0.82"/>
  <circle cx="113.0" cy="444.0" r="5.7" fill="#21493a" fill-opacity="0.58"/>
  <circle cx="105.0" cy="99.0" r="6.9" fill="#103429" fill-opacity="0.55"/>
  <circle cx="978.0" cy="114.0" r="6.5" fill="#103429" fill-opacity="0.65"/>
  <circle cx="690.0" cy="282.0" r="6.7" fill="#21493a" fill-opacity="0.75"/>
  <circle cx="1000.0" cy="302.0" r="4.6" fill="#0b2a23" fill-opacity="0.75"/>
  <circle cx="712.0" cy="246.0" r="7.4" fill="#0b2a23" fill-opacity="0.65"/>
  <circle cx="451.0" cy="613.0" r="4.6" fill="#0b2a23" fill-opacity="0.60"/>
  <circle cx="1018.0" cy="438.0" r="6.1" fill="#0b2a23" fill-opacity="0.86"/>
  <circle cx="937.0" cy="512.0" r="6.7" fill="#0b2a23" fill-opacity="0.67"/>
  <circle cx="178.0" cy="444.0" r="6.0" fill="#103429" fill-opacity="0.90"/>
  <circle cx="912.0" cy="58.0" r="6.2" fill="#0b2a23" fill-opacity="0.75"/>
  <circle cx="945.0" cy="90.0" r="7.4" fill="#0b2a23" fill-opacity="0.79"/>
  <circle cx="407.0" cy="366.0" r="6.2" fill="#0b2a23" fill-opacity="0.74"/>
  <circle cx="587.0" cy="298.0" r="6.7" fill="#0b2a23" fill-opacity="0.64"/>
  <circle cx="861.0" cy="203.0" r="5.8" fill="#21493a" fill-opacity="0.57"/>
  <circle cx="1094.0" cy="140.0" r="5.0" fill="#21493a" fill-opacity="0.72"/>
  <circle cx="470.0" cy="479.0" r="6.5" fill="#103429" fill-opacity="0.79"/>
  <circle cx="66.0" cy="259.0" r="5.0" fill="#0b2a23" fill-opacity="0.77"/>
  <circle cx="150.0" cy="366.0" r="6.9" fill="#21493a" fill-opacity="0.75"/>
  <circle cx="967.0" cy="133.0" r="7.1" fill="#0b2a23" fill-opacity="0.64"/>
  <circle cx="617.0" cy="458.0" r="7.3" fill="#0b2a23" fill-opacity="0.89"/>
  <circle cx="545.0" cy="330.0" r="4.8" fill="#21493a" fill-opacity="0.83"/>
  <circle cx="156.0" cy="563.0" r="6.3" fill="#21493a" fill-opacity="0.80"/>
  <circle cx="179.0" cy="310.0" r="7.5" fill="#21493a" fill-opacity="0.85"/>
  <circle cx="871.0" cy="221.0" r="7.6" fill="#103429" fill-opacity="0.88"/>
  <circle cx="1022.0" cy="558.0" r="7.0" fill="#21493a" fill-opacity="0.68"/>
  <circle cx="792.0" cy="513.0" r="6.7" fill="#103429" fill-opacity="0.66"/>
  <circle cx="1149.0" cy="360.0" r="5.2" fill="#21493a" fill-opacity="0.83"/>
  <circle cx="165.0" cy="554.0" r="4.7" fill="#21493a" fill-opacity="0.86"/>
  <circle cx="170.0" cy="338.0" r="6.7" fill="#21493a" fill-opacity="0.69"/>
  <circle cx="1162.0" cy="242.0" r="5.5" fill="#21493a" fill-opacity="0.70"/>
  <circle cx="137.0" cy="595.0" r="7.4" fill="#21493a" fill-opacity="0.90"/>
  <circle cx="586.0" cy="196.0" r="5.3" fill="#0b2a23" fill-opacity="0.88"/>
  <circle cx="658.0" cy="379.0" r="4.9" fill="#103429" fill-opacity="0.78"/>
  <circle cx="205.0" cy="144.0" r="5.2" fill="#21493a" fill-opacity="0.73"/>
  <circle cx="755.0" cy="489.0" r="5.1" fill="#0b2a23" fill-opacity="0.61"/>
  <circle cx="653.0" cy="88.0" r="5.3" fill="#0b2a23" fill-opacity="0.56"/>
  <circle cx="626.0" cy="172.0" r="7.1" fill="#103429" fill-opacity="0.71"/>
  <circle cx="824.0" cy="56.0" r="6.2" fill="#21493a" fill-opacity="0.58"/>
  <circle cx="704.0" cy="139.0" r="7.0" fill="#103429" fill-opacity="0.76"/>
  <circle cx="68.0" cy="260.0" r="5.9" fill="#21493a" fill-opacity="0.61"/>
  <circle cx="215.0" cy="612.0" r="5.0" fill="#103429" fill-opacity="0.79"/>
  <circle cx="1016.0" cy="205.0" r="7.6" fill="#103429" fill-opacity="0.58"/>
  <circle cx="237.0" cy="65.0" r="5.5" fill="#21493a" fill-opacity="0.89"/>
  <circle cx="293.0" cy="94.0" r="6.3" fill="#103429" fill-opacity="0.59"/>
  <circle cx="752.0" cy="74.0" r="7.0" fill="#0b2a23" fill-opacity="0.57"/>
  <path d="M 120 506 C 495 435, 720 406, 876 222" fill="none" stroke="#1d5a36" stroke-width="126" stroke-linecap="round"/>
  <path d="M 122 505 C 499 433, 717 407, 874 224" fill="none" stroke="#3d7f3d" stroke-width="91" stroke-linecap="round" fill-opacity="0.96"/>
  <path d="M 123 504 C 499 434, 716 408, 873 225" fill="none" stroke="#76ae4a" stroke-width="73" stroke-linecap="round" fill-opacity="0.92"/>
  <ellipse cx="218.3" cy="487.6" rx="35.4" ry="16.4" fill="#86c254" transform="rotate(-38.2 218.3 487.6)" fill-opacity="0.95"/>
  <ellipse cx="402.6" cy="451.7" rx="47.3" ry="27.4" fill="#7bb84a" transform="rotate(5.4 402.6 451.7)" fill-opacity="0.95"/>
  <ellipse cx="542.6" cy="417.7" rx="40.9" ry="26.8" fill="#86c254" transform="rotate(0.7 542.6 417.7)" fill-opacity="0.95"/>
  <ellipse cx="690.1" cy="363.5" rx="52.2" ry="15.1" fill="#86c254" transform="rotate(8.8 690.1 363.5)" fill-opacity="0.95"/>
  <ellipse cx="792.5" cy="301.5" rx="66.1" ry="16.0" fill="#7bb84a" transform="rotate(-28.5 792.5 301.5)" fill-opacity="0.95"/>
  <path d="M 392.3 423.9 C 401.3 405.9, 432.8 408.2, 441.8 423.9 C 447.4 439.7, 428.3 448.7, 410.3 445.3 C 394.6 441.9, 385.6 432.9, 392.3 423.9 Z" fill="#f8f8f5" stroke="#e5e7eb" stroke-width="1.5"/>
  <path d="M 626.2 335.6 C 634.8 318.4, 665.0 320.5, 673.6 335.6 C 679.0 350.8, 660.7 359.4, 643.4 356.2 C 628.3 352.9, 619.7 344.3, 626.2 335.6 Z" fill="#f8f8f5" stroke="#e5e7eb" stroke-width="1.5"/>
  <path d="M 762.2 328.0 C 770.6 311.3, 799.8 313.4, 808.1 328.0 C 813.3 342.6, 795.6 350.9, 778.9 347.8 C 764.3 344.7, 755.9 336.3, 762.2 328.0 Z" fill="#f8f8f5" stroke="#e5e7eb" stroke-width="1.5"/>
  <path d="M 138.0 490.0 C 495.0 425.4, 720.0 401.2, 864.0 218.8" fill="none" stroke="#d9d22b" stroke-width="3" marker-end="url(#arrow)" stroke-linecap="round"/>
  <path d="M 146.0 506.0 C 505.0 435.0, 712.0 406.0, 858.0 222.0" fill="none" stroke="#d9d22b" stroke-width="3" marker-end="url(#arrow)" stroke-linecap="round"/>
  <circle cx="113.6" cy="524.1" r="6.3" fill="#103529" fill-opacity="0.89"/>
  <circle cx="152.0" cy="469.9" r="5.6" fill="#1e4638" fill-opacity="0.86"/>
  <circle cx="164.1" cy="519.5" r="5.3" fill="#08261f" fill-opacity="0.82"/>
  <circle cx="191.2" cy="460.6" r="8.0" fill="#08261f" fill-opacity="0.91"/>
  <circle cx="224.9" cy="459.0" r="7.3" fill="#08261f" fill-opacity="0.82"/>
  <circle cx="254.7" cy="540.1" r="8.1" fill="#1e4638" fill-opacity="0.83"/>
  <circle cx="287.6" cy="527.6" r="8.7" fill="#103529" fill-opacity="0.82"/>
  <circle cx="302.5" cy="430.0" r="6.2" fill="#103529" fill-opacity="0.89"/>
  <circle cx="332.2" cy="432.3" r="5.9" fill="#08261f" fill-opacity="0.89"/>
  <circle cx="337.5" cy="419.1" r="7.7" fill="#1e4638" fill-opacity="0.87"/>
  <circle cx="367.1" cy="457.3" r="8.3" fill="#08261f" fill-opacity="0.83"/>
  <circle cx="406.9" cy="409.4" r="5.8" fill="#103529" fill-opacity="0.77"/>
  <circle cx="411.4" cy="425.3" r="5.0" fill="#103529" fill-opacity="0.91"/>
  <circle cx="421.4" cy="404.3" r="7.6" fill="#1e4638" fill-opacity="0.91"/>
  <circle cx="468.8" cy="467.0" r="6.9" fill="#103529" fill-opacity="0.87"/>
  <circle cx="476.6" cy="406.2" r="6.3" fill="#103529" fill-opacity="0.78"/>
  <circle cx="501.6" cy="364.5" r="6.5" fill="#1e4638" fill-opacity="0.79"/>
  <circle cx="524.4" cy="418.4" r="5.5" fill="#08261f" fill-opacity="0.80"/>
  <circle cx="521.4" cy="473.0" r="5.2" fill="#08261f" fill-opacity="0.90"/>
  <circle cx="552.1" cy="455.1" r="8.8" fill="#1e4638" fill-opacity="0.86"/>
  <circle cx="559.3" cy="473.8" r="5.4" fill="#1e4638" fill-opacity="0.95"/>
  <circle cx="593.3" cy="352.5" r="8.3" fill="#1e4638" fill-opacity="0.92"/>
  <circle cx="611.8" cy="374.4" r="5.1" fill="#103529" fill-opacity="0.87"/>
  <circle cx="632.9" cy="444.0" r="8.8" fill="#08261f" fill-opacity="0.94"/>
  <circle cx="637.0" cy="420.9" r="5.4" fill="#08261f" fill-opacity="0.89"/>
  <circle cx="669.6" cy="394.3" r="5.7" fill="#08261f" fill-opacity="0.95"/>
  <circle cx="661.9" cy="398.0" r="8.9" fill="#1e4638" fill-opacity="0.77"/>
  <circle cx="673.9" cy="301.6" r="6.6" fill="#1e4638" fill-opacity="0.76"/>
  <circle cx="715.1" cy="389.4" r="7.6" fill="#103529" fill-opacity="0.90"/>
  <circle cx="714.8" cy="403.9" r="8.9" fill="#103529" fill-opacity="0.77"/>
  <circle cx="734.4" cy="358.0" r="5.6" fill="#103529" fill-opacity="0.79"/>
  <circle cx="742.9" cy="350.7" r="7.4" fill="#08261f" fill-opacity="0.94"/>
  <circle cx="771.5" cy="326.4" r="6.6" fill="#08261f" fill-opacity="0.88"/>
  <circle cx="764.2" cy="276.4" r="5.3" fill="#08261f" fill-opacity="0.78"/>
  <circle cx="790.2" cy="338.1" r="5.4" fill="#103529" fill-opacity="0.81"/>
  <circle cx="790.1" cy="303.3" r="8.5" fill="#08261f" fill-opacity="0.92"/>
  <circle cx="827.8" cy="336.1" r="5.9" fill="#1e4638" fill-opacity="0.87"/>
  <circle cx="837.1" cy="291.7" r="8.9" fill="#103529" fill-opacity="0.77"/>
  <circle cx="825.3" cy="260.0" r="5.7" fill="#08261f" fill-opacity="0.93"/>
  <circle cx="867.4" cy="306.0" r="7.8" fill="#103529" fill-opacity="0.87"/>
  <circle cx="851.7" cy="245.6" r="7.0" fill="#08261f" fill-opacity="0.82"/>
  <circle cx="889.3" cy="234.6" r="8.7" fill="#103529" fill-opacity="0.86"/>
  <circle cx="594.7" cy="401.6" r="31" fill="#e2d71c" stroke="#c5b90f" stroke-width="2"/>
  <text x="594.7" y="413.6" text-anchor="middle" fill="#0f172a" font-family="Georgia, serif" font-size="58" font-weight="700">15</text>
</svg>
