<svg xmlns="http://www.w3.org/2000/svg" viewBox="0 0 1200 675" role="img" aria-label="Vale da Pinta Hole 16">
  <defs>
    <marker id="arrow" markerWidth="8" markerHeight="8" refX="7" refY="4" orient="auto">
      <path d="M0,0 L8,4 L0,8 z" fill="#d9d22b" />
    </marker>
  </defs>
  <rect width="1200" height="675" fill="#eef3fb"/>
  <circle cx="333.0" cy="591.0" r="5.4" fill="#21493a" fill-opacity="0.68"/>
  <circle cx="128.0" cy="120.0" r="7.1" fill="#103429" fill-opacity="0.74"/>
  <circle cx="1153.0" cy="611.0" r="7.1" fill="#21493a" fill-opacity="0.84"/>
  <circle cx="381.0" cy="567.0" r="7.6" fill="#21493a" fill-opacity="0.61"/>
  <circle cx="595.0" cy="392.0" r="6.9" fill="#103429" fill-opacity="0.81"/>
  <circle cx="779.0" cy="461.0" r="6.0" fill="#103429" fill-opacity="0.88"/>
  <circle cx="793.0" cy="53.0" r="6.5" fill="#103429" fill-opacity="0.60"/>
  <circle cx="461.0" cy="522.0" r="5.0" fill="#103429" fill-opacity="0.57"/>
  <circle cx="1052.0" cy="303.0" r="5.3" fill="#103429" fill-opacity="0.81"/>
  <circle cx="670.0" cy="128.0" r="7.3" fill="#21493a" fill-opacity="0.80"/>
  <circle cx="249.0" cy="154.0" r="4.7" fill="#21493a" fill-opacity="0.75"/>
  <circle cx="307.0" cy="559.0" r="7.3" fill="#0b2a23" fill-opacity="0.72"/>
  <circle cx="896.0" cy="195.0" r="5.9" fill="#0b2a23" fill-opacity="0.80"/>
  <circle cx="578.0" cy="552.0" r="4.9" fill="#21493a" fill-opacity="0.74"/>
  <circle cx="70.0" cy="397.0" r="7.0" fill="#103429" fill-opacity="0.70"/>
  <circle cx="896.0" cy="464.0" r="5.8" fill="#0b2a23" fill-opacity="0.74"/>
  <circle cx="683.0" cy="280.0" r="5.6" fill="#21493a" fill-opacity="0.77"/>
  <circle cx="975.0" cy="349.0" r="5.5" fill="#103429" fill-opacity="0.88"/>
  <circle cx="121.0" cy="168.0" r="5.1" fill="#0b2a23" fill-opacity="0.82"/>
  <circle cx="908.0" cy="262.0" r="6.3" fill="#21493a" fill-opacity="0.66"/>
  <circle cx="209.0" cy="160.0" r="4.9" fill="#21493a" fill-opacity="0.90"/>
  <circle cx="384.0" cy="128.0" r="4.8" fill="#0b2a23" fill-opacity="0.58"/>
  <circle cx="913.0" cy="366.0" r="7.8" fill="#103429" fill-opacity="0.84"/>
  <circle cx="161.0" cy="242.0" r="7.5" fill="#103429" fill-opacity="0.56"/>
  <circle cx="646.0" cy="597.0" r="5.9" fill="#0b2a23" fill-opacity="0.86"/>
  <circle cx="1034.0" cy="616.0" r="6.3" fill="#103429" fill-opacity="0.64"/>
  <circle cx="318.0" cy="142.0" r="5.1" fill="#0b2a23" fill-opacity="0.75"/>
  <circle cx="614.0" cy="132.0" r="5.7" fill="#21493a" fill-opacity="0.83"/>
  <circle cx="567.0" cy="210.0" r="7.5" fill="#0b2a23" fill-opacity="0.61"/>
  <circle cx="1148.0" cy="483.0" r="7.4" fill="#21493a" fill-opacity="0.82"/>
  <circle cx="218.0" cy="88.0" r="4.6" fill="#21493a" fill-opacity="0.79"/>
  <circle cx="964.0" cy="213.0" r="5.0" fill="#0b2a23" fill-opacity="0.63"/>
  <circle cx="259.0" cy="289.0" r="7.6" fill="#0b2a23" fill-opacity="0.79"/>
  <circle cx="303.0" cy="550.0" r="4.9" fill="#21493a" fill-opacity="0.75"/>
  <circle cx="54.0" cy="603.0" r="7.9" fill="#21493a" fill-opacity="0.86"/>
  <circle cx="336.0" cy="415.0" r="5.1" fill="#21493a" fill-opacity="0.67"/>
  <circle cx="526.0" cy="140.0" r="5.2" fill="#0b2a23" fill-opacity="0.70"/>
  <circle cx="123.0" cy="117.0" r="6.0" fill="#21493a" fill-opacity="0.83"/>
  <circle cx="731.0" cy="571.0" r="7.7" fill="#21493a" fill-opacity="0.80"/>
  <circle cx="795.0" cy="162.0" r="7.9" fill="#21493a" fill-opacity="0.63"/>
  <circle cx="975.0" cy="104.0" r="6.5" fill="#21493a" fill-opacity="0.89"/>
  <circle cx="347.0" cy="232.0" r="7.1" fill="#21493a" fill-opacity="0.76"/>
  <circle cx="1034.0" cy="404.0" r="5.8" fill="#21493a" fill-opacity="0.82"/>
  <circle cx="1053.0" cy="338.0" r="7.7" fill="#0b2a23" fill-opacity="0.75"/>
  <circle cx="945.0" cy="440.0" r="7.9" fill="#0b2a23" fill-opacity="0.73"/>
  <circle cx="1042.0" cy="104.0" r="5.0" fill="#103429" fill-opacity="0.88"/>
  <circle cx="240.0" cy="453.0" r="5.4" fill="#21493a" fill-opacity="0.89"/>
  <circle cx="674.0" cy="571.0" r="5.5" fill="#103429" fill-opacity="0.68"/>
  <circle cx="343.0" cy="492.0" r="7.5" fill="#21493a" fill-opacity="0.76"/>
  <circle cx="608.0" cy="636.0" r="4.8" fill="#21493a" fill-opacity="0.75"/>
  <circle cx="1102.0" cy="151.0" r="7.7" fill="#103429" fill-opacity="0.70"/>
  <circle cx="935.0" cy="465.0" r="4.9" fill="#103429" fill-opacity="0.88"/>
  <circle cx="386.0" cy="284.0" r="6.2" fill="#21493a" fill-opacity="0.79"/>
  <circle cx="301.0" cy="411.0" r="4.9" fill="#21493a" fill-opacity="0.65"/>
  <circle cx="1139.0" cy="259.0" r="5.7" fill="#0b2a23" fill-opacity="0.74"/>
  <circle cx="540.0" cy="461.0" r="7.4" fill="#0b2a23" fill-opacity="0.69"/>
  <circle cx="1047.0" cy="514.0" r="5.3" fill="#103429" fill-opacity="0.77"/>
  <circle cx="675.0" cy="363.0" r="6.4" fill="#21493a" fill-opacity="0.73"/>
  <circle cx="641.0" cy="380.0" r="6.1" fill="#21493a" fill-opacity="0.88"/>
  <circle cx="780.0" cy="272.0" r="5.3" fill="#0b2a23" fill-opacity="0.69"/>
  <circle cx="128.0" cy="442.0" r="6.2" fill="#21493a" fill-opacity="0.72"/>
  <circle cx="939.0" cy="175.0" r="6.3" fill="#21493a" fill-opacity="0.58"/>
  <circle cx="896.0" cy="627.0" r="6.8" fill="#21493a" fill-opacity="0.71"/>
  <circle cx="663.0" cy="583.0" r="7.6" fill="#0b2a23" fill-opacity="0.90"/>
  <circle cx="986.0" cy="117.0" r="7.4" fill="#21493a" fill-opacity="0.80"/>
  <circle cx="574.0" cy="375.0" r="6.9" fill="#0b2a23" fill-opacity="0.62"/>
  <circle cx="1120.0" cy="139.0" r="6.8" fill="#21493a" fill-opacity="0.77"/>
  <circle cx="1147.0" cy="559.0" r="5.2" fill="#103429" fill-opacity="0.70"/>
  <circle cx="82.0" cy="408.0" r="7.0" fill="#21493a" fill-opacity="0.64"/>
  <circle cx="782.0" cy="427.0" r="7.8" fill="#0b2a23" fill-opacity="0.74"/>
  <circle cx="388.0" cy="339.0" r="7.8" fill="#103429" fill-opacity="0.58"/>
  <circle cx="540.0" cy="613.0" r="5.6" fill="#0b2a23" fill-opacity="0.86"/>
  <circle cx="1107.0" cy="543.0" r="4.9" fill="#103429" fill-opacity="0.56"/>
  <circle cx="1024.0" cy="166.0" r="7.0" fill="#0b2a23" fill-opacity="0.63"/>
  <circle cx="352.0" cy="502.0" r="7.9" fill="#0b2a23" fill-opacity="0.62"/>
  <circle cx="246.0" cy="167.0" r="4.7" fill="#0b2a23" fill-opacity="0.78"/>
  <circle cx="218.0" cy="359.0" r="7.6" fill="#21493a" fill-opacity="0.72"/>
  <circle cx="779.0" cy="292.0" r="7.5" fill="#21493a" fill-opacity="0.63"/>
  <circle cx="868.0" cy="253.0" r="7.2" fill="#103429" fill-opacity="0.82"/>
  <circle cx="670.0" cy="602.0" r="5.5" fill="#103429" fill-opacity="0.63"/>
  <circle cx="457.0" cy="490.0" r="4.8" fill="#103429" fill-opacity="0.84"/>
  <circle cx="628.0" cy="360.0" r="7.8" fill="#21493a" fill-opacity="0.60"/>
  <circle cx="182.0" cy="512.0" r="4.5" fill="#103429" fill-opacity="0.77"/>
  <circle cx="1007.0" cy="299.0" r="5.8" fill="#21493a" fill-opacity="0.66"/>
  <circle cx="325.0" cy="400.0" r="4.5" fill="#103429" fill-opacity="0.59"/>
  <circle cx="457.0" cy="297.0" r="5.6" fill="#0b2a23" fill-opacity="0.71"/>
  <circle cx="292.0" cy="78.0" r="6.3" fill="#0b2a23" fill-opacity="0.77"/>
  <circle cx="313.0" cy="140.0" r="6.2" fill="#21493a" fill-opacity="0.73"/>
  <circle cx="256.0" cy="194.0" r="7.4" fill="#103429" fill-opacity="0.86"/>
  <circle cx="515.0" cy="392.0" r="5.4" fill="#0b2a23" fill-opacity="0.57"/>
  <path d="M 148 560 C 540 400, 755 210, 1020 256" fill="none" stroke="#1d5a36" stroke-width="126" stroke-linecap="round"/>
  <path d="M 150 559 C 544 398, 752 211, 1018 258" fill="none" stroke="#3d7f3d" stroke-width="91" stroke-linecap="round" fill-opacity="0.96"/>
  <path d="M 151 558 C 544 399, 751 212, 1017 259" fill="none" stroke="#76ae4a" stroke-width="73" stroke-linecap="round" fill-opacity="0.92"/>
  <ellipse cx="280.1" cy="502.4" rx="68.5" ry="24.1" fill="#86c254" transform="rotate(-29.7 280.1 502.4)" fill-opacity="0.95"/>
  <ellipse cx="451.7" cy="418.8" rx="57.9" ry="22.1" fill="#86c254" transform="rotate(-17.8 451.7 418.8)" fill-opacity="0.95"/>
  <ellipse cx="601.3" cy="344.8" rx="57.6" ry="18.2" fill="#7bb84a" transform="rotate(-14.7 601.3 344.8)" fill-opacity="0.95"/>
  <ellipse cx="744.4" cy="285.1" rx="57.2" ry="14.1" fill="#86c254" transform="rotate(-30.6 744.4 285.1)" fill-opacity="0.95"/>
  <ellipse cx="911.9" cy="249.8" rx="56.6" ry="25.2" fill="#86c254" transform="rotate(-27.9 911.9 249.8)" fill-opacity="0.95"/>
  <path d="M 363.8 456.7 C 372.7 439.0, 403.7 441.2, 412.5 456.7 C 418.0 472.2, 399.2 481.1, 381.5 477.7 C 366.0 474.4, 357.2 465.6, 363.8 456.7 Z" fill="#f8f8f5" stroke="#e5e7eb" stroke-width="1.5"/>
  <path d="M 637.9 333.6 C 645.7 317.8, 673.4 319.8, 681.3 333.6 C 686.2 347.4, 669.4 355.3, 653.6 352.4 C 639.8 349.4, 631.9 341.5, 637.9 333.6 Z" fill="#f8f8f5" stroke="#e5e7eb" stroke-width="1.5"/>
  <path d="M 884.3 269.1 C 891.8 254.1, 918.0 256.0, 925.5 269.1 C 930.2 282.2, 914.3 289.7, 899.3 286.9 C 886.2 284.1, 878.7 276.6, 884.3 269.1 Z" fill="#f8f8f5" stroke="#e5e7eb" stroke-width="1.5"/>
  <path d="M 166.0 544.0 C 540.0 390.4, 755.0 205.2, 1008.0 252.8" fill="none" stroke="#d9d22b" stroke-width="3" marker-end="url(#arrow)" stroke-linecap="round"/>
  <path d="M 174.0 560.0 C 550.0 400.0, 747.0 210.0, 1002.0 256.0" fill="none" stroke="#d9d22b" stroke-width="3" marker-end="url(#arrow)" stroke-linecap="round"/>
  <circle cx="155.9" cy="603.6" r="5.3" fill="#1e4638" fill-opacity="0.94"/>
  <circle cx="181.3" cy="525.3" r="6.4" fill="#103529" fill-opacity="0.82"/>
  <circle cx="215.1" cy="518.8" r="5.2" fill="#1e4638" fill-opacity="0.76"/>
  <circle cx="226.8" cy="470.4" r="6.1" fill="#1e4638" fill-opacity="0.90"/>
  <circle cx="266.1" cy="563.4" r="7.4" fill="#08261f" fill-opacity="0.76"/>
  <circle cx="297.1" cy="565.5" r="5.9" fill="#103529" fill-opacity="0.92"/>
  <circle cx="324.5" cy="542.7" r="5.3" fill="#1e4638" fill-opacity="0.87"/>
  <circle cx="344.5" cy="445.8" r="5.9" fill="#103529" fill-opacity="0.77"/>
  <circle cx="363.7" cy="486.8" r="8.6" fill="#103529" fill-opacity="0.84"/>
  <circle cx="372.9" cy="510.9" r="8.1" fill="#103529" fill-opacity="0.90"/>
  <circle cx="390.7" cy="444.1" r="5.5" fill="#08261f" fill-opacity="0.83"/>
  <circle cx="428.0" cy="482.6" r="5.0" fill="#103529" fill-opacity="0.88"/>
  <circle cx="439.1" cy="443.8" r="5.2" fill="#08261f" fill-opacity="0.81"/>
  <circle cx="478.8" cy="451.3" r="7.1" fill="#103529" fill-opacity="0.78"/>
  <circle cx="505.6" cy="384.3" r="8.4" fill="#08261f" fill-opacity="0.94"/>
  <circle cx="523.9" cy="363.1" r="8.0" fill="#08261f" fill-opacity="0.84"/>
  <circle cx="548.3" cy="350.5" r="7.8" fill="#103529" fill-opacity="0.90"/>
  <circle cx="550.5" cy="314.4" r="8.6" fill="#103529" fill-opacity="0.92"/>
  <circle cx="577.8" cy="331.6" r="7.6" fill="#103529" fill-opacity="0.77"/>
  <circle cx="610.8" cy="389.5" r="7.0" fill="#103529" fill-opacity="0.77"/>
  <circle cx="609.2" cy="313.6" r="7.2" fill="#1e4638" fill-opacity="0.79"/>
  <circle cx="628.5" cy="366.4" r="6.4" fill="#103529" fill-opacity="0.92"/>
  <circle cx="661.1" cy="277.9" r="5.8" fill="#103529" fill-opacity="0.88"/>
  <circle cx="692.9" cy="313.8" r="5.5" fill="#08261f" fill-opacity="0.88"/>
  <circle cx="693.7" cy="254.5" r="8.5" fill="#103529" fill-opacity="0.82"/>
  <circle cx="734.4" cy="323.9" r="5.5" fill="#103529" fill-opacity="0.80"/>
  <circle cx="750.1" cy="312.6" r="8.0" fill="#103529" fill-opacity="0.84"/>
  <circle cx="772.5" cy="317.2" r="6.8" fill="#103529" fill-opacity="0.79"/>
  <circle cx="775.9" cy="278.2" r="7.9" fill="#08261f" fill-opacity="0.93"/>
  <circle cx="786.6" cy="242.4" r="6.9" fill="#08261f" fill-opacity="0.89"/>
  <circle cx="824.5" cy="219.5" r="8.4" fill="#103529" fill-opacity="0.81"/>
  <circle cx="824.6" cy="252.0" r="7.6" fill="#103529" fill-opacity="0.85"/>
  <circle cx="835.1" cy="278.6" r="6.3" fill="#1e4638" fill-opacity="0.75"/>
  <circle cx="863.6" cy="308.0" r="7.4" fill="#1e4638" fill-opacity="0.91"/>
  <circle cx="875.5" cy="187.3" r="8.7" fill="#103529" fill-opacity="0.81"/>
  <circle cx="906.0" cy="213.7" r="8.3" fill="#08261f" fill-opacity="0.87"/>
  <circle cx="929.1" cy="247.5" r="5.7" fill="#1e4638" fill-opacity="0.84"/>
  <circle cx="931.6" cy="257.9" r="8.0" fill="#08261f" fill-opacity="0.77"/>
  <circle cx="970.2" cy="308.8" r="8.9" fill="#103529" fill-opacity="0.76"/>
  <circle cx="965.7" cy="247.0" r="6.6" fill="#08261f" fill-opacity="0.76"/>
  <circle cx="1014.1" cy="311.2" r="6.2" fill="#1e4638" fill-opacity="0.81"/>
  <circle cx="1004.0" cy="243.0" r="6.9" fill="#08261f" fill-opacity="0.87"/>
  <circle cx="647.9" cy="323.5" r="31" fill="#e2d71c" stroke="#c5b90f" stroke-width="2"/>
  <text x="647.9" y="335.5" text-anchor="middle" fill="#0f172a" font-family="Georgia, serif" font-size="58" font-weight="700">16</text>
</svg>
