<svg xmlns="http://www.w3.org/2000/svg" viewBox="0 0 1200 675" role="img" aria-label="Vale da Pinta Hole 18">
  <defs>
    <marker id="arrow" markerWidth="8" markerHeight="8" refX="7" refY="4" orient="auto">
      <path d="M0,0 L8,4 L0,8 z" fill="#d9d22b" />
    </marker>
  </defs>
  <rect width="1200" height="675" fill="#eef3fb"/>
  <circle cx="284.0" cy="243.0" r="5.5" fill="#0b2a23" fill-opacity="0.86"/>
  <circle cx="311.0" cy="74.0" r="5.0" fill="#103429" fill-opacity="0.58"/>
  <circle cx="583.0" cy="605.0" r="7.2" fill="#0b2a23" fill-opacity="0.86"/>
  <circle cx="961.0" cy="448.0" r="5.7" fill="#0b2a23" fill-opacity="0.61"/>
  <circle cx="412.0" cy="77.0" r="4.5" fill="#0b2a23" fill-opacity="0.58"/>
  <circle cx="79.0" cy="432.0" r="5.1" fill="#21493a" fill-opacity="0.72"/>
  <circle cx="263.0" cy="69.0" r="5.8" fill="#0b2a23" fill-opacity="0.58"/>
  <circle cx="916.0" cy="86.0" r="7.6" fill="#0b2a23" fill-opacity="0.71"/>
  <circle cx="115.0" cy="72.0" r="7.0" fill="#21493a" fill-opacity="0.69"/>
  <circle cx="538.0" cy="142.0" r="7.1" fill="#103429" fill-opacity="0.64"/>
  <circle cx="858.0" cy="332.0" r="7.3" fill="#103429" fill-opacity="0.64"/>
  <circle cx="1129.0" cy="324.0" r="7.1" fill="#0b2a23" fill-opacity="0.85"/>
  <circle cx="217.0" cy="176.0" r="5.3" fill="#0b2a23" fill-opacity="0.87"/>
  <circle cx="793.0" cy="510.0" r="6.5" fill="#0b2a23" fill-opacity="0.62"/>
  <circle cx="1076.0" cy="200.0" r="7.3" fill="#0b2a23" fill-opacity="0.74"/>
  <circle cx="950.0" cy="145.0" r="5.8" fill="#21493a" fill-opacity="0.79"/>
  <circle cx="960.0" cy="535.0" r="5.6" fill="#103429" fill-opacity="0.76"/>
  <circle cx="751.0" cy="144.0" r="4.7" fill="#21493a" fill-opacity="0.74"/>
  <circle cx="405.0" cy="547.0" r="7.5" fill="#103429" fill-opacity="0.86"/>
  <circle cx="88.0" cy="459.0" r="4.7" fill="#0b2a23" fill-opacity="0.73"/>
  <circle cx="555.0" cy="518.0" r="5.4" fill="#21493a" fill-opacity="0.81"/>
  <circle cx="206.0" cy="364.0" r="5.7" fill="#0b2a23" fill-opacity="0.72"/>
  <circle cx="996.0" cy="147.0" r="5.6" fill="#103429" fill-opacity="0.74"/>
  <circle cx="265.0" cy="202.0" r="7.9" fill="#0b2a23" fill-opacity="0.59"/>
  <circle cx="929.0" cy="445.0" r="6.2" fill="#21493a" fill-opacity="0.88"/>
  <circle cx="994.0" cy="507.0" r="7.1" fill="#103429" fill-opacity="0.85"/>
  <circle cx="519.0" cy="497.0" r="6.1" fill="#0b2a23" fill-opacity="0.57"/>
  <circle cx="866.0" cy="368.0" r="6.4" fill="#103429" fill-opacity="0.62"/>
  <circle cx="924.0" cy="229.0" r="5.4" fill="#103429" fill-opacity="0.87"/>
  <circle cx="649.0" cy="582.0" r="5.5" fill="#103429" fill-opacity="0.89"/>
  <circle cx="991.0" cy="281.0" r="6.1" fill="#21493a" fill-opacity="0.80"/>
  <circle cx="1077.0" cy="401.0" r="7.1" fill="#103429" fill-opacity="0.70"/>
  <circle cx="807.0" cy="389.0" r="6.8" fill="#21493a" fill-opacity="0.65"/>
  <circle cx="1142.0" cy="251.0" r="7.8" fill="#21493a" fill-opacity="0.62"/>
  <circle cx="1078.0" cy="131.0" r="7.9" fill="#21493a" fill-opacity="0.69"/>
  <circle cx="853.0" cy="195.0" r="5.8" fill="#21493a" fill-opacity="0.78"/>
  <circle cx="1045.0" cy="632.0" r="5.4" fill="#21493a" fill-opacity="0.82"/>
  <circle cx="870.0" cy="407.0" r="7.9" fill="#21493a" fill-opacity="0.86"/>
  <circle cx="103.0" cy="293.0" r="4.6" fill="#21493a" fill-opacity="0.60"/>
  <circle cx="849.0" cy="106.0" r="5.5" fill="#21493a" fill-opacity="0.80"/>
  <circle cx="255.0" cy="275.0" r="6.1" fill="#103429" fill-opacity="0.58"/>
  <circle cx="736.0" cy="331.0" r="7.1" fill="#103429" fill-opacity="0.82"/>
  <circle cx="862.0" cy="294.0" r="6.4" fill="#103429" fill-opacity="0.88"/>
  <circle cx="469.0" cy="504.0" r="5.7" fill="#0b2a23" fill-opacity="0.71"/>
  <circle cx="1094.0" cy="348.0" r="4.6" fill="#0b2a23" fill-opacity="0.60"/>
  <circle cx="285.0" cy="156.0" r="7.5" fill="#21493a" fill-opacity="0.58"/>
  <circle cx="1055.0" cy="156.0" r="7.9" fill="#0b2a23" fill-opacity="0.88"/>
  <circle cx="128.0" cy="166.0" r="4.8" fill="#103429" fill-opacity="0.67"/>
  <circle cx="87.0" cy="243.0" r="7.9" fill="#0b2a23" fill-opacity="0.63"/>
  <circle cx="376.0" cy="331.0" r="6.8" fill="#21493a" fill-opacity="0.59"/>
  <circle cx="881.0" cy="612.0" r="7.6" fill="#0b2a23" fill-opacity="0.74"/>
  <circle cx="181.0" cy="211.0" r="6.0" fill="#0b2a23" fill-opacity="0.74"/>
  <circle cx="1127.0" cy="508.0" r="7.6" fill="#103429" fill-opacity="0.78"/>
  <circle cx="1108.0" cy="212.0" r="6.9" fill="#21493a" fill-opacity="0.79"/>
  <circle cx="288.0" cy="297.0" r="6.4" fill="#103429" fill-opacity="0.59"/>
  <circle cx="1000.0" cy="328.0" r="5.7" fill="#21493a" fill-opacity="0.80"/>
  <circle cx="82.0" cy="176.0" r="5.3" fill="#103429" fill-opacity="0.78"/>
  <circle cx="641.0" cy="640.0" r="5.6" fill="#21493a" fill-opacity="0.66"/>
  <circle cx="905.0" cy="317.0" r="6.7" fill="#21493a" fill-opacity="0.59"/>
  <circle cx="747.0" cy="499.0" r="7.9" fill="#103429" fill-opacity="0.80"/>
  <circle cx="431.0" cy="371.0" r="5.3" fill="#103429" fill-opacity="0.88"/>
  <circle cx="872.0" cy="330.0" r="7.8" fill="#0b2a23" fill-opacity="0.57"/>
  <circle cx="1097.0" cy="436.0" r="7.7" fill="#103429" fill-opacity="0.70"/>
  <circle cx="1138.0" cy="138.0" r="6.6" fill="#103429" fill-opacity="0.60"/>
  <circle cx="259.0" cy="430.0" r="5.7" fill="#103429" fill-opacity="0.79"/>
  <circle cx="861.0" cy="591.0" r="7.0" fill="#103429" fill-opacity="0.72"/>
  <circle cx="1080.0" cy="99.0" r="6.7" fill="#103429" fill-opacity="0.65"/>
  <circle cx="499.0" cy="377.0" r="8.0" fill="#103429" fill-opacity="0.71"/>
  <circle cx="970.0" cy="96.0" r="4.7" fill="#21493a" fill-opacity="0.80"/>
  <circle cx="517.0" cy="120.0" r="4.5" fill="#103429" fill-opacity="0.81"/>
  <circle cx="892.0" cy="57.0" r="6.5" fill="#0b2a23" fill-opacity="0.60"/>
  <circle cx="797.0" cy="172.0" r="6.7" fill="#0b2a23" fill-opacity="0.79"/>
  <circle cx="666.0" cy="340.0" r="6.0" fill="#0b2a23" fill-opacity="0.59"/>
  <circle cx="1119.0" cy="427.0" r="5.3" fill="#21493a" fill-opacity="0.60"/>
  <circle cx="992.0" cy="347.0" r="5.1" fill="#0b2a23" fill-opacity="0.75"/>
  <circle cx="940.0" cy="368.0" r="6.2" fill="#103429" fill-opacity="0.56"/>
  <circle cx="412.0" cy="302.0" r="4.9" fill="#103429" fill-opacity="0.60"/>
  <circle cx="534.0" cy="487.0" r="5.9" fill="#21493a" fill-opacity="0.77"/>
  <circle cx="1037.0" cy="575.0" r="6.7" fill="#0b2a23" fill-opacity="0.56"/>
  <circle cx="556.0" cy="489.0" r="6.5" fill="#103429" fill-opacity="0.89"/>
  <circle cx="532.0" cy="519.0" r="5.7" fill="#21493a" fill-opacity="0.64"/>
  <circle cx="615.0" cy="613.0" r="7.2" fill="#103429" fill-opacity="0.65"/>
  <circle cx="455.0" cy="231.0" r="6.1" fill="#21493a" fill-opacity="0.78"/>
  <circle cx="559.0" cy="390.0" r="7.1" fill="#21493a" fill-opacity="0.78"/>
  <circle cx="453.0" cy="464.0" r="6.6" fill="#103429" fill-opacity="0.82"/>
  <circle cx="1111.0" cy="109.0" r="6.5" fill="#0b2a23" fill-opacity="0.59"/>
  <circle cx="439.0" cy="573.0" r="4.6" fill="#0b2a23" fill-opacity="0.59"/>
  <circle cx="502.0" cy="558.0" r="7.4" fill="#103429" fill-opacity="0.69"/>
  <circle cx="1086.0" cy="582.0" r="7.2" fill="#0b2a23" fill-opacity="0.87"/>
  <circle cx="624.0" cy="538.0" r="6.9" fill="#103429" fill-opacity="0.65"/>
  <path d="M 204 524 C 360 330, 825 266, 924 120" fill="none" stroke="#1d5a36" stroke-width="146" stroke-linecap="round"/>
  <path d="M 206 523 C 364 328, 822 267, 922 122" fill="none" stroke="#3d7f3d" stroke-width="106" stroke-linecap="round" fill-opacity="0.96"/>
  <path d="M 207 522 C 364 329, 821 268, 921 123" fill="none" stroke="#76ae4a" stroke-width="84" stroke-linecap="round" fill-opacity="0.92"/>
  <ellipse cx="284.1" cy="450.8" rx="54.0" ry="23.3" fill="#86c254" transform="rotate(-31.2 284.1 450.8)" fill-opacity="0.95"/>
  <ellipse cx="430.6" cy="368.9" rx="57.6" ry="27.3" fill="#7bb84a" transform="rotate(23.6 430.6 368.9)" fill-opacity="0.95"/>
  <ellipse cx="586.8" cy="303.4" rx="58.3" ry="14.3" fill="#7bb84a" transform="rotate(4.2 586.8 303.4)" fill-opacity="0.95"/>
  <ellipse cx="708.6" cy="254.7" rx="61.8" ry="25.0" fill="#86c254" transform="rotate(4.9 708.6 254.7)" fill-opacity="0.95"/>
  <ellipse cx="865.3" cy="175.3" rx="56.8" ry="16.9" fill="#86c254" transform="rotate(39.4 865.3 175.3)" fill-opacity="0.95"/>
  <path d="M 348.5 435.1 C 355.8 420.6, 381.1 422.4, 388.3 435.1 C 392.9 447.8, 377.5 455.0, 363.0 452.3 C 350.4 449.6, 343.1 442.3, 348.5 435.1 Z" fill="#f8f8f5" stroke="#e5e7eb" stroke-width="1.5"/>
  <path d="M 590.8 285.9 C 598.6 270.3, 625.8 272.3, 633.5 285.9 C 638.4 299.4, 621.9 307.2, 606.4 304.3 C 592.8 301.4, 585.0 293.6, 590.8 285.9 Z" fill="#f8f8f5" stroke="#e5e7eb" stroke-width="1.5"/>
  <path d="M 778.6 214.5 C 787.2 197.2, 817.4 199.4, 826.0 214.5 C 831.4 229.6, 813.1 238.2, 795.8 235.0 C 780.7 231.7, 772.1 223.1, 778.6 214.5 Z" fill="#f8f8f5" stroke="#e5e7eb" stroke-width="1.5"/>
  <path d="M 222.0 508.0 C 360.0 320.4, 825.0 261.2, 912.0 116.8" fill="none" stroke="#d9d22b" stroke-width="3" marker-end="url(#arrow)" stroke-linecap="round"/>
  <path d="M 230.0 524.0 C 370.0 330.0, 817.0 266.0, 906.0 120.0" fill="none" stroke="#d9d22b" stroke-width="3" marker-end="url(#arrow)" stroke-linecap="round"/>
  <path d="M 238.0 540.0 C 380.0 339.6, 809.0 270.8, 900.0 123.2" fill="none" stroke="#d9d22b" stroke-width="3" marker-end="url(#arrow)" stroke-linecap="round"/>
  <circle cx="213.0" cy="561.5" r="6.3" fill="#1e4638" fill-opacity="0.92"/>
  <circle cx="230.5" cy="506.0" r="6.2" fill="#103529" fill-opacity="0.82"/>
  <circle cx="240.1" cy="430.0" r="8.4" fill="#1e4638" fill-opacity="0.82"/>
  <circle cx="228.1" cy="515.5" r="8.9" fill="#08261f" fill-opacity="0.75"/>
  <circle cx="256.7" cy="499.2" r="5.4" fill="#1e4638" fill-opacity="0.87"/>
  <circle cx="269.3" cy="533.8" r="6.5" fill="#08261f" fill-opacity="0.95"/>
  <circle cx="292.0" cy="502.2" r="5.9" fill="#1e4638" fill-opacity="0.76"/>
  <circle cx="303.7" cy="467.1" r="8.9" fill="#1e4638" fill-opacity="0.86"/>
  <circle cx="336.1" cy="470.5" r="8.8" fill="#08261f" fill-opacity="0.88"/>
  <circle cx="343.2" cy="480.4" r="7.9" fill="#1e4638" fill-opacity="0.95"/>
  <circle cx="377.0" cy="451.5" r="8.4" fill="#08261f" fill-opacity="0.81"/>
  <circle cx="394.8" cy="421.1" r="8.2" fill="#103529" fill-opacity="0.85"/>
  <circle cx="397.6" cy="310.8" r="7.1" fill="#08261f" fill-opacity="0.77"/>
  <circle cx="421.5" cy="405.3" r="7.4" fill="#103529" fill-opacity="0.75"/>
  <circle cx="460.8" cy="351.0" r="6.9" fill="#1e4638" fill-opacity="0.78"/>
  <circle cx="468.5" cy="388.1" r="5.2" fill="#1e4638" fill-opacity="0.75"/>
  <circle cx="502.6" cy="367.9" r="5.4" fill="#08261f" fill-opacity="0.81"/>
  <circle cx="510.2" cy="335.7" r="7.0" fill="#08261f" fill-opacity="0.93"/>
  <circle cx="515.3" cy="320.9" r="7.3" fill="#103529" fill-opacity="0.94"/>
  <circle cx="538.8" cy="330.4" r="5.6" fill="#08261f" fill-opacity="0.83"/>
  <circle cx="569.8" cy="346.9" r="6.5" fill="#1e4638" fill-opacity="0.76"/>
  <circle cx="587.6" cy="265.5" r="5.5" fill="#1e4638" fill-opacity="0.95"/>
  <circle cx="631.0" cy="296.1" r="6.7" fill="#08261f" fill-opacity="0.76"/>
  <circle cx="637.1" cy="341.3" r="6.6" fill="#103529" fill-opacity="0.86"/>
  <circle cx="646.1" cy="305.7" r="7.3" fill="#1e4638" fill-opacity="0.92"/>
  <circle cx="697.0" cy="283.6" r="7.6" fill="#1e4638" fill-opacity="0.83"/>
  <circle cx="691.7" cy="192.0" r="8.2" fill="#1e4638" fill-opacity="0.91"/>
  <circle cx="715.7" cy="299.2" r="5.4" fill="#103529" fill-opacity="0.84"/>
  <circle cx="738.8" cy="272.7" r="6.8" fill="#08261f" fill-opacity="0.92"/>
  <circle cx="752.6" cy="185.0" r="7.5" fill="#1e4638" fill-opacity="0.77"/>
  <circle cx="775.6" cy="215.6" r="7.8" fill="#1e4638" fill-opacity="0.83"/>
  <circle cx="780.6" cy="181.7" r="8.5" fill="#08261f" fill-opacity="0.77"/>
  <circle cx="798.3" cy="264.4" r="7.9" fill="#103529" fill-opacity="0.92"/>
  <circle cx="843.1" cy="223.6" r="7.1" fill="#1e4638" fill-opacity="0.80"/>
  <circle cx="830.1" cy="207.4" r="8.1" fill="#1e4638" fill-opacity="0.92"/>
  <circle cx="858.0" cy="201.8" r="5.4" fill="#1e4638" fill-opacity="0.88"/>
  <circle cx="863.1" cy="140.6" r="5.7" fill="#1e4638" fill-opacity="0.86"/>
  <circle cx="893.0" cy="151.0" r="5.7" fill="#1e4638" fill-opacity="0.79"/>
  <circle cx="882.3" cy="195.7" r="6.5" fill="#08261f" fill-opacity="0.86"/>
  <circle cx="917.8" cy="198.0" r="8.9" fill="#1e4638" fill-opacity="0.77"/>
  <circle cx="925.2" cy="177.3" r="6.8" fill="#08261f" fill-opacity="0.85"/>
  <circle cx="932.5" cy="75.2" r="6.2" fill="#08261f" fill-opacity="0.93"/>
  <circle cx="603.1" cy="297.0" r="31" fill="#e2d71c" stroke="#c5b90f" stroke-width="2"/>
  <text x="603.1" y="309.0" text-anchor="middle" fill="#0f172a" font-family="Georgia, serif" font-size="58" font-weight="700">18</text>
</svg>
