<svg xmlns="http://www.w3.org/2000/svg" viewBox="0 0 1200 675" role="img" aria-label="Vale da Pinta Hole 4">
  <defs>
    <marker id="arrow" markerWidth="8" markerHeight="8" refX="7" refY="4" orient="auto">
      <path d="M0,0 L8,4 L0,8 z" fill="#d9d22b" />
    </marker>
  </defs>
  <rect width="1200" height="675" fill="#eef3fb"/>
  <circle cx="710.0" cy="331.0" r="5.7" fill="#21493a" fill-opacity="0.60"/>
  <circle cx="571.0" cy="113.0" r="5.2" fill="#0b2a23" fill-opacity="0.61"/>
  <circle cx="211.0" cy="185.0" r="4.6" fill="#103429" fill-opacity="0.79"/>
  <circle cx="556.0" cy="444.0" r="6.6" fill="#0b2a23" fill-opacity="0.90"/>
  <circle cx="71.0" cy="406.0" r="5.6" fill="#0b2a23" fill-opacity="0.56"/>
  <circle cx="1000.0" cy="603.0" r="7.9" fill="#0b2a23" fill-opacity="0.79"/>
  <circle cx="659.0" cy="518.0" r="7.2" fill="#0b2a23" fill-opacity="0.62"/>
  <circle cx="925.0" cy="245.0" r="6.0" fill="#0b2a23" fill-opacity="0.80"/>
  <circle cx="588.0" cy="404.0" r="7.1" fill="#0b2a23" fill-opacity="0.84"/>
  <circle cx="122.0" cy="547.0" r="7.9" fill="#103429" fill-opacity="0.81"/>
  <circle cx="138.0" cy="96.0" r="7.2" fill="#0b2a23" fill-opacity="0.76"/>
  <circle cx="1003.0" cy="365.0" r="7.0" fill="#21493a" fill-opacity="0.62"/>
  <circle cx="748.0" cy="389.0" r="6.0" fill="#103429" fill-opacity="0.86"/>
  <circle cx="435.0" cy="191.0" r="7.2" fill="#103429" fill-opacity="0.70"/>
  <circle cx="718.0" cy="583.0" r="6.2" fill="#21493a" fill-opacity="0.86"/>
  <circle cx="174.0" cy="335.0" r="4.9" fill="#103429" fill-opacity="0.64"/>
  <circle cx="709.0" cy="496.0" r="4.7" fill="#0b2a23" fill-opacity="0.82"/>
  <circle cx="406.0" cy="208.0" r="5.6" fill="#0b2a23" fill-opacity="0.82"/>
  <circle cx="576.0" cy="483.0" r="7.3" fill="#0b2a23" fill-opacity="0.57"/>
  <circle cx="100.0" cy="324.0" r="7.7" fill="#21493a" fill-opacity="0.63"/>
  <circle cx="860.0" cy="76.0" r="7.0" fill="#0b2a23" fill-opacity="0.60"/>
  <circle cx="174.0" cy="554.0" r="5.9" fill="#21493a" fill-opacity="0.71"/>
  <circle cx="438.0" cy="294.0" r="6.4" fill="#21493a" fill-opacity="0.56"/>
  <circle cx="271.0" cy="99.0" r="6.6" fill="#103429" fill-opacity="0.67"/>
  <circle cx="641.0" cy="185.0" r="6.2" fill="#0b2a23" fill-opacity="0.59"/>
  <circle cx="682.0" cy="242.0" r="5.6" fill="#103429" fill-opacity="0.73"/>
  <circle cx="862.0" cy="434.0" r="6.3" fill="#103429" fill-opacity="0.87"/>
  <circle cx="180.0" cy="590.0" r="7.1" fill="#21493a" fill-opacity="0.89"/>
  <circle cx="336.0" cy="491.0" r="5.1" fill="#21493a" fill-opacity="0.58"/>
  <circle cx="563.0" cy="452.0" r="6.2" fill="#103429" fill-opacity="0.63"/>
  <circle cx="209.0" cy="608.0" r="7.3" fill="#0b2a23" fill-opacity="0.58"/>
  <circle cx="964.0" cy="535.0" r="5.3" fill="#21493a" fill-opacity="0.66"/>
  <circle cx="234.0" cy="527.0" r="6.6" fill="#103429" fill-opacity="0.82"/>
  <circle cx="269.0" cy="367.0" r="5.4" fill="#103429" fill-opacity="0.65"/>
  <circle cx="474.0" cy="387.0" r="5.4" fill="#0b2a23" fill-opacity="0.80"/>
  <circle cx="954.0" cy="460.0" r="5.7" fill="#21493a" fill-opacity="0.89"/>
  <circle cx="734.0" cy="127.0" r="5.7" fill="#0b2a23" fill-opacity="0.83"/>
  <circle cx="797.0" cy="377.0" r="6.8" fill="#0b2a23" fill-opacity="0.62"/>
  <circle cx="915.0" cy="469.0" r="4.8" fill="#21493a" fill-opacity="0.88"/>
  <circle cx="761.0" cy="544.0" r="6.4" fill="#0b2a23" fill-opacity="0.83"/>
  <circle cx="202.0" cy="146.0" r="6.2" fill="#21493a" fill-opacity="0.61"/>
  <circle cx="69.0" cy="608.0" r="5.3" fill="#21493a" fill-opacity="0.58"/>
  <circle cx="143.0" cy="410.0" r="6.9" fill="#103429" fill-opacity="0.74"/>
  <circle cx="660.0" cy="222.0" r="4.5" fill="#103429" fill-opacity="0.76"/>
  <circle cx="525.0" cy="292.0" r="4.9" fill="#21493a" fill-opacity="0.81"/>
  <circle cx="994.0" cy="213.0" r="6.8" fill="#103429" fill-opacity="0.78"/>
  <circle cx="840.0" cy="531.0" r="7.4" fill="#21493a" fill-opacity="0.58"/>
  <circle cx="596.0" cy="313.0" r="6.2" fill="#0b2a23" fill-opacity="0.63"/>
  <circle cx="501.0" cy="508.0" r="5.7" fill="#0b2a23" fill-opacity="0.58"/>
  <circle cx="435.0" cy="241.0" r="7.2" fill="#21493a" fill-opacity="0.59"/>
  <circle cx="1125.0" cy="198.0" r="5.7" fill="#0b2a23" fill-opacity="0.66"/>
  <circle cx="169.0" cy="359.0" r="7.7" fill="#21493a" fill-opacity="0.88"/>
  <circle cx="626.0" cy="286.0" r="4.5" fill="#21493a" fill-opacity="0.73"/>
  <circle cx="528.0" cy="386.0" r="7.5" fill="#21493a" fill-opacity="0.85"/>
  <circle cx="819.0" cy="355.0" r="6.9" fill="#103429" fill-opacity="0.88"/>
  <circle cx="1011.0" cy="404.0" r="5.0" fill="#21493a" fill-opacity="0.55"/>
  <circle cx="873.0" cy="232.0" r="5.1" fill="#103429" fill-opacity="0.60"/>
  <circle cx="720.0" cy="203.0" r="7.5" fill="#0b2a23" fill-opacity="0.63"/>
  <circle cx="597.0" cy="421.0" r="5.4" fill="#0b2a23" fill-opacity="0.64"/>
  <circle cx="1079.0" cy="78.0" r="7.3" fill="#103429" fill-opacity="0.68"/>
  <circle cx="1040.0" cy="371.0" r="7.3" fill="#21493a" fill-opacity="0.61"/>
  <circle cx="40.0" cy="571.0" r="7.4" fill="#21493a" fill-opacity="0.61"/>
  <circle cx="596.0" cy="357.0" r="5.0" fill="#21493a" fill-opacity="0.73"/>
  <circle cx="652.0" cy="96.0" r="6.7" fill="#0b2a23" fill-opacity="0.69"/>
  <circle cx="306.0" cy="285.0" r="7.4" fill="#21493a" fill-opacity="0.66"/>
  <circle cx="613.0" cy="526.0" r="6.7" fill="#103429" fill-opacity="0.83"/>
  <circle cx="1148.0" cy="310.0" r="7.5" fill="#0b2a23" fill-opacity="0.63"/>
  <circle cx="207.0" cy="527.0" r="7.4" fill="#21493a" fill-opacity="0.83"/>
  <circle cx="350.0" cy="388.0" r="7.5" fill="#21493a" fill-opacity="0.72"/>
  <circle cx="576.0" cy="281.0" r="6.1" fill="#103429" fill-opacity="0.60"/>
  <circle cx="957.0" cy="548.0" r="7.9" fill="#103429" fill-opacity="0.71"/>
  <circle cx="66.0" cy="181.0" r="7.2" fill="#0b2a23" fill-opacity="0.67"/>
  <circle cx="180.0" cy="498.0" r="5.4" fill="#21493a" fill-opacity="0.79"/>
  <circle cx="659.0" cy="476.0" r="5.4" fill="#21493a" fill-opacity="0.70"/>
  <circle cx="1154.0" cy="561.0" r="5.4" fill="#103429" fill-opacity="0.78"/>
  <circle cx="903.0" cy="57.0" r="7.0" fill="#21493a" fill-opacity="0.80"/>
  <circle cx="1027.0" cy="277.0" r="5.1" fill="#21493a" fill-opacity="0.72"/>
  <circle cx="841.0" cy="167.0" r="7.7" fill="#0b2a23" fill-opacity="0.69"/>
  <circle cx="103.0" cy="99.0" r="7.7" fill="#0b2a23" fill-opacity="0.60"/>
  <circle cx="108.0" cy="528.0" r="5.9" fill="#0b2a23" fill-opacity="0.68"/>
  <circle cx="144.0" cy="190.0" r="6.3" fill="#0b2a23" fill-opacity="0.62"/>
  <circle cx="1008.0" cy="151.0" r="7.8" fill="#103429" fill-opacity="0.89"/>
  <circle cx="834.0" cy="582.0" r="4.9" fill="#0b2a23" fill-opacity="0.71"/>
  <circle cx="103.0" cy="78.0" r="6.4" fill="#103429" fill-opacity="0.88"/>
  <circle cx="707.0" cy="622.0" r="4.8" fill="#103429" fill-opacity="0.66"/>
  <circle cx="181.0" cy="355.0" r="7.7" fill="#103429" fill-opacity="0.70"/>
  <circle cx="584.0" cy="373.0" r="5.3" fill="#0b2a23" fill-opacity="0.84"/>
  <circle cx="1117.0" cy="175.0" r="6.4" fill="#103429" fill-opacity="0.66"/>
  <circle cx="765.0" cy="528.0" r="7.7" fill="#103429" fill-opacity="0.66"/>
  <circle cx="825.0" cy="468.0" r="7.8" fill="#21493a" fill-opacity="0.81"/>
  <path d="M 232 560 C 540 330, 860 322, 1020 256" fill="none" stroke="#1d5a36" stroke-width="146" stroke-linecap="round"/>
  <path d="M 234 559 C 544 328, 857 323, 1018 258" fill="none" stroke="#3d7f3d" stroke-width="106" stroke-linecap="round" fill-opacity="0.96"/>
  <path d="M 235 558 C 544 329, 856 324, 1017 259" fill="none" stroke="#76ae4a" stroke-width="84" stroke-linecap="round" fill-opacity="0.92"/>
  <ellipse cx="347.3" cy="483.8" rx="42.6" ry="27.3" fill="#86c254" transform="rotate(4.6 347.3 483.8)" fill-opacity="0.95"/>
  <ellipse cx="489.2" cy="413.1" rx="58.4" ry="21.2" fill="#7bb84a" transform="rotate(-11.1 489.2 413.1)" fill-opacity="0.95"/>
  <ellipse cx="663.9" cy="351.5" rx="51.5" ry="17.7" fill="#7bb84a" transform="rotate(13.8 663.9 351.5)" fill-opacity="0.95"/>
  <ellipse cx="828.6" cy="309.4" rx="65.5" ry="24.8" fill="#7bb84a" transform="rotate(33.8 828.6 309.4)" fill-opacity="0.95"/>
  <ellipse cx="938.4" cy="282.6" rx="57.0" ry="23.5" fill="#86c254" transform="rotate(29.2 938.4 282.6)" fill-opacity="0.95"/>
  <path d="M 436.1 412.5 C 444.0 396.7, 471.5 398.7, 479.4 412.5 C 484.3 426.2, 467.6 434.1, 451.9 431.1 C 438.1 428.2, 430.3 420.3, 436.1 412.5 Z" fill="#f8f8f5" stroke="#e5e7eb" stroke-width="1.5"/>
  <path d="M 728.0 305.5 C 735.9 289.7, 763.5 291.7, 771.4 305.5 C 776.3 319.3, 759.6 327.2, 743.8 324.2 C 730.0 321.3, 722.1 313.4, 728.0 305.5 Z" fill="#f8f8f5" stroke="#e5e7eb" stroke-width="1.5"/>
  <path d="M 914.6 247.3 C 924.0 228.5, 956.9 230.8, 966.3 247.3 C 972.2 263.8, 952.2 273.2, 933.4 269.6 C 916.9 266.1, 907.5 256.7, 914.6 247.3 Z" fill="#f8f8f5" stroke="#e5e7eb" stroke-width="1.5"/>
  <path d="M 250.0 544.0 C 540.0 320.4, 860.0 317.2, 1008.0 252.8" fill="none" stroke="#d9d22b" stroke-width="3" marker-end="url(#arrow)" stroke-linecap="round"/>
  <path d="M 258.0 560.0 C 550.0 330.0, 852.0 322.0, 1002.0 256.0" fill="none" stroke="#d9d22b" stroke-width="3" marker-end="url(#arrow)" stroke-linecap="round"/>
  <path d="M 266.0 576.0 C 560.0 339.6, 844.0 326.8, 996.0 259.2" fill="none" stroke="#d9d22b" stroke-width="3" marker-end="url(#arrow)" stroke-linecap="round"/>
  <circle cx="241.7" cy="501.2" r="5.2" fill="#1e4638" fill-opacity="0.90"/>
  <circle cx="267.7" cy="608.9" r="7.2" fill="#1e4638" fill-opacity="0.83"/>
  <circle cx="276.0" cy="553.6" r="7.1" fill="#1e4638" fill-opacity="0.78"/>
  <circle cx="308.9" cy="518.3" r="6.1" fill="#08261f" fill-opacity="0.83"/>
  <circle cx="312.9" cy="455.7" r="6.6" fill="#103529" fill-opacity="0.76"/>
  <circle cx="341.5" cy="431.2" r="5.4" fill="#08261f" fill-opacity="0.80"/>
  <circle cx="363.7" cy="466.6" r="5.2" fill="#103529" fill-opacity="0.88"/>
  <circle cx="386.0" cy="487.6" r="5.5" fill="#103529" fill-opacity="0.83"/>
  <circle cx="420.4" cy="518.0" r="6.2" fill="#1e4638" fill-opacity="0.78"/>
  <circle cx="434.6" cy="394.4" r="5.0" fill="#08261f" fill-opacity="0.80"/>
  <circle cx="451.3" cy="451.4" r="7.4" fill="#1e4638" fill-opacity="0.94"/>
  <circle cx="487.7" cy="418.2" r="8.7" fill="#103529" fill-opacity="0.76"/>
  <circle cx="489.0" cy="452.8" r="7.6" fill="#103529" fill-opacity="0.90"/>
  <circle cx="513.7" cy="341.7" r="8.6" fill="#08261f" fill-opacity="0.76"/>
  <circle cx="556.3" cy="427.0" r="5.4" fill="#103529" fill-opacity="0.92"/>
  <circle cx="559.6" cy="341.7" r="6.0" fill="#1e4638" fill-opacity="0.81"/>
  <circle cx="585.6" cy="337.2" r="5.3" fill="#1e4638" fill-opacity="0.86"/>
  <circle cx="601.5" cy="431.1" r="7.5" fill="#1e4638" fill-opacity="0.91"/>
  <circle cx="616.2" cy="439.7" r="8.1" fill="#1e4638" fill-opacity="0.85"/>
  <circle cx="650.4" cy="388.0" r="7.6" fill="#103529" fill-opacity="0.87"/>
  <circle cx="662.9" cy="308.1" r="7.0" fill="#08261f" fill-opacity="0.78"/>
  <circle cx="678.7" cy="304.2" r="7.2" fill="#08261f" fill-opacity="0.86"/>
  <circle cx="702.8" cy="262.8" r="6.4" fill="#08261f" fill-opacity="0.86"/>
  <circle cx="729.1" cy="328.5" r="7.4" fill="#08261f" fill-opacity="0.84"/>
  <circle cx="764.4" cy="277.7" r="8.7" fill="#08261f" fill-opacity="0.79"/>
  <circle cx="756.6" cy="278.3" r="7.3" fill="#1e4638" fill-opacity="0.81"/>
  <circle cx="804.3" cy="283.9" r="7.9" fill="#08261f" fill-opacity="0.87"/>
  <circle cx="817.4" cy="344.9" r="6.1" fill="#1e4638" fill-opacity="0.88"/>
  <circle cx="816.1" cy="370.3" r="7.0" fill="#103529" fill-opacity="0.94"/>
  <circle cx="840.2" cy="290.2" r="7.9" fill="#08261f" fill-opacity="0.81"/>
  <circle cx="863.5" cy="317.7" r="7.9" fill="#08261f" fill-opacity="0.76"/>
  <circle cx="885.8" cy="291.2" r="5.9" fill="#1e4638" fill-opacity="0.82"/>
  <circle cx="899.4" cy="275.7" r="8.1" fill="#08261f" fill-opacity="0.80"/>
  <circle cx="912.5" cy="235.2" r="8.3" fill="#08261f" fill-opacity="0.86"/>
  <circle cx="929.5" cy="290.4" r="6.8" fill="#08261f" fill-opacity="0.88"/>
  <circle cx="939.7" cy="285.5" r="6.9" fill="#1e4638" fill-opacity="0.75"/>
  <circle cx="942.4" cy="274.1" r="6.8" fill="#103529" fill-opacity="0.94"/>
  <circle cx="975.5" cy="228.6" r="7.0" fill="#1e4638" fill-opacity="0.75"/>
  <circle cx="969.6" cy="272.6" r="6.3" fill="#1e4638" fill-opacity="0.91"/>
  <circle cx="981.1" cy="210.1" r="6.1" fill="#08261f" fill-opacity="0.94"/>
  <circle cx="1018.2" cy="264.9" r="6.1" fill="#1e4638" fill-opacity="0.83"/>
  <circle cx="1015.8" cy="298.8" r="8.3" fill="#1e4638" fill-opacity="0.83"/>
  <circle cx="698.0" cy="341.9" r="31" fill="#e2d71c" stroke="#c5b90f" stroke-width="2"/>
  <text x="698.0" y="353.9" text-anchor="middle" fill="#0f172a" font-family="Georgia, serif" font-size="58" font-weight="700">4</text>
</svg>
