<svg xmlns="http://www.w3.org/2000/svg" viewBox="0 0 1200 675" role="img" aria-label="Vale da Pinta Hole 5">
  <defs>
    <marker id="arrow" markerWidth="8" markerHeight="8" refX="7" refY="4" orient="auto">
      <path d="M0,0 L8,4 L0,8 z" fill="#d9d22b" />
    </marker>
  </defs>
  <rect width="1200" height="675" fill="#eef3fb"/>
  <circle cx="474.0" cy="243.0" r="4.7" fill="#103429" fill-opacity="0.72"/>
  <circle cx="592.0" cy="239.0" r="4.8" fill="#0b2a23" fill-opacity="0.80"/>
  <circle cx="188.0" cy="221.0" r="6.5" fill="#0b2a23" fill-opacity="0.60"/>
  <circle cx="973.0" cy="256.0" r="7.6" fill="#103429" fill-opacity="0.62"/>
  <circle cx="1083.0" cy="536.0" r="5.8" fill="#103429" fill-opacity="0.86"/>
  <circle cx="724.0" cy="420.0" r="7.2" fill="#0b2a23" fill-opacity="0.90"/>
  <circle cx="271.0" cy="181.0" r="7.6" fill="#21493a" fill-opacity="0.70"/>
  <circle cx="495.0" cy="348.0" r="7.4" fill="#103429" fill-opacity="0.62"/>
  <circle cx="322.0" cy="293.0" r="7.3" fill="#0b2a23" fill-opacity="0.65"/>
  <circle cx="765.0" cy="538.0" r="6.3" fill="#0b2a23" fill-opacity="0.57"/>
  <circle cx="368.0" cy="558.0" r="7.2" fill="#103429" fill-opacity="0.83"/>
  <circle cx="402.0" cy="374.0" r="7.3" fill="#0b2a23" fill-opacity="0.69"/>
  <circle cx="986.0" cy="235.0" r="7.9" fill="#21493a" fill-opacity="0.65"/>
  <circle cx="904.0" cy="447.0" r="4.8" fill="#103429" fill-opacity="0.88"/>
  <circle cx="162.0" cy="589.0" r="7.2" fill="#21493a" fill-opacity="0.73"/>
  <circle cx="556.0" cy="59.0" r="5.3" fill="#21493a" fill-opacity="0.72"/>
  <circle cx="545.0" cy="412.0" r="7.2" fill="#21493a" fill-opacity="0.74"/>
  <circle cx="715.0" cy="154.0" r="5.7" fill="#0b2a23" fill-opacity="0.66"/>
  <circle cx="285.0" cy="465.0" r="5.8" fill="#0b2a23" fill-opacity="0.80"/>
  <circle cx="523.0" cy="174.0" r="4.8" fill="#103429" fill-opacity="0.77"/>
  <circle cx="991.0" cy="261.0" r="5.3" fill="#103429" fill-opacity="0.73"/>
  <circle cx="131.0" cy="448.0" r="5.2" fill="#0b2a23" fill-opacity="0.62"/>
  <circle cx="237.0" cy="115.0" r="5.8" fill="#21493a" fill-opacity="0.60"/>
  <circle cx="276.0" cy="347.0" r="7.5" fill="#21493a" fill-opacity="0.71"/>
  <circle cx="1129.0" cy="618.0" r="7.3" fill="#21493a" fill-opacity="0.69"/>
  <circle cx="914.0" cy="282.0" r="7.9" fill="#0b2a23" fill-opacity="0.60"/>
  <circle cx="803.0" cy="592.0" r="7.4" fill="#103429" fill-opacity="0.57"/>
  <circle cx="821.0" cy="215.0" r="6.2" fill="#103429" fill-opacity="0.87"/>
  <circle cx="819.0" cy="394.0" r="5.2" fill="#21493a" fill-opacity="0.71"/>
  <circle cx="1044.0" cy="83.0" r="5.5" fill="#0b2a23" fill-opacity="0.68"/>
  <circle cx="696.0" cy="114.0" r="7.8" fill="#21493a" fill-opacity="0.75"/>
  <circle cx="548.0" cy="374.0" r="6.8" fill="#0b2a23" fill-opacity="0.69"/>
  <circle cx="759.0" cy="255.0" r="6.6" fill="#0b2a23" fill-opacity="0.70"/>
  <circle cx="1057.0" cy="225.0" r="6.7" fill="#103429" fill-opacity="0.70"/>
  <circle cx="915.0" cy="607.0" r="5.3" fill="#103429" fill-opacity="0.73"/>
  <circle cx="50.0" cy="178.0" r="7.7" fill="#103429" fill-opacity="0.61"/>
  <circle cx="475.0" cy="478.0" r="5.6" fill="#21493a" fill-opacity="0.71"/>
  <circle cx="614.0" cy="273.0" r="7.7" fill="#0b2a23" fill-opacity="0.75"/>
  <circle cx="1005.0" cy="462.0" r="4.6" fill="#103429" fill-opacity="0.86"/>
  <circle cx="732.0" cy="91.0" r="5.6" fill="#0b2a23" fill-opacity="0.80"/>
  <circle cx="269.0" cy="473.0" r="6.3" fill="#103429" fill-opacity="0.90"/>
  <circle cx="132.0" cy="181.0" r="5.7" fill="#21493a" fill-opacity="0.84"/>
  <circle cx="625.0" cy="106.0" r="7.6" fill="#21493a" fill-opacity="0.77"/>
  <circle cx="169.0" cy="455.0" r="6.2" fill="#0b2a23" fill-opacity="0.76"/>
  <circle cx="843.0" cy="482.0" r="4.7" fill="#0b2a23" fill-opacity="0.62"/>
  <circle cx="277.0" cy="185.0" r="6.0" fill="#21493a" fill-opacity="0.84"/>
  <circle cx="189.0" cy="82.0" r="6.1" fill="#0b2a23" fill-opacity="0.76"/>
  <circle cx="721.0" cy="52.0" r="4.6" fill="#103429" fill-opacity="0.66"/>
  <circle cx="832.0" cy="347.0" r="6.3" fill="#0b2a23" fill-opacity="0.76"/>
  <circle cx="620.0" cy="412.0" r="6.7" fill="#0b2a23" fill-opacity="0.58"/>
  <circle cx="284.0" cy="464.0" r="7.9" fill="#103429" fill-opacity="0.57"/>
  <circle cx="66.0" cy="331.0" r="6.1" fill="#103429" fill-opacity="0.85"/>
  <circle cx="1033.0" cy="265.0" r="5.7" fill="#0b2a23" fill-opacity="0.67"/>
  <circle cx="76.0" cy="226.0" r="7.7" fill="#21493a" fill-opacity="0.57"/>
  <circle cx="880.0" cy="385.0" r="7.1" fill="#0b2a23" fill-opacity="0.88"/>
  <circle cx="315.0" cy="238.0" r="6.1" fill="#103429" fill-opacity="0.59"/>
  <circle cx="279.0" cy="518.0" r="6.6" fill="#103429" fill-opacity="0.56"/>
  <circle cx="574.0" cy="157.0" r="6.7" fill="#0b2a23" fill-opacity="0.81"/>
  <circle cx="519.0" cy="284.0" r="4.8" fill="#103429" fill-opacity="0.75"/>
  <circle cx="876.0" cy="344.0" r="6.3" fill="#21493a" fill-opacity="0.72"/>
  <circle cx="144.0" cy="637.0" r="7.6" fill="#21493a" fill-opacity="0.71"/>
  <circle cx="704.0" cy="468.0" r="6.1" fill="#21493a" fill-opacity="0.59"/>
  <circle cx="76.0" cy="208.0" r="5.2" fill="#21493a" fill-opacity="0.71"/>
  <circle cx="105.0" cy="173.0" r="7.0" fill="#0b2a23" fill-opacity="0.65"/>
  <circle cx="310.0" cy="63.0" r="7.4" fill="#103429" fill-opacity="0.66"/>
  <circle cx="1134.0" cy="121.0" r="5.8" fill="#0b2a23" fill-opacity="0.68"/>
  <circle cx="538.0" cy="467.0" r="7.3" fill="#0b2a23" fill-opacity="0.74"/>
  <circle cx="264.0" cy="568.0" r="5.9" fill="#103429" fill-opacity="0.80"/>
  <circle cx="63.0" cy="187.0" r="5.3" fill="#0b2a23" fill-opacity="0.72"/>
  <circle cx="496.0" cy="219.0" r="6.4" fill="#103429" fill-opacity="0.72"/>
  <circle cx="1129.0" cy="569.0" r="6.9" fill="#0b2a23" fill-opacity="0.56"/>
  <circle cx="121.0" cy="241.0" r="5.1" fill="#103429" fill-opacity="0.83"/>
  <circle cx="912.0" cy="118.0" r="7.2" fill="#103429" fill-opacity="0.81"/>
  <circle cx="600.0" cy="117.0" r="7.1" fill="#21493a" fill-opacity="0.86"/>
  <circle cx="712.0" cy="373.0" r="5.9" fill="#103429" fill-opacity="0.75"/>
  <circle cx="464.0" cy="615.0" r="4.6" fill="#0b2a23" fill-opacity="0.63"/>
  <circle cx="949.0" cy="212.0" r="7.3" fill="#0b2a23" fill-opacity="0.89"/>
  <circle cx="274.0" cy="215.0" r="7.1" fill="#21493a" fill-opacity="0.72"/>
  <circle cx="249.0" cy="355.0" r="7.0" fill="#21493a" fill-opacity="0.82"/>
  <circle cx="158.0" cy="508.0" r="5.8" fill="#103429" fill-opacity="0.78"/>
  <circle cx="958.0" cy="327.0" r="6.8" fill="#0b2a23" fill-opacity="0.84"/>
  <circle cx="633.0" cy="426.0" r="5.9" fill="#21493a" fill-opacity="0.68"/>
  <circle cx="421.0" cy="238.0" r="5.1" fill="#21493a" fill-opacity="0.81"/>
  <circle cx="613.0" cy="568.0" r="6.2" fill="#103429" fill-opacity="0.71"/>
  <circle cx="463.0" cy="471.0" r="5.9" fill="#21493a" fill-opacity="0.67"/>
  <circle cx="979.0" cy="103.0" r="6.3" fill="#103429" fill-opacity="0.72"/>
  <circle cx="940.0" cy="376.0" r="5.9" fill="#21493a" fill-opacity="0.80"/>
  <circle cx="57.0" cy="199.0" r="7.5" fill="#0b2a23" fill-opacity="0.77"/>
  <circle cx="448.0" cy="131.0" r="5.4" fill="#103429" fill-opacity="0.75"/>
  <circle cx="830.0" cy="437.0" r="5.9" fill="#103429" fill-opacity="0.62"/>
  <path d="M 120 542 C 585 295, 720 350, 972 290" fill="none" stroke="#1d5a36" stroke-width="126" stroke-linecap="round"/>
  <path d="M 122 541 C 589 293, 717 351, 970 292" fill="none" stroke="#3d7f3d" stroke-width="91" stroke-linecap="round" fill-opacity="0.96"/>
  <path d="M 123 540 C 589 294, 716 352, 969 293" fill="none" stroke="#76ae4a" stroke-width="73" stroke-linecap="round" fill-opacity="0.92"/>
  <ellipse cx="243.3" cy="479.7" rx="63.2" ry="25.0" fill="#7bb84a" transform="rotate(-18.0 243.3 479.7)" fill-opacity="0.95"/>
  <ellipse cx="448.2" cy="394.5" rx="64.1" ry="22.4" fill="#7bb84a" transform="rotate(-14.0 448.2 394.5)" fill-opacity="0.95"/>
  <ellipse cx="596.5" cy="352.1" rx="66.4" ry="27.0" fill="#7bb84a" transform="rotate(38.7 596.5 352.1)" fill-opacity="0.95"/>
  <ellipse cx="732.2" cy="328.5" rx="34.9" ry="15.9" fill="#7bb84a" transform="rotate(33.1 732.2 328.5)" fill-opacity="0.95"/>
  <ellipse cx="857.5" cy="311.8" rx="41.6" ry="26.3" fill="#86c254" transform="rotate(-38.8 857.5 311.8)" fill-opacity="0.95"/>
  <path d="M 431.8 424.0 C 440.3 407.0, 470.0 409.2, 478.5 424.0 C 483.8 438.9, 465.8 447.4, 448.8 444.2 C 433.9 441.0, 425.4 432.5, 431.8 424.0 Z" fill="#f8f8f5" stroke="#e5e7eb" stroke-width="1.5"/>
  <path d="M 642.3 318.3 C 650.4 302.1, 678.8 304.1, 686.9 318.3 C 691.9 332.5, 674.7 340.6, 658.5 337.6 C 644.4 334.5, 636.3 326.4, 642.3 318.3 Z" fill="#f8f8f5" stroke="#e5e7eb" stroke-width="1.5"/>
  <path d="M 888.1 277.8 C 896.8 260.5, 927.1 262.6, 935.7 277.8 C 941.1 292.9, 922.7 301.6, 905.4 298.4 C 890.3 295.1, 881.6 286.4, 888.1 277.8 Z" fill="#f8f8f5" stroke="#e5e7eb" stroke-width="1.5"/>
  <path d="M 194.0 454.0 C 232.0 414.0, 296.0 424.0, 310.0 472.0 C 316.0 516.0, 274.0 544.0, 220.0 530.0 C 192.0 516.0, 178.0 490.0, 194.0 454.0 Z" fill="#7dc9f5" stroke="#8a6b2f" stroke-width="4"/>
  <path d="M 138.0 526.0 C 585.0 285.4, 720.0 345.2, 960.0 286.8" fill="none" stroke="#d9d22b" stroke-width="3" marker-end="url(#arrow)" stroke-linecap="round"/>
  <path d="M 146.0 542.0 C 595.0 295.0, 712.0 350.0, 954.0 290.0" fill="none" stroke="#d9d22b" stroke-width="3" marker-end="url(#arrow)" stroke-linecap="round"/>
  <circle cx="112.5" cy="492.6" r="5.6" fill="#1e4638" fill-opacity="0.76"/>
  <circle cx="139.2" cy="477.6" r="8.8" fill="#08261f" fill-opacity="0.79"/>
  <circle cx="182.4" cy="476.7" r="5.7" fill="#1e4638" fill-opacity="0.89"/>
  <circle cx="215.6" cy="535.1" r="7.2" fill="#1e4638" fill-opacity="0.89"/>
  <circle cx="248.3" cy="415.5" r="5.2" fill="#1e4638" fill-opacity="0.77"/>
  <circle cx="263.3" cy="433.5" r="5.9" fill="#08261f" fill-opacity="0.87"/>
  <circle cx="301.9" cy="451.7" r="6.4" fill="#103529" fill-opacity="0.86"/>
  <circle cx="345.9" cy="496.3" r="8.9" fill="#103529" fill-opacity="0.92"/>
  <circle cx="353.8" cy="371.4" r="7.6" fill="#1e4638" fill-opacity="0.87"/>
  <circle cx="394.2" cy="475.9" r="5.7" fill="#1e4638" fill-opacity="0.90"/>
  <circle cx="400.1" cy="456.7" r="7.2" fill="#103529" fill-opacity="0.80"/>
  <circle cx="425.4" cy="384.1" r="5.4" fill="#08261f" fill-opacity="0.81"/>
  <circle cx="446.8" cy="354.7" r="8.1" fill="#103529" fill-opacity="0.94"/>
  <circle cx="491.9" cy="372.7" r="5.2" fill="#08261f" fill-opacity="0.91"/>
  <circle cx="514.5" cy="335.4" r="6.7" fill="#103529" fill-opacity="0.86"/>
  <circle cx="519.0" cy="415.5" r="5.1" fill="#1e4638" fill-opacity="0.87"/>
  <circle cx="530.4" cy="417.6" r="7.5" fill="#08261f" fill-opacity="0.84"/>
  <circle cx="549.1" cy="378.3" r="5.1" fill="#08261f" fill-opacity="0.79"/>
  <circle cx="591.5" cy="351.1" r="5.6" fill="#1e4638" fill-opacity="0.85"/>
  <circle cx="595.4" cy="310.9" r="5.9" fill="#103529" fill-opacity="0.81"/>
  <circle cx="601.6" cy="382.2" r="8.4" fill="#08261f" fill-opacity="0.79"/>
  <circle cx="639.8" cy="329.6" r="5.4" fill="#103529" fill-opacity="0.87"/>
  <circle cx="656.3" cy="295.9" r="8.4" fill="#103529" fill-opacity="0.75"/>
  <circle cx="669.0" cy="379.9" r="8.5" fill="#103529" fill-opacity="0.80"/>
  <circle cx="681.0" cy="315.9" r="5.6" fill="#103529" fill-opacity="0.87"/>
  <circle cx="699.0" cy="337.4" r="8.2" fill="#08261f" fill-opacity="0.94"/>
  <circle cx="717.4" cy="328.5" r="6.0" fill="#1e4638" fill-opacity="0.95"/>
  <circle cx="745.6" cy="381.2" r="8.2" fill="#1e4638" fill-opacity="0.94"/>
  <circle cx="743.4" cy="386.7" r="7.9" fill="#1e4638" fill-opacity="0.79"/>
  <circle cx="758.7" cy="283.1" r="7.1" fill="#1e4638" fill-opacity="0.91"/>
  <circle cx="781.1" cy="293.9" r="8.7" fill="#103529" fill-opacity="0.89"/>
  <circle cx="815.9" cy="275.2" r="5.6" fill="#08261f" fill-opacity="0.78"/>
  <circle cx="825.1" cy="306.0" r="6.0" fill="#103529" fill-opacity="0.76"/>
  <circle cx="820.4" cy="252.6" r="5.6" fill="#08261f" fill-opacity="0.83"/>
  <circle cx="841.8" cy="305.7" r="7.6" fill="#08261f" fill-opacity="0.75"/>
  <circle cx="855.5" cy="267.2" r="6.9" fill="#1e4638" fill-opacity="0.77"/>
  <circle cx="869.2" cy="270.5" r="5.5" fill="#1e4638" fill-opacity="0.86"/>
  <circle cx="890.5" cy="330.3" r="6.2" fill="#103529" fill-opacity="0.82"/>
  <circle cx="928.8" cy="258.4" r="5.8" fill="#1e4638" fill-opacity="0.78"/>
  <circle cx="943.4" cy="351.9" r="5.7" fill="#103529" fill-opacity="0.91"/>
  <circle cx="962.4" cy="262.8" r="6.2" fill="#1e4638" fill-opacity="0.80"/>
  <circle cx="959.7" cy="273.1" r="5.6" fill="#08261f" fill-opacity="0.85"/>
  <circle cx="640.6" cy="343.0" r="31" fill="#e2d71c" stroke="#c5b90f" stroke-width="2"/>
  <text x="640.6" y="355.0" text-anchor="middle" fill="#0f172a" font-family="Georgia, serif" font-size="58" font-weight="700">5</text>
</svg>
