<svg xmlns="http://www.w3.org/2000/svg" viewBox="0 0 1200 675" role="img" aria-label="Vale da Pinta Hole 6">
  <defs>
    <marker id="arrow" markerWidth="8" markerHeight="8" refX="7" refY="4" orient="auto">
      <path d="M0,0 L8,4 L0,8 z" fill="#d9d22b" />
    </marker>
  </defs>
  <rect width="1200" height="675" fill="#eef3fb"/>
  <circle cx="380.0" cy="194.0" r="4.8" fill="#21493a" fill-opacity="0.88"/>
  <circle cx="403.0" cy="404.0" r="7.6" fill="#21493a" fill-opacity="0.89"/>
  <circle cx="53.0" cy="374.0" r="4.9" fill="#103429" fill-opacity="0.72"/>
  <circle cx="818.0" cy="432.0" r="5.2" fill="#103429" fill-opacity="0.58"/>
  <circle cx="440.0" cy="536.0" r="7.4" fill="#0b2a23" fill-opacity="0.81"/>
  <circle cx="163.0" cy="419.0" r="5.1" fill="#103429" fill-opacity="0.75"/>
  <circle cx="1013.0" cy="400.0" r="5.1" fill="#21493a" fill-opacity="0.84"/>
  <circle cx="557.0" cy="555.0" r="7.6" fill="#0b2a23" fill-opacity="0.70"/>
  <circle cx="598.0" cy="110.0" r="7.9" fill="#103429" fill-opacity="0.87"/>
  <circle cx="532.0" cy="509.0" r="4.8" fill="#21493a" fill-opacity="0.57"/>
  <circle cx="792.0" cy="375.0" r="7.2" fill="#103429" fill-opacity="0.83"/>
  <circle cx="450.0" cy="312.0" r="7.3" fill="#21493a" fill-opacity="0.72"/>
  <circle cx="864.0" cy="538.0" r="6.4" fill="#21493a" fill-opacity="0.77"/>
  <circle cx="705.0" cy="499.0" r="7.3" fill="#21493a" fill-opacity="0.65"/>
  <circle cx="796.0" cy="447.0" r="6.2" fill="#103429" fill-opacity="0.83"/>
  <circle cx="1098.0" cy="520.0" r="7.5" fill="#103429" fill-opacity="0.65"/>
  <circle cx="142.0" cy="464.0" r="5.2" fill="#21493a" fill-opacity="0.86"/>
  <circle cx="498.0" cy="511.0" r="8.0" fill="#103429" fill-opacity="0.68"/>
  <circle cx="723.0" cy="209.0" r="4.6" fill="#0b2a23" fill-opacity="0.88"/>
  <circle cx="1085.0" cy="557.0" r="6.7" fill="#21493a" fill-opacity="0.71"/>
  <circle cx="728.0" cy="419.0" r="6.7" fill="#21493a" fill-opacity="0.72"/>
  <circle cx="711.0" cy="261.0" r="6.9" fill="#103429" fill-opacity="0.82"/>
  <circle cx="1125.0" cy="495.0" r="7.9" fill="#103429" fill-opacity="0.77"/>
  <circle cx="1061.0" cy="83.0" r="6.7" fill="#103429" fill-opacity="0.67"/>
  <circle cx="467.0" cy="602.0" r="6.8" fill="#0b2a23" fill-opacity="0.86"/>
  <circle cx="635.0" cy="208.0" r="6.1" fill="#103429" fill-opacity="0.62"/>
  <circle cx="945.0" cy="141.0" r="7.4" fill="#21493a" fill-opacity="0.80"/>
  <circle cx="764.0" cy="271.0" r="5.2" fill="#21493a" fill-opacity="0.58"/>
  <circle cx="141.0" cy="202.0" r="7.2" fill="#0b2a23" fill-opacity="0.59"/>
  <circle cx="208.0" cy="171.0" r="4.5" fill="#21493a" fill-opacity="0.68"/>
  <circle cx="278.0" cy="246.0" r="5.7" fill="#21493a" fill-opacity="0.61"/>
  <circle cx="1033.0" cy="545.0" r="6.8" fill="#0b2a23" fill-opacity="0.87"/>
  <circle cx="50.0" cy="349.0" r="5.4" fill="#103429" fill-opacity="0.59"/>
  <circle cx="727.0" cy="584.0" r="7.6" fill="#21493a" fill-opacity="0.78"/>
  <circle cx="766.0" cy="233.0" r="7.9" fill="#103429" fill-opacity="0.64"/>
  <circle cx="309.0" cy="381.0" r="4.9" fill="#21493a" fill-opacity="0.75"/>
  <circle cx="906.0" cy="229.0" r="7.6" fill="#21493a" fill-opacity="0.65"/>
  <circle cx="496.0" cy="259.0" r="5.0" fill="#0b2a23" fill-opacity="0.66"/>
  <circle cx="755.0" cy="96.0" r="7.9" fill="#103429" fill-opacity="0.81"/>
  <circle cx="980.0" cy="578.0" r="6.7" fill="#0b2a23" fill-opacity="0.85"/>
  <circle cx="241.0" cy="78.0" r="7.7" fill="#21493a" fill-opacity="0.61"/>
  <circle cx="703.0" cy="570.0" r="6.7" fill="#0b2a23" fill-opacity="0.76"/>
  <circle cx="93.0" cy="303.0" r="6.6" fill="#21493a" fill-opacity="0.58"/>
  <circle cx="933.0" cy="557.0" r="5.1" fill="#103429" fill-opacity="0.66"/>
  <circle cx="789.0" cy="82.0" r="5.8" fill="#21493a" fill-opacity="0.76"/>
  <circle cx="725.0" cy="154.0" r="5.9" fill="#0b2a23" fill-opacity="0.72"/>
  <circle cx="120.0" cy="574.0" r="6.2" fill="#0b2a23" fill-opacity="0.71"/>
  <circle cx="98.0" cy="460.0" r="5.6" fill="#103429" fill-opacity="0.69"/>
  <circle cx="861.0" cy="265.0" r="4.6" fill="#21493a" fill-opacity="0.60"/>
  <circle cx="639.0" cy="373.0" r="7.3" fill="#103429" fill-opacity="0.65"/>
  <circle cx="834.0" cy="624.0" r="6.0" fill="#0b2a23" fill-opacity="0.64"/>
  <circle cx="424.0" cy="66.0" r="7.8" fill="#21493a" fill-opacity="0.63"/>
  <circle cx="405.0" cy="632.0" r="5.8" fill="#21493a" fill-opacity="0.86"/>
  <circle cx="622.0" cy="362.0" r="7.2" fill="#0b2a23" fill-opacity="0.85"/>
  <circle cx="600.0" cy="392.0" r="8.0" fill="#0b2a23" fill-opacity="0.62"/>
  <circle cx="761.0" cy="325.0" r="5.7" fill="#103429" fill-opacity="0.64"/>
  <circle cx="944.0" cy="80.0" r="5.7" fill="#0b2a23" fill-opacity="0.62"/>
  <circle cx="398.0" cy="84.0" r="7.3" fill="#0b2a23" fill-opacity="0.64"/>
  <circle cx="356.0" cy="78.0" r="5.5" fill="#21493a" fill-opacity="0.89"/>
  <circle cx="242.0" cy="393.0" r="7.2" fill="#21493a" fill-opacity="0.59"/>
  <circle cx="858.0" cy="575.0" r="6.5" fill="#103429" fill-opacity="0.57"/>
  <circle cx="990.0" cy="316.0" r="5.5" fill="#0b2a23" fill-opacity="0.90"/>
  <circle cx="174.0" cy="284.0" r="5.2" fill="#21493a" fill-opacity="0.74"/>
  <circle cx="1120.0" cy="484.0" r="7.2" fill="#0b2a23" fill-opacity="0.70"/>
  <circle cx="1013.0" cy="170.0" r="6.6" fill="#0b2a23" fill-opacity="0.64"/>
  <circle cx="919.0" cy="110.0" r="7.6" fill="#0b2a23" fill-opacity="0.67"/>
  <circle cx="772.0" cy="302.0" r="5.0" fill="#0b2a23" fill-opacity="0.74"/>
  <circle cx="1012.0" cy="100.0" r="7.0" fill="#21493a" fill-opacity="0.71"/>
  <circle cx="758.0" cy="202.0" r="5.3" fill="#103429" fill-opacity="0.77"/>
  <circle cx="752.0" cy="247.0" r="5.5" fill="#21493a" fill-opacity="0.84"/>
  <circle cx="442.0" cy="639.0" r="6.2" fill="#21493a" fill-opacity="0.80"/>
  <circle cx="865.0" cy="403.0" r="6.4" fill="#0b2a23" fill-opacity="0.76"/>
  <circle cx="272.0" cy="510.0" r="8.0" fill="#21493a" fill-opacity="0.57"/>
  <circle cx="507.0" cy="490.0" r="7.5" fill="#0b2a23" fill-opacity="0.57"/>
  <circle cx="862.0" cy="442.0" r="4.6" fill="#21493a" fill-opacity="0.62"/>
  <circle cx="597.0" cy="230.0" r="5.6" fill="#0b2a23" fill-opacity="0.85"/>
  <circle cx="986.0" cy="527.0" r="5.3" fill="#0b2a23" fill-opacity="0.87"/>
  <circle cx="826.0" cy="68.0" r="7.5" fill="#21493a" fill-opacity="0.60"/>
  <circle cx="864.0" cy="403.0" r="5.6" fill="#21493a" fill-opacity="0.84"/>
  <circle cx="670.0" cy="468.0" r="6.3" fill="#21493a" fill-opacity="0.70"/>
  <circle cx="538.0" cy="574.0" r="6.5" fill="#0b2a23" fill-opacity="0.59"/>
  <circle cx="823.0" cy="74.0" r="5.2" fill="#21493a" fill-opacity="0.57"/>
  <circle cx="184.0" cy="250.0" r="6.8" fill="#103429" fill-opacity="0.62"/>
  <circle cx="1034.0" cy="142.0" r="5.1" fill="#103429" fill-opacity="0.86"/>
  <circle cx="308.0" cy="141.0" r="5.6" fill="#103429" fill-opacity="0.73"/>
  <circle cx="143.0" cy="598.0" r="5.5" fill="#21493a" fill-opacity="0.74"/>
  <circle cx="198.0" cy="50.0" r="7.2" fill="#103429" fill-opacity="0.85"/>
  <circle cx="294.0" cy="231.0" r="7.5" fill="#21493a" fill-opacity="0.64"/>
  <circle cx="448.0" cy="610.0" r="5.8" fill="#0b2a23" fill-opacity="0.68"/>
  <circle cx="70.0" cy="609.0" r="4.6" fill="#0b2a23" fill-opacity="0.69"/>
  <path d="M 148 524 C 360 260, 755 378, 924 120" fill="none" stroke="#1d5a36" stroke-width="126" stroke-linecap="round"/>
  <path d="M 150 523 C 364 258, 752 379, 922 122" fill="none" stroke="#3d7f3d" stroke-width="91" stroke-linecap="round" fill-opacity="0.96"/>
  <path d="M 151 522 C 364 259, 751 380, 921 123" fill="none" stroke="#76ae4a" stroke-width="73" stroke-linecap="round" fill-opacity="0.92"/>
  <ellipse cx="241.4" cy="437.1" rx="34.8" ry="27.8" fill="#86c254" transform="rotate(0.2 241.4 437.1)" fill-opacity="0.95"/>
  <ellipse cx="402.2" cy="360.4" rx="68.9" ry="23.3" fill="#7bb84a" transform="rotate(-8.6 402.2 360.4)" fill-opacity="0.95"/>
  <ellipse cx="559.6" cy="317.9" rx="53.6" ry="25.1" fill="#86c254" transform="rotate(-26.2 559.6 317.9)" fill-opacity="0.95"/>
  <ellipse cx="712.8" cy="274.5" rx="65.8" ry="19.3" fill="#7bb84a" transform="rotate(11.6 712.8 274.5)" fill-opacity="0.95"/>
  <ellipse cx="836.9" cy="211.2" rx="42.2" ry="25.1" fill="#86c254" transform="rotate(-23.0 836.9 211.2)" fill-opacity="0.95"/>
  <path d="M 311.4 368.9 C 320.5 350.7, 352.3 353.0, 361.4 368.9 C 367.1 384.8, 347.8 393.9, 329.6 390.5 C 313.7 387.1, 304.6 378.0, 311.4 368.9 Z" fill="#f8f8f5" stroke="#e5e7eb" stroke-width="1.5"/>
  <path d="M 569.0 296.7 C 577.1 280.4, 605.5 282.5, 613.7 296.7 C 618.7 310.9, 601.5 319.0, 585.2 316.0 C 571.0 313.0, 562.9 304.8, 569.0 296.7 Z" fill="#f8f8f5" stroke="#e5e7eb" stroke-width="1.5"/>
  <path d="M 166.0 508.0 C 360.0 250.4, 755.0 373.2, 912.0 116.8" fill="none" stroke="#d9d22b" stroke-width="3" marker-end="url(#arrow)" stroke-linecap="round"/>
  <path d="M 174.0 524.0 C 370.0 260.0, 747.0 378.0, 906.0 120.0" fill="none" stroke="#d9d22b" stroke-width="3" marker-end="url(#arrow)" stroke-linecap="round"/>
  <circle cx="144.8" cy="490.9" r="7.4" fill="#1e4638" fill-opacity="0.89"/>
  <circle cx="165.3" cy="538.3" r="5.0" fill="#103529" fill-opacity="0.82"/>
  <circle cx="178.8" cy="498.4" r="5.5" fill="#08261f" fill-opacity="0.76"/>
  <circle cx="192.7" cy="436.1" r="6.1" fill="#103529" fill-opacity="0.77"/>
  <circle cx="215.1" cy="493.6" r="8.3" fill="#08261f" fill-opacity="0.77"/>
  <circle cx="218.6" cy="404.6" r="5.7" fill="#103529" fill-opacity="0.79"/>
  <circle cx="263.8" cy="497.4" r="8.0" fill="#103529" fill-opacity="0.79"/>
  <circle cx="255.1" cy="367.6" r="8.0" fill="#103529" fill-opacity="0.91"/>
  <circle cx="298.7" cy="392.1" r="8.0" fill="#08261f" fill-opacity="0.85"/>
  <circle cx="299.5" cy="421.6" r="5.6" fill="#08261f" fill-opacity="0.77"/>
  <circle cx="317.6" cy="381.9" r="5.3" fill="#103529" fill-opacity="0.94"/>
  <circle cx="350.1" cy="375.5" r="6.6" fill="#08261f" fill-opacity="0.81"/>
  <circle cx="376.2" cy="384.3" r="7.1" fill="#08261f" fill-opacity="0.90"/>
  <circle cx="394.1" cy="349.9" r="6.5" fill="#08261f" fill-opacity="0.90"/>
  <circle cx="421.4" cy="376.3" r="7.5" fill="#103529" fill-opacity="0.91"/>
  <circle cx="440.8" cy="333.3" r="6.8" fill="#08261f" fill-opacity="0.83"/>
  <circle cx="442.9" cy="300.9" r="7.9" fill="#08261f" fill-opacity="0.75"/>
  <circle cx="486.8" cy="392.7" r="5.1" fill="#08261f" fill-opacity="0.79"/>
  <circle cx="506.2" cy="283.3" r="8.3" fill="#103529" fill-opacity="0.94"/>
  <circle cx="535.7" cy="277.4" r="8.0" fill="#103529" fill-opacity="0.79"/>
  <circle cx="526.6" cy="284.2" r="5.9" fill="#1e4638" fill-opacity="0.81"/>
  <circle cx="552.1" cy="275.9" r="5.8" fill="#1e4638" fill-opacity="0.89"/>
  <circle cx="598.3" cy="341.1" r="6.5" fill="#08261f" fill-opacity="0.92"/>
  <circle cx="598.4" cy="310.4" r="6.6" fill="#08261f" fill-opacity="0.90"/>
  <circle cx="622.8" cy="266.7" r="6.6" fill="#1e4638" fill-opacity="0.89"/>
  <circle cx="641.3" cy="343.8" r="6.6" fill="#1e4638" fill-opacity="0.89"/>
  <circle cx="680.0" cy="308.4" r="6.4" fill="#08261f" fill-opacity="0.89"/>
  <circle cx="688.9" cy="273.5" r="7.3" fill="#1e4638" fill-opacity="0.88"/>
  <circle cx="722.6" cy="317.2" r="7.8" fill="#103529" fill-opacity="0.91"/>
  <circle cx="733.2" cy="306.8" r="7.6" fill="#1e4638" fill-opacity="0.82"/>
  <circle cx="749.6" cy="305.7" r="8.5" fill="#08261f" fill-opacity="0.76"/>
  <circle cx="771.0" cy="286.6" r="5.1" fill="#08261f" fill-opacity="0.95"/>
  <circle cx="783.2" cy="289.7" r="6.6" fill="#08261f" fill-opacity="0.89"/>
  <circle cx="797.6" cy="281.4" r="6.9" fill="#103529" fill-opacity="0.93"/>
  <circle cx="829.2" cy="189.5" r="5.1" fill="#1e4638" fill-opacity="0.81"/>
  <circle cx="847.5" cy="191.5" r="7.8" fill="#08261f" fill-opacity="0.76"/>
  <circle cx="867.0" cy="232.0" r="7.1" fill="#103529" fill-opacity="0.89"/>
  <circle cx="865.7" cy="234.7" r="7.3" fill="#1e4638" fill-opacity="0.78"/>
  <circle cx="891.8" cy="214.6" r="6.8" fill="#08261f" fill-opacity="0.81"/>
  <circle cx="897.9" cy="186.5" r="6.5" fill="#08261f" fill-opacity="0.85"/>
  <circle cx="923.3" cy="105.5" r="6.8" fill="#08261f" fill-opacity="0.93"/>
  <circle cx="908.3" cy="61.0" r="6.4" fill="#103529" fill-opacity="0.78"/>
  <circle cx="569.7" cy="315.5" r="31" fill="#e2d71c" stroke="#c5b90f" stroke-width="2"/>
  <text x="569.7" y="327.5" text-anchor="middle" fill="#0f172a" font-family="Georgia, serif" font-size="58" font-weight="700">6</text>
</svg>
