<svg xmlns="http://www.w3.org/2000/svg" viewBox="0 0 1200 675" role="img" aria-label="Vale da Pinta Hole 7">
  <defs>
    <marker id="arrow" markerWidth="8" markerHeight="8" refX="7" refY="4" orient="auto">
      <path d="M0,0 L8,4 L0,8 z" fill="#d9d22b" />
    </marker>
  </defs>
  <rect width="1200" height="675" fill="#eef3fb"/>
  <circle cx="291.0" cy="402.0" r="6.5" fill="#21493a" fill-opacity="0.73"/>
  <circle cx="822.0" cy="175.0" r="6.3" fill="#0b2a23" fill-opacity="0.88"/>
  <circle cx="620.0" cy="291.0" r="5.8" fill="#21493a" fill-opacity="0.85"/>
  <circle cx="268.0" cy="223.0" r="7.3" fill="#0b2a23" fill-opacity="0.71"/>
  <circle cx="473.0" cy="278.0" r="5.7" fill="#103429" fill-opacity="0.64"/>
  <circle cx="397.0" cy="517.0" r="7.2" fill="#0b2a23" fill-opacity="0.68"/>
  <circle cx="1161.0" cy="486.0" r="4.8" fill="#21493a" fill-opacity="0.62"/>
  <circle cx="659.0" cy="192.0" r="7.3" fill="#21493a" fill-opacity="0.63"/>
  <circle cx="834.0" cy="589.0" r="5.4" fill="#21493a" fill-opacity="0.62"/>
  <circle cx="394.0" cy="464.0" r="6.5" fill="#103429" fill-opacity="0.83"/>
  <circle cx="688.0" cy="289.0" r="5.8" fill="#0b2a23" fill-opacity="0.84"/>
  <circle cx="107.0" cy="161.0" r="4.6" fill="#103429" fill-opacity="0.58"/>
  <circle cx="1120.0" cy="219.0" r="5.5" fill="#21493a" fill-opacity="0.63"/>
  <circle cx="82.0" cy="71.0" r="5.3" fill="#0b2a23" fill-opacity="0.85"/>
  <circle cx="966.0" cy="569.0" r="7.3" fill="#0b2a23" fill-opacity="0.72"/>
  <circle cx="192.0" cy="114.0" r="4.7" fill="#103429" fill-opacity="0.69"/>
  <circle cx="78.0" cy="372.0" r="7.0" fill="#0b2a23" fill-opacity="0.84"/>
  <circle cx="1038.0" cy="344.0" r="4.8" fill="#21493a" fill-opacity="0.78"/>
  <circle cx="1116.0" cy="401.0" r="7.8" fill="#21493a" fill-opacity="0.80"/>
  <circle cx="688.0" cy="413.0" r="6.2" fill="#103429" fill-opacity="0.87"/>
  <circle cx="195.0" cy="355.0" r="5.2" fill="#21493a" fill-opacity="0.84"/>
  <circle cx="158.0" cy="473.0" r="6.8" fill="#0b2a23" fill-opacity="0.76"/>
  <circle cx="959.0" cy="349.0" r="5.9" fill="#103429" fill-opacity="0.72"/>
  <circle cx="943.0" cy="435.0" r="5.8" fill="#0b2a23" fill-opacity="0.72"/>
  <circle cx="451.0" cy="129.0" r="7.5" fill="#103429" fill-opacity="0.78"/>
  <circle cx="361.0" cy="327.0" r="5.8" fill="#0b2a23" fill-opacity="0.62"/>
  <circle cx="577.0" cy="305.0" r="7.5" fill="#0b2a23" fill-opacity="0.88"/>
  <circle cx="1097.0" cy="640.0" r="7.0" fill="#0b2a23" fill-opacity="0.88"/>
  <circle cx="270.0" cy="567.0" r="5.4" fill="#21493a" fill-opacity="0.78"/>
  <circle cx="624.0" cy="67.0" r="7.4" fill="#0b2a23" fill-opacity="0.82"/>
  <circle cx="783.0" cy="51.0" r="7.8" fill="#0b2a23" fill-opacity="0.76"/>
  <circle cx="695.0" cy="322.0" r="4.9" fill="#103429" fill-opacity="0.72"/>
  <circle cx="245.0" cy="593.0" r="6.6" fill="#21493a" fill-opacity="0.74"/>
  <circle cx="630.0" cy="376.0" r="6.8" fill="#21493a" fill-opacity="0.55"/>
  <circle cx="1008.0" cy="209.0" r="6.9" fill="#0b2a23" fill-opacity="0.82"/>
  <circle cx="149.0" cy="524.0" r="5.5" fill="#21493a" fill-opacity="0.68"/>
  <circle cx="735.0" cy="568.0" r="5.9" fill="#21493a" fill-opacity="0.59"/>
  <circle cx="964.0" cy="256.0" r="5.5" fill="#0b2a23" fill-opacity="0.84"/>
  <circle cx="971.0" cy="109.0" r="6.0" fill="#103429" fill-opacity="0.85"/>
  <circle cx="1129.0" cy="615.0" r="7.0" fill="#0b2a23" fill-opacity="0.74"/>
  <circle cx="328.0" cy="372.0" r="6.8" fill="#103429" fill-opacity="0.89"/>
  <circle cx="272.0" cy="353.0" r="5.3" fill="#103429" fill-opacity="0.70"/>
  <circle cx="783.0" cy="319.0" r="7.1" fill="#0b2a23" fill-opacity="0.60"/>
  <circle cx="309.0" cy="79.0" r="5.1" fill="#21493a" fill-opacity="0.73"/>
  <circle cx="608.0" cy="125.0" r="5.6" fill="#103429" fill-opacity="0.57"/>
  <circle cx="971.0" cy="128.0" r="6.1" fill="#0b2a23" fill-opacity="0.70"/>
  <circle cx="822.0" cy="76.0" r="6.9" fill="#103429" fill-opacity="0.56"/>
  <circle cx="854.0" cy="468.0" r="5.8" fill="#0b2a23" fill-opacity="0.78"/>
  <circle cx="448.0" cy="133.0" r="7.4" fill="#0b2a23" fill-opacity="0.58"/>
  <circle cx="729.0" cy="344.0" r="6.9" fill="#103429" fill-opacity="0.77"/>
  <circle cx="913.0" cy="172.0" r="7.6" fill="#103429" fill-opacity="0.65"/>
  <circle cx="355.0" cy="184.0" r="6.1" fill="#0b2a23" fill-opacity="0.61"/>
  <circle cx="324.0" cy="71.0" r="5.6" fill="#103429" fill-opacity="0.59"/>
  <circle cx="806.0" cy="114.0" r="4.6" fill="#103429" fill-opacity="0.83"/>
  <circle cx="975.0" cy="77.0" r="5.4" fill="#21493a" fill-opacity="0.59"/>
  <circle cx="823.0" cy="510.0" r="6.8" fill="#21493a" fill-opacity="0.76"/>
  <circle cx="837.0" cy="450.0" r="6.9" fill="#103429" fill-opacity="0.65"/>
  <circle cx="284.0" cy="634.0" r="5.3" fill="#0b2a23" fill-opacity="0.73"/>
  <circle cx="243.0" cy="257.0" r="4.9" fill="#103429" fill-opacity="0.84"/>
  <circle cx="1029.0" cy="210.0" r="5.7" fill="#0b2a23" fill-opacity="0.79"/>
  <circle cx="167.0" cy="226.0" r="7.9" fill="#0b2a23" fill-opacity="0.90"/>
  <circle cx="275.0" cy="129.0" r="5.1" fill="#103429" fill-opacity="0.88"/>
  <circle cx="1023.0" cy="436.0" r="5.0" fill="#103429" fill-opacity="0.61"/>
  <circle cx="448.0" cy="113.0" r="5.6" fill="#103429" fill-opacity="0.73"/>
  <circle cx="531.0" cy="373.0" r="5.9" fill="#0b2a23" fill-opacity="0.88"/>
  <circle cx="754.0" cy="428.0" r="5.4" fill="#21493a" fill-opacity="0.74"/>
  <circle cx="706.0" cy="638.0" r="7.8" fill="#0b2a23" fill-opacity="0.57"/>
  <circle cx="344.0" cy="473.0" r="4.5" fill="#103429" fill-opacity="0.83"/>
  <circle cx="1098.0" cy="526.0" r="5.8" fill="#0b2a23" fill-opacity="0.85"/>
  <circle cx="118.0" cy="156.0" r="6.9" fill="#0b2a23" fill-opacity="0.77"/>
  <circle cx="598.0" cy="275.0" r="6.1" fill="#103429" fill-opacity="0.69"/>
  <circle cx="858.0" cy="213.0" r="5.1" fill="#103429" fill-opacity="0.70"/>
  <circle cx="1080.0" cy="322.0" r="7.8" fill="#0b2a23" fill-opacity="0.71"/>
  <circle cx="1117.0" cy="528.0" r="5.2" fill="#103429" fill-opacity="0.67"/>
  <circle cx="211.0" cy="220.0" r="4.8" fill="#0b2a23" fill-opacity="0.75"/>
  <circle cx="988.0" cy="264.0" r="7.2" fill="#0b2a23" fill-opacity="0.82"/>
  <circle cx="76.0" cy="343.0" r="6.9" fill="#0b2a23" fill-opacity="0.71"/>
  <circle cx="586.0" cy="454.0" r="5.8" fill="#0b2a23" fill-opacity="0.71"/>
  <circle cx="403.0" cy="373.0" r="4.8" fill="#103429" fill-opacity="0.74"/>
  <circle cx="627.0" cy="338.0" r="6.3" fill="#103429" fill-opacity="0.79"/>
  <circle cx="106.0" cy="520.0" r="6.8" fill="#0b2a23" fill-opacity="0.59"/>
  <circle cx="1129.0" cy="288.0" r="6.9" fill="#21493a" fill-opacity="0.72"/>
  <circle cx="145.0" cy="337.0" r="6.1" fill="#0b2a23" fill-opacity="0.75"/>
  <circle cx="342.0" cy="71.0" r="6.9" fill="#0b2a23" fill-opacity="0.70"/>
  <circle cx="622.0" cy="325.0" r="5.5" fill="#103429" fill-opacity="0.55"/>
  <circle cx="895.0" cy="258.0" r="7.9" fill="#103429" fill-opacity="0.75"/>
  <circle cx="228.0" cy="132.0" r="7.2" fill="#103429" fill-opacity="0.76"/>
  <circle cx="975.0" cy="623.0" r="5.6" fill="#21493a" fill-opacity="0.69"/>
  <circle cx="365.0" cy="326.0" r="5.8" fill="#0b2a23" fill-opacity="0.85"/>
  <circle cx="364.0" cy="610.0" r="6.9" fill="#21493a" fill-opacity="0.78"/>
  <path d="M 176 506 C 405 470, 790 406, 876 154" fill="none" stroke="#1d5a36" stroke-width="126" stroke-linecap="round"/>
  <path d="M 178 505 C 409 468, 787 407, 874 156" fill="none" stroke="#3d7f3d" stroke-width="91" stroke-linecap="round" fill-opacity="0.96"/>
  <path d="M 179 504 C 409 469, 786 408, 873 157" fill="none" stroke="#76ae4a" stroke-width="73" stroke-linecap="round" fill-opacity="0.92"/>
  <ellipse cx="271.6" cy="490.3" rx="51.9" ry="18.7" fill="#7bb84a" transform="rotate(4.8 271.6 490.3)" fill-opacity="0.95"/>
  <ellipse cx="434.4" cy="456.2" rx="61.4" ry="25.5" fill="#86c254" transform="rotate(38.1 434.4 456.2)" fill-opacity="0.95"/>
  <ellipse cx="575.5" cy="412.6" rx="62.6" ry="22.0" fill="#7bb84a" transform="rotate(19.1 575.5 412.6)" fill-opacity="0.95"/>
  <ellipse cx="722.6" cy="339.5" rx="29.6" ry="21.1" fill="#86c254" transform="rotate(-9.0 722.6 339.5)" fill-opacity="0.95"/>
  <ellipse cx="818.7" cy="255.2" rx="65.0" ry="17.7" fill="#7bb84a" transform="rotate(-4.8 818.7 255.2)" fill-opacity="0.95"/>
  <path d="M 340.7 489.2 C 348.2 474.3, 374.4 476.1, 381.9 489.2 C 386.5 502.3, 370.6 509.8, 355.7 507.0 C 342.6 504.2, 335.1 496.7, 340.7 489.2 Z" fill="#f8f8f5" stroke="#e5e7eb" stroke-width="1.5"/>
  <path d="M 597.5 375.4 C 605.6 359.3, 633.9 361.3, 642.0 375.4 C 647.0 389.6, 629.8 397.7, 613.7 394.6 C 599.5 391.6, 591.5 383.5, 597.5 375.4 Z" fill="#f8f8f5" stroke="#e5e7eb" stroke-width="1.5"/>
  <path d="M 194.0 490.0 C 405.0 460.4, 790.0 401.2, 864.0 150.8" fill="none" stroke="#d9d22b" stroke-width="3" marker-end="url(#arrow)" stroke-linecap="round"/>
  <path d="M 202.0 506.0 C 415.0 470.0, 782.0 406.0, 858.0 154.0" fill="none" stroke="#d9d22b" stroke-width="3" marker-end="url(#arrow)" stroke-linecap="round"/>
  <circle cx="189.3" cy="526.5" r="8.5" fill="#1e4638" fill-opacity="0.86"/>
  <circle cx="178.1" cy="455.9" r="7.4" fill="#08261f" fill-opacity="0.86"/>
  <circle cx="208.5" cy="461.2" r="5.3" fill="#1e4638" fill-opacity="0.76"/>
  <circle cx="233.8" cy="474.8" r="7.8" fill="#1e4638" fill-opacity="0.92"/>
  <circle cx="234.4" cy="554.6" r="6.0" fill="#08261f" fill-opacity="0.89"/>
  <circle cx="266.8" cy="473.2" r="7.8" fill="#103529" fill-opacity="0.94"/>
  <circle cx="298.0" cy="536.1" r="6.1" fill="#08261f" fill-opacity="0.84"/>
  <circle cx="312.0" cy="478.8" r="6.9" fill="#1e4638" fill-opacity="0.85"/>
  <circle cx="310.3" cy="532.7" r="6.2" fill="#103529" fill-opacity="0.81"/>
  <circle cx="353.9" cy="514.4" r="6.4" fill="#103529" fill-opacity="0.92"/>
  <circle cx="380.0" cy="526.0" r="5.8" fill="#103529" fill-opacity="0.84"/>
  <circle cx="377.7" cy="452.3" r="8.0" fill="#103529" fill-opacity="0.92"/>
  <circle cx="421.2" cy="505.7" r="8.9" fill="#08261f" fill-opacity="0.88"/>
  <circle cx="412.0" cy="479.2" r="5.2" fill="#08261f" fill-opacity="0.88"/>
  <circle cx="435.7" cy="478.9" r="7.1" fill="#103529" fill-opacity="0.80"/>
  <circle cx="468.4" cy="462.8" r="6.2" fill="#08261f" fill-opacity="0.83"/>
  <circle cx="495.7" cy="475.1" r="5.1" fill="#08261f" fill-opacity="0.91"/>
  <circle cx="515.5" cy="404.7" r="8.4" fill="#1e4638" fill-opacity="0.93"/>
  <circle cx="520.6" cy="417.5" r="5.2" fill="#08261f" fill-opacity="0.92"/>
  <circle cx="547.6" cy="423.3" r="5.4" fill="#103529" fill-opacity="0.91"/>
  <circle cx="571.4" cy="384.1" r="8.9" fill="#103529" fill-opacity="0.79"/>
  <circle cx="581.4" cy="379.9" r="5.1" fill="#08261f" fill-opacity="0.87"/>
  <circle cx="620.0" cy="428.9" r="6.0" fill="#08261f" fill-opacity="0.80"/>
  <circle cx="634.8" cy="428.8" r="5.2" fill="#08261f" fill-opacity="0.78"/>
  <circle cx="631.7" cy="387.2" r="5.6" fill="#1e4638" fill-opacity="0.94"/>
  <circle cx="655.9" cy="386.7" r="5.7" fill="#103529" fill-opacity="0.82"/>
  <circle cx="672.7" cy="356.4" r="6.4" fill="#1e4638" fill-opacity="0.83"/>
  <circle cx="707.0" cy="393.0" r="5.9" fill="#103529" fill-opacity="0.92"/>
  <circle cx="706.7" cy="393.1" r="5.4" fill="#08261f" fill-opacity="0.86"/>
  <circle cx="742.6" cy="335.7" r="7.0" fill="#08261f" fill-opacity="0.81"/>
  <circle cx="749.0" cy="263.6" r="6.0" fill="#103529" fill-opacity="0.94"/>
  <circle cx="781.3" cy="348.7" r="7.3" fill="#103529" fill-opacity="0.83"/>
  <circle cx="794.7" cy="309.9" r="8.5" fill="#08261f" fill-opacity="0.90"/>
  <circle cx="806.0" cy="310.2" r="5.7" fill="#103529" fill-opacity="0.85"/>
  <circle cx="816.4" cy="249.3" r="8.9" fill="#08261f" fill-opacity="0.80"/>
  <circle cx="818.4" cy="291.9" r="6.5" fill="#103529" fill-opacity="0.81"/>
  <circle cx="841.3" cy="229.7" r="8.3" fill="#103529" fill-opacity="0.87"/>
  <circle cx="833.1" cy="259.6" r="7.4" fill="#1e4638" fill-opacity="0.81"/>
  <circle cx="839.2" cy="216.6" r="6.9" fill="#1e4638" fill-opacity="0.85"/>
  <circle cx="860.3" cy="242.8" r="6.5" fill="#1e4638" fill-opacity="0.88"/>
  <circle cx="870.0" cy="124.1" r="8.6" fill="#08261f" fill-opacity="0.88"/>
  <circle cx="872.4" cy="114.2" r="5.4" fill="#103529" fill-opacity="0.82"/>
  <circle cx="595.8" cy="404.6" r="31" fill="#e2d71c" stroke="#c5b90f" stroke-width="2"/>
  <text x="595.8" y="416.6" text-anchor="middle" fill="#0f172a" font-family="Georgia, serif" font-size="58" font-weight="700">7</text>
</svg>
