<svg xmlns="http://www.w3.org/2000/svg" viewBox="0 0 1200 675" role="img" aria-label="Vale da Pinta Hole 8">
  <defs>
    <marker id="arrow" markerWidth="8" markerHeight="8" refX="7" refY="4" orient="auto">
      <path d="M0,0 L8,4 L0,8 z" fill="#d9d22b" />
    </marker>
  </defs>
  <rect width="1200" height="675" fill="#eef3fb"/>
  <circle cx="59.0" cy="210.0" r="7.0" fill="#0b2a23" fill-opacity="0.82"/>
  <circle cx="683.0" cy="61.0" r="6.6" fill="#21493a" fill-opacity="0.61"/>
  <circle cx="1106.0" cy="394.0" r="6.4" fill="#103429" fill-opacity="0.72"/>
  <circle cx="562.0" cy="192.0" r="5.3" fill="#0b2a23" fill-opacity="0.83"/>
  <circle cx="266.0" cy="308.0" r="5.4" fill="#21493a" fill-opacity="0.58"/>
  <circle cx="1054.0" cy="206.0" r="6.9" fill="#103429" fill-opacity="0.57"/>
  <circle cx="67.0" cy="416.0" r="6.7" fill="#103429" fill-opacity="0.61"/>
  <circle cx="66.0" cy="426.0" r="5.7" fill="#103429" fill-opacity="0.58"/>
  <circle cx="537.0" cy="208.0" r="5.3" fill="#21493a" fill-opacity="0.88"/>
  <circle cx="229.0" cy="414.0" r="7.9" fill="#0b2a23" fill-opacity="0.71"/>
  <circle cx="762.0" cy="513.0" r="4.8" fill="#0b2a23" fill-opacity="0.60"/>
  <circle cx="436.0" cy="181.0" r="6.2" fill="#21493a" fill-opacity="0.85"/>
  <circle cx="896.0" cy="308.0" r="5.6" fill="#103429" fill-opacity="0.69"/>
  <circle cx="1145.0" cy="601.0" r="4.9" fill="#21493a" fill-opacity="0.84"/>
  <circle cx="740.0" cy="366.0" r="5.8" fill="#103429" fill-opacity="0.76"/>
  <circle cx="479.0" cy="634.0" r="8.0" fill="#103429" fill-opacity="0.56"/>
  <circle cx="434.0" cy="356.0" r="6.5" fill="#103429" fill-opacity="0.88"/>
  <circle cx="903.0" cy="485.0" r="7.6" fill="#21493a" fill-opacity="0.77"/>
  <circle cx="812.0" cy="640.0" r="5.0" fill="#103429" fill-opacity="0.80"/>
  <circle cx="36.0" cy="604.0" r="4.6" fill="#21493a" fill-opacity="0.69"/>
  <circle cx="1087.0" cy="314.0" r="5.4" fill="#103429" fill-opacity="0.84"/>
  <circle cx="1124.0" cy="114.0" r="7.9" fill="#0b2a23" fill-opacity="0.90"/>
  <circle cx="895.0" cy="568.0" r="6.9" fill="#0b2a23" fill-opacity="0.81"/>
  <circle cx="526.0" cy="632.0" r="5.1" fill="#0b2a23" fill-opacity="0.75"/>
  <circle cx="302.0" cy="467.0" r="7.3" fill="#0b2a23" fill-opacity="0.84"/>
  <circle cx="83.0" cy="446.0" r="6.1" fill="#21493a" fill-opacity="0.82"/>
  <circle cx="890.0" cy="393.0" r="5.8" fill="#103429" fill-opacity="0.66"/>
  <circle cx="71.0" cy="468.0" r="7.8" fill="#103429" fill-opacity="0.57"/>
  <circle cx="232.0" cy="138.0" r="5.9" fill="#0b2a23" fill-opacity="0.78"/>
  <circle cx="395.0" cy="417.0" r="4.5" fill="#0b2a23" fill-opacity="0.71"/>
  <circle cx="221.0" cy="407.0" r="6.0" fill="#0b2a23" fill-opacity="0.63"/>
  <circle cx="262.0" cy="553.0" r="5.1" fill="#103429" fill-opacity="0.59"/>
  <circle cx="981.0" cy="52.0" r="6.1" fill="#0b2a23" fill-opacity="0.65"/>
  <circle cx="1127.0" cy="511.0" r="5.2" fill="#21493a" fill-opacity="0.77"/>
  <circle cx="600.0" cy="253.0" r="6.7" fill="#103429" fill-opacity="0.81"/>
  <circle cx="376.0" cy="470.0" r="7.5" fill="#21493a" fill-opacity="0.67"/>
  <circle cx="211.0" cy="573.0" r="6.7" fill="#103429" fill-opacity="0.82"/>
  <circle cx="826.0" cy="414.0" r="4.6" fill="#0b2a23" fill-opacity="0.86"/>
  <circle cx="409.0" cy="409.0" r="7.0" fill="#0b2a23" fill-opacity="0.58"/>
  <circle cx="359.0" cy="459.0" r="6.5" fill="#0b2a23" fill-opacity="0.83"/>
  <circle cx="836.0" cy="465.0" r="6.1" fill="#103429" fill-opacity="0.89"/>
  <circle cx="261.0" cy="459.0" r="7.3" fill="#21493a" fill-opacity="0.80"/>
  <circle cx="489.0" cy="622.0" r="6.2" fill="#21493a" fill-opacity="0.67"/>
  <circle cx="541.0" cy="147.0" r="5.3" fill="#0b2a23" fill-opacity="0.55"/>
  <circle cx="1059.0" cy="349.0" r="5.8" fill="#21493a" fill-opacity="0.85"/>
  <circle cx="1056.0" cy="383.0" r="7.8" fill="#21493a" fill-opacity="0.75"/>
  <circle cx="427.0" cy="427.0" r="7.2" fill="#21493a" fill-opacity="0.89"/>
  <circle cx="557.0" cy="443.0" r="5.6" fill="#103429" fill-opacity="0.82"/>
  <circle cx="1071.0" cy="281.0" r="7.7" fill="#103429" fill-opacity="0.88"/>
  <circle cx="518.0" cy="219.0" r="5.7" fill="#103429" fill-opacity="0.79"/>
  <circle cx="509.0" cy="98.0" r="7.3" fill="#0b2a23" fill-opacity="0.82"/>
  <circle cx="1160.0" cy="160.0" r="5.3" fill="#103429" fill-opacity="0.87"/>
  <circle cx="100.0" cy="327.0" r="5.0" fill="#0b2a23" fill-opacity="0.58"/>
  <circle cx="434.0" cy="429.0" r="7.6" fill="#21493a" fill-opacity="0.82"/>
  <circle cx="869.0" cy="173.0" r="7.0" fill="#0b2a23" fill-opacity="0.64"/>
  <circle cx="786.0" cy="427.0" r="6.0" fill="#21493a" fill-opacity="0.55"/>
  <circle cx="71.0" cy="581.0" r="5.4" fill="#21493a" fill-opacity="0.84"/>
  <circle cx="237.0" cy="342.0" r="4.8" fill="#0b2a23" fill-opacity="0.89"/>
  <circle cx="218.0" cy="377.0" r="6.7" fill="#21493a" fill-opacity="0.80"/>
  <circle cx="352.0" cy="350.0" r="4.6" fill="#21493a" fill-opacity="0.65"/>
  <circle cx="851.0" cy="140.0" r="5.6" fill="#21493a" fill-opacity="0.58"/>
  <circle cx="440.0" cy="166.0" r="6.0" fill="#0b2a23" fill-opacity="0.69"/>
  <circle cx="289.0" cy="212.0" r="7.5" fill="#0b2a23" fill-opacity="0.70"/>
  <circle cx="541.0" cy="429.0" r="4.8" fill="#21493a" fill-opacity="0.85"/>
  <circle cx="98.0" cy="78.0" r="5.6" fill="#103429" fill-opacity="0.70"/>
  <circle cx="1019.0" cy="220.0" r="7.8" fill="#0b2a23" fill-opacity="0.81"/>
  <circle cx="841.0" cy="349.0" r="7.2" fill="#103429" fill-opacity="0.67"/>
  <circle cx="1126.0" cy="522.0" r="5.9" fill="#21493a" fill-opacity="0.87"/>
  <circle cx="767.0" cy="335.0" r="6.8" fill="#103429" fill-opacity="0.73"/>
  <circle cx="493.0" cy="107.0" r="4.7" fill="#21493a" fill-opacity="0.71"/>
  <circle cx="585.0" cy="53.0" r="6.7" fill="#21493a" fill-opacity="0.68"/>
  <circle cx="795.0" cy="82.0" r="5.7" fill="#21493a" fill-opacity="0.60"/>
  <circle cx="147.0" cy="188.0" r="5.0" fill="#103429" fill-opacity="0.89"/>
  <circle cx="407.0" cy="265.0" r="7.5" fill="#21493a" fill-opacity="0.86"/>
  <circle cx="1044.0" cy="208.0" r="5.1" fill="#0b2a23" fill-opacity="0.87"/>
  <circle cx="108.0" cy="191.0" r="4.7" fill="#103429" fill-opacity="0.58"/>
  <circle cx="788.0" cy="412.0" r="5.6" fill="#21493a" fill-opacity="0.59"/>
  <circle cx="674.0" cy="153.0" r="7.4" fill="#21493a" fill-opacity="0.73"/>
  <circle cx="1100.0" cy="122.0" r="6.7" fill="#21493a" fill-opacity="0.57"/>
  <circle cx="419.0" cy="293.0" r="7.8" fill="#103429" fill-opacity="0.71"/>
  <circle cx="613.0" cy="235.0" r="6.8" fill="#21493a" fill-opacity="0.59"/>
  <circle cx="930.0" cy="204.0" r="5.3" fill="#0b2a23" fill-opacity="0.56"/>
  <circle cx="186.0" cy="623.0" r="4.8" fill="#103429" fill-opacity="0.85"/>
  <circle cx="699.0" cy="597.0" r="8.0" fill="#21493a" fill-opacity="0.58"/>
  <circle cx="171.0" cy="622.0" r="7.1" fill="#0b2a23" fill-opacity="0.66"/>
  <circle cx="538.0" cy="438.0" r="7.0" fill="#21493a" fill-opacity="0.89"/>
  <circle cx="1028.0" cy="416.0" r="5.2" fill="#103429" fill-opacity="0.72"/>
  <circle cx="598.0" cy="376.0" r="5.7" fill="#0b2a23" fill-opacity="0.61"/>
  <circle cx="963.0" cy="357.0" r="5.5" fill="#21493a" fill-opacity="0.77"/>
  <circle cx="129.0" cy="62.0" r="6.5" fill="#21493a" fill-opacity="0.79"/>
  <path d="M 204 560 C 450 435, 825 210, 1020 188" fill="none" stroke="#1d5a36" stroke-width="146" stroke-linecap="round"/>
  <path d="M 206 559 C 454 433, 822 211, 1018 190" fill="none" stroke="#3d7f3d" stroke-width="106" stroke-linecap="round" fill-opacity="0.96"/>
  <path d="M 207 558 C 454 434, 821 212, 1017 191" fill="none" stroke="#76ae4a" stroke-width="84" stroke-linecap="round" fill-opacity="0.92"/>
  <ellipse cx="303.0" cy="508.3" rx="63.5" ry="22.9" fill="#7bb84a" transform="rotate(26.6 303.0 508.3)" fill-opacity="0.95"/>
  <ellipse cx="439.0" cy="435.6" rx="64.7" ry="16.1" fill="#7bb84a" transform="rotate(27.7 439.0 435.6)" fill-opacity="0.95"/>
  <ellipse cx="630.9" cy="335.5" rx="64.3" ry="19.6" fill="#86c254" transform="rotate(24.8 630.9 335.5)" fill-opacity="0.95"/>
  <ellipse cx="782.4" cy="263.8" rx="55.6" ry="24.7" fill="#86c254" transform="rotate(11.0 782.4 263.8)" fill-opacity="0.95"/>
  <ellipse cx="916.2" cy="212.2" rx="68.8" ry="18.2" fill="#7bb84a" transform="rotate(-18.5 916.2 212.2)" fill-opacity="0.95"/>
  <path d="M 444.8 412.3 C 452.8 396.3, 480.8 398.3, 488.8 412.3 C 493.8 426.3, 476.8 434.3, 460.8 431.3 C 446.8 428.3, 438.8 420.3, 444.8 412.3 Z" fill="#f8f8f5" stroke="#e5e7eb" stroke-width="1.5"/>
  <path d="M 713.9 268.1 C 722.1 251.7, 750.8 253.8, 759.0 268.1 C 764.1 282.5, 746.7 290.7, 730.3 287.6 C 715.9 284.5, 707.7 276.3, 713.9 268.1 Z" fill="#f8f8f5" stroke="#e5e7eb" stroke-width="1.5"/>
  <path d="M 881.4 204.3 C 890.3 186.7, 921.1 188.9, 929.9 204.3 C 935.4 219.7, 916.7 228.5, 899.1 225.2 C 883.6 221.9, 874.8 213.1, 881.4 204.3 Z" fill="#f8f8f5" stroke="#e5e7eb" stroke-width="1.5"/>
  <path d="M 222.0 544.0 C 450.0 425.4, 825.0 205.2, 1008.0 184.8" fill="none" stroke="#d9d22b" stroke-width="3" marker-end="url(#arrow)" stroke-linecap="round"/>
  <path d="M 230.0 560.0 C 460.0 435.0, 817.0 210.0, 1002.0 188.0" fill="none" stroke="#d9d22b" stroke-width="3" marker-end="url(#arrow)" stroke-linecap="round"/>
  <path d="M 238.0 576.0 C 470.0 444.6, 809.0 214.8, 996.0 191.2" fill="none" stroke="#d9d22b" stroke-width="3" marker-end="url(#arrow)" stroke-linecap="round"/>
  <circle cx="202.7" cy="515.3" r="6.8" fill="#08261f" fill-opacity="0.90"/>
  <circle cx="236.4" cy="529.1" r="6.9" fill="#103529" fill-opacity="0.81"/>
  <circle cx="230.3" cy="524.0" r="8.4" fill="#08261f" fill-opacity="0.83"/>
  <circle cx="256.2" cy="464.2" r="6.0" fill="#08261f" fill-opacity="0.89"/>
  <circle cx="288.8" cy="538.5" r="5.0" fill="#103529" fill-opacity="0.82"/>
  <circle cx="313.3" cy="551.6" r="7.8" fill="#1e4638" fill-opacity="0.81"/>
  <circle cx="306.6" cy="445.1" r="8.3" fill="#1e4638" fill-opacity="0.79"/>
  <circle cx="349.6" cy="548.1" r="6.4" fill="#103529" fill-opacity="0.87"/>
  <circle cx="376.1" cy="428.0" r="7.4" fill="#103529" fill-opacity="0.89"/>
  <circle cx="385.4" cy="411.2" r="6.9" fill="#08261f" fill-opacity="0.88"/>
  <circle cx="398.2" cy="430.6" r="6.2" fill="#08261f" fill-opacity="0.82"/>
  <circle cx="425.4" cy="457.7" r="7.4" fill="#103529" fill-opacity="0.89"/>
  <circle cx="431.6" cy="435.9" r="7.1" fill="#103529" fill-opacity="0.77"/>
  <circle cx="473.8" cy="424.4" r="5.7" fill="#103529" fill-opacity="0.77"/>
  <circle cx="494.9" cy="432.4" r="8.7" fill="#1e4638" fill-opacity="0.81"/>
  <circle cx="523.1" cy="427.4" r="5.1" fill="#103529" fill-opacity="0.81"/>
  <circle cx="541.7" cy="375.3" r="5.5" fill="#08261f" fill-opacity="0.92"/>
  <circle cx="555.8" cy="360.9" r="6.4" fill="#1e4638" fill-opacity="0.88"/>
  <circle cx="577.2" cy="298.4" r="6.0" fill="#08261f" fill-opacity="0.77"/>
  <circle cx="613.2" cy="356.4" r="8.4" fill="#1e4638" fill-opacity="0.78"/>
  <circle cx="605.3" cy="291.9" r="8.8" fill="#103529" fill-opacity="0.85"/>
  <circle cx="653.0" cy="337.1" r="5.7" fill="#1e4638" fill-opacity="0.83"/>
  <circle cx="674.8" cy="374.8" r="7.0" fill="#08261f" fill-opacity="0.78"/>
  <circle cx="692.2" cy="333.3" r="6.1" fill="#08261f" fill-opacity="0.86"/>
  <circle cx="710.4" cy="228.5" r="6.3" fill="#103529" fill-opacity="0.78"/>
  <circle cx="734.6" cy="361.8" r="7.8" fill="#103529" fill-opacity="0.87"/>
  <circle cx="745.0" cy="226.0" r="5.0" fill="#08261f" fill-opacity="0.94"/>
  <circle cx="784.0" cy="237.2" r="6.7" fill="#08261f" fill-opacity="0.90"/>
  <circle cx="788.5" cy="226.8" r="7.5" fill="#1e4638" fill-opacity="0.91"/>
  <circle cx="812.6" cy="261.0" r="6.2" fill="#08261f" fill-opacity="0.82"/>
  <circle cx="825.3" cy="304.1" r="7.7" fill="#103529" fill-opacity="0.95"/>
  <circle cx="862.3" cy="238.3" r="7.8" fill="#08261f" fill-opacity="0.79"/>
  <circle cx="879.5" cy="272.4" r="5.4" fill="#1e4638" fill-opacity="0.77"/>
  <circle cx="892.5" cy="183.6" r="8.9" fill="#08261f" fill-opacity="0.85"/>
  <circle cx="914.4" cy="227.7" r="5.9" fill="#103529" fill-opacity="0.80"/>
  <circle cx="927.1" cy="268.7" r="5.4" fill="#1e4638" fill-opacity="0.92"/>
  <circle cx="932.8" cy="228.8" r="6.6" fill="#103529" fill-opacity="0.87"/>
  <circle cx="969.4" cy="171.4" r="7.7" fill="#1e4638" fill-opacity="0.76"/>
  <circle cx="986.5" cy="237.5" r="5.3" fill="#1e4638" fill-opacity="0.81"/>
  <circle cx="983.3" cy="146.0" r="5.9" fill="#1e4638" fill-opacity="0.79"/>
  <circle cx="996.9" cy="153.8" r="7.4" fill="#1e4638" fill-opacity="0.90"/>
  <circle cx="1010.6" cy="208.1" r="5.5" fill="#08261f" fill-opacity="0.92"/>
  <circle cx="649.0" cy="326.5" r="31" fill="#e2d71c" stroke="#c5b90f" stroke-width="2"/>
  <text x="649.0" y="338.5" text-anchor="middle" fill="#0f172a" font-family="Georgia, serif" font-size="58" font-weight="700">8</text>
</svg>
