<svg xmlns="http://www.w3.org/2000/svg" viewBox="0 0 1200 675" role="img" aria-label="Vale da Pinta Hole 9">
  <defs>
    <marker id="arrow" markerWidth="8" markerHeight="8" refX="7" refY="4" orient="auto">
      <path d="M0,0 L8,4 L0,8 z" fill="#d9d22b" />
    </marker>
  </defs>
  <rect width="1200" height="675" fill="#eef3fb"/>
  <circle cx="1149.0" cy="372.0" r="7.0" fill="#21493a" fill-opacity="0.73"/>
  <circle cx="766.0" cy="252.0" r="7.1" fill="#103429" fill-opacity="0.80"/>
  <circle cx="255.0" cy="379.0" r="5.5" fill="#103429" fill-opacity="0.88"/>
  <circle cx="924.0" cy="471.0" r="6.0" fill="#0b2a23" fill-opacity="0.78"/>
  <circle cx="945.0" cy="529.0" r="5.8" fill="#103429" fill-opacity="0.74"/>
  <circle cx="98.0" cy="476.0" r="5.3" fill="#103429" fill-opacity="0.66"/>
  <circle cx="1095.0" cy="169.0" r="7.7" fill="#103429" fill-opacity="0.67"/>
  <circle cx="268.0" cy="123.0" r="6.8" fill="#0b2a23" fill-opacity="0.59"/>
  <circle cx="528.0" cy="610.0" r="6.7" fill="#21493a" fill-opacity="0.62"/>
  <circle cx="609.0" cy="521.0" r="7.4" fill="#21493a" fill-opacity="0.73"/>
  <circle cx="1059.0" cy="584.0" r="6.6" fill="#103429" fill-opacity="0.79"/>
  <circle cx="603.0" cy="395.0" r="4.9" fill="#103429" fill-opacity="0.59"/>
  <circle cx="708.0" cy="409.0" r="5.4" fill="#103429" fill-opacity="0.59"/>
  <circle cx="580.0" cy="472.0" r="6.1" fill="#103429" fill-opacity="0.73"/>
  <circle cx="212.0" cy="277.0" r="6.7" fill="#21493a" fill-opacity="0.59"/>
  <circle cx="956.0" cy="98.0" r="7.9" fill="#0b2a23" fill-opacity="0.66"/>
  <circle cx="131.0" cy="166.0" r="5.8" fill="#103429" fill-opacity="0.68"/>
  <circle cx="807.0" cy="596.0" r="4.8" fill="#103429" fill-opacity="0.63"/>
  <circle cx="1144.0" cy="185.0" r="7.1" fill="#21493a" fill-opacity="0.67"/>
  <circle cx="542.0" cy="502.0" r="5.4" fill="#21493a" fill-opacity="0.87"/>
  <circle cx="83.0" cy="195.0" r="7.6" fill="#103429" fill-opacity="0.57"/>
  <circle cx="1155.0" cy="471.0" r="4.7" fill="#103429" fill-opacity="0.69"/>
  <circle cx="130.0" cy="151.0" r="8.0" fill="#21493a" fill-opacity="0.66"/>
  <circle cx="854.0" cy="114.0" r="4.9" fill="#0b2a23" fill-opacity="0.89"/>
  <circle cx="81.0" cy="319.0" r="7.3" fill="#103429" fill-opacity="0.84"/>
  <circle cx="696.0" cy="74.0" r="4.7" fill="#103429" fill-opacity="0.87"/>
  <circle cx="600.0" cy="174.0" r="7.5" fill="#103429" fill-opacity="0.59"/>
  <circle cx="268.0" cy="581.0" r="7.4" fill="#103429" fill-opacity="0.56"/>
  <circle cx="611.0" cy="327.0" r="5.1" fill="#21493a" fill-opacity="0.71"/>
  <circle cx="996.0" cy="570.0" r="7.1" fill="#0b2a23" fill-opacity="0.78"/>
  <circle cx="291.0" cy="520.0" r="7.8" fill="#103429" fill-opacity="0.56"/>
  <circle cx="948.0" cy="615.0" r="5.1" fill="#21493a" fill-opacity="0.84"/>
  <circle cx="84.0" cy="362.0" r="5.1" fill="#21493a" fill-opacity="0.75"/>
  <circle cx="904.0" cy="576.0" r="7.8" fill="#103429" fill-opacity="0.56"/>
  <circle cx="647.0" cy="329.0" r="7.5" fill="#103429" fill-opacity="0.70"/>
  <circle cx="170.0" cy="540.0" r="7.6" fill="#0b2a23" fill-opacity="0.70"/>
  <circle cx="626.0" cy="624.0" r="4.6" fill="#103429" fill-opacity="0.72"/>
  <circle cx="1129.0" cy="463.0" r="7.1" fill="#103429" fill-opacity="0.61"/>
  <circle cx="856.0" cy="535.0" r="5.8" fill="#0b2a23" fill-opacity="0.56"/>
  <circle cx="1103.0" cy="364.0" r="5.5" fill="#0b2a23" fill-opacity="0.61"/>
  <circle cx="950.0" cy="633.0" r="6.9" fill="#0b2a23" fill-opacity="0.60"/>
  <circle cx="63.0" cy="451.0" r="5.2" fill="#0b2a23" fill-opacity="0.68"/>
  <circle cx="486.0" cy="639.0" r="6.0" fill="#103429" fill-opacity="0.63"/>
  <circle cx="44.0" cy="241.0" r="5.3" fill="#0b2a23" fill-opacity="0.75"/>
  <circle cx="222.0" cy="515.0" r="5.9" fill="#103429" fill-opacity="0.64"/>
  <circle cx="380.0" cy="485.0" r="5.9" fill="#21493a" fill-opacity="0.76"/>
  <circle cx="116.0" cy="542.0" r="6.8" fill="#103429" fill-opacity="0.83"/>
  <circle cx="364.0" cy="311.0" r="7.1" fill="#103429" fill-opacity="0.82"/>
  <circle cx="377.0" cy="152.0" r="5.6" fill="#21493a" fill-opacity="0.72"/>
  <circle cx="397.0" cy="497.0" r="7.3" fill="#103429" fill-opacity="0.75"/>
  <circle cx="76.0" cy="342.0" r="5.4" fill="#21493a" fill-opacity="0.70"/>
  <circle cx="552.0" cy="243.0" r="7.7" fill="#21493a" fill-opacity="0.84"/>
  <circle cx="505.0" cy="95.0" r="6.5" fill="#0b2a23" fill-opacity="0.78"/>
  <circle cx="123.0" cy="278.0" r="6.8" fill="#0b2a23" fill-opacity="0.82"/>
  <circle cx="1097.0" cy="312.0" r="7.4" fill="#0b2a23" fill-opacity="0.88"/>
  <circle cx="812.0" cy="217.0" r="4.5" fill="#21493a" fill-opacity="0.77"/>
  <circle cx="151.0" cy="472.0" r="6.9" fill="#0b2a23" fill-opacity="0.64"/>
  <circle cx="1128.0" cy="330.0" r="4.6" fill="#21493a" fill-opacity="0.81"/>
  <circle cx="923.0" cy="302.0" r="5.3" fill="#103429" fill-opacity="0.79"/>
  <circle cx="1081.0" cy="541.0" r="6.0" fill="#21493a" fill-opacity="0.63"/>
  <circle cx="75.0" cy="215.0" r="4.5" fill="#21493a" fill-opacity="0.86"/>
  <circle cx="911.0" cy="528.0" r="4.8" fill="#103429" fill-opacity="0.84"/>
  <circle cx="622.0" cy="441.0" r="6.6" fill="#0b2a23" fill-opacity="0.56"/>
  <circle cx="133.0" cy="70.0" r="8.0" fill="#0b2a23" fill-opacity="0.59"/>
  <circle cx="285.0" cy="326.0" r="5.5" fill="#103429" fill-opacity="0.89"/>
  <circle cx="891.0" cy="324.0" r="6.2" fill="#103429" fill-opacity="0.81"/>
  <circle cx="479.0" cy="245.0" r="5.4" fill="#103429" fill-opacity="0.57"/>
  <circle cx="1049.0" cy="312.0" r="7.6" fill="#0b2a23" fill-opacity="0.70"/>
  <circle cx="704.0" cy="420.0" r="6.1" fill="#21493a" fill-opacity="0.85"/>
  <circle cx="1160.0" cy="612.0" r="5.0" fill="#103429" fill-opacity="0.88"/>
  <circle cx="450.0" cy="166.0" r="4.5" fill="#21493a" fill-opacity="0.66"/>
  <circle cx="1073.0" cy="384.0" r="4.8" fill="#0b2a23" fill-opacity="0.89"/>
  <circle cx="881.0" cy="208.0" r="5.5" fill="#21493a" fill-opacity="0.78"/>
  <circle cx="460.0" cy="286.0" r="6.8" fill="#21493a" fill-opacity="0.68"/>
  <circle cx="174.0" cy="65.0" r="6.3" fill="#0b2a23" fill-opacity="0.56"/>
  <circle cx="61.0" cy="381.0" r="7.5" fill="#21493a" fill-opacity="0.62"/>
  <circle cx="980.0" cy="326.0" r="4.6" fill="#21493a" fill-opacity="0.57"/>
  <circle cx="422.0" cy="484.0" r="6.9" fill="#0b2a23" fill-opacity="0.75"/>
  <circle cx="621.0" cy="519.0" r="6.5" fill="#0b2a23" fill-opacity="0.68"/>
  <circle cx="976.0" cy="201.0" r="6.2" fill="#103429" fill-opacity="0.62"/>
  <circle cx="150.0" cy="354.0" r="5.6" fill="#21493a" fill-opacity="0.67"/>
  <circle cx="606.0" cy="460.0" r="5.5" fill="#103429" fill-opacity="0.85"/>
  <circle cx="234.0" cy="203.0" r="5.4" fill="#103429" fill-opacity="0.87"/>
  <circle cx="755.0" cy="567.0" r="6.7" fill="#0b2a23" fill-opacity="0.82"/>
  <circle cx="302.0" cy="457.0" r="7.9" fill="#0b2a23" fill-opacity="0.82"/>
  <circle cx="125.0" cy="248.0" r="8.0" fill="#21493a" fill-opacity="0.83"/>
  <circle cx="977.0" cy="104.0" r="6.9" fill="#103429" fill-opacity="0.74"/>
  <circle cx="324.0" cy="422.0" r="4.5" fill="#0b2a23" fill-opacity="0.68"/>
  <circle cx="1118.0" cy="137.0" r="6.3" fill="#21493a" fill-opacity="0.57"/>
  <circle cx="986.0" cy="54.0" r="6.6" fill="#103429" fill-opacity="0.60"/>
  <path d="M 232 542 C 495 400, 860 238, 972 222" fill="none" stroke="#1d5a36" stroke-width="126" stroke-linecap="round"/>
  <path d="M 234 541 C 499 398, 857 239, 970 224" fill="none" stroke="#3d7f3d" stroke-width="91" stroke-linecap="round" fill-opacity="0.96"/>
  <path d="M 235 540 C 499 399, 856 240, 969 225" fill="none" stroke="#76ae4a" stroke-width="73" stroke-linecap="round" fill-opacity="0.92"/>
  <ellipse cx="319.0" cy="496.2" rx="37.9" ry="21.4" fill="#7bb84a" transform="rotate(-9.2 319.0 496.2)" fill-opacity="0.95"/>
  <ellipse cx="462.1" cy="425.0" rx="32.6" ry="21.6" fill="#7bb84a" transform="rotate(-34.6 462.1 425.0)" fill-opacity="0.95"/>
  <ellipse cx="666.6" cy="331.3" rx="68.0" ry="23.6" fill="#86c254" transform="rotate(17.6 666.6 331.3)" fill-opacity="0.95"/>
  <ellipse cx="775.7" cy="285.7" rx="42.8" ry="24.5" fill="#86c254" transform="rotate(-15.5 775.7 285.7)" fill-opacity="0.95"/>
  <ellipse cx="914.1" cy="235.9" rx="28.5" ry="16.9" fill="#86c254" transform="rotate(-18.2 914.1 235.9)" fill-opacity="0.95"/>
  <path d="M 458.7 447.4 C 468.4 428.0, 502.4 430.4, 512.1 447.4 C 518.2 464.4, 497.6 474.2, 478.1 470.5 C 461.1 466.9, 451.4 457.2, 458.7 447.4 Z" fill="#f8f8f5" stroke="#e5e7eb" stroke-width="1.5"/>
  <path d="M 673.4 269.4 C 682.0 252.0, 712.4 254.2, 721.1 269.4 C 726.5 284.6, 708.1 293.2, 690.7 290.0 C 675.5 286.7, 666.9 278.0, 673.4 269.4 Z" fill="#f8f8f5" stroke="#e5e7eb" stroke-width="1.5"/>
  <path d="M 250.0 526.0 C 495.0 390.4, 860.0 233.2, 960.0 218.8" fill="none" stroke="#d9d22b" stroke-width="3" marker-end="url(#arrow)" stroke-linecap="round"/>
  <path d="M 258.0 542.0 C 505.0 400.0, 852.0 238.0, 954.0 222.0" fill="none" stroke="#d9d22b" stroke-width="3" marker-end="url(#arrow)" stroke-linecap="round"/>
  <circle cx="238.0" cy="512.4" r="7.7" fill="#08261f" fill-opacity="0.78"/>
  <circle cx="241.8" cy="566.7" r="7.7" fill="#1e4638" fill-opacity="0.91"/>
  <circle cx="275.8" cy="560.7" r="8.2" fill="#08261f" fill-opacity="0.79"/>
  <circle cx="300.2" cy="511.8" r="5.1" fill="#08261f" fill-opacity="0.86"/>
  <circle cx="310.2" cy="432.6" r="5.1" fill="#103529" fill-opacity="0.84"/>
  <circle cx="325.7" cy="523.1" r="6.2" fill="#08261f" fill-opacity="0.93"/>
  <circle cx="361.8" cy="465.1" r="6.0" fill="#1e4638" fill-opacity="0.93"/>
  <circle cx="379.7" cy="418.8" r="7.7" fill="#103529" fill-opacity="0.88"/>
  <circle cx="407.2" cy="451.4" r="8.1" fill="#08261f" fill-opacity="0.75"/>
  <circle cx="414.1" cy="442.3" r="5.2" fill="#103529" fill-opacity="0.91"/>
  <circle cx="434.3" cy="451.8" r="7.5" fill="#1e4638" fill-opacity="0.83"/>
  <circle cx="472.0" cy="407.5" r="7.4" fill="#08261f" fill-opacity="0.94"/>
  <circle cx="480.5" cy="369.1" r="7.0" fill="#08261f" fill-opacity="0.92"/>
  <circle cx="510.0" cy="421.8" r="5.3" fill="#08261f" fill-opacity="0.91"/>
  <circle cx="514.4" cy="444.7" r="7.2" fill="#1e4638" fill-opacity="0.94"/>
  <circle cx="558.6" cy="365.6" r="5.8" fill="#103529" fill-opacity="0.91"/>
  <circle cx="562.8" cy="356.2" r="8.5" fill="#103529" fill-opacity="0.77"/>
  <circle cx="574.7" cy="306.3" r="6.4" fill="#103529" fill-opacity="0.80"/>
  <circle cx="622.8" cy="371.3" r="7.1" fill="#103529" fill-opacity="0.77"/>
  <circle cx="618.6" cy="380.4" r="8.5" fill="#103529" fill-opacity="0.92"/>
  <circle cx="663.1" cy="311.3" r="7.8" fill="#103529" fill-opacity="0.86"/>
  <circle cx="668.1" cy="375.5" r="8.5" fill="#1e4638" fill-opacity="0.87"/>
  <circle cx="700.7" cy="370.3" r="7.3" fill="#08261f" fill-opacity="0.92"/>
  <circle cx="692.5" cy="369.5" r="7.9" fill="#08261f" fill-opacity="0.95"/>
  <circle cx="737.4" cy="260.5" r="6.7" fill="#1e4638" fill-opacity="0.91"/>
  <circle cx="756.1" cy="357.2" r="8.6" fill="#1e4638" fill-opacity="0.88"/>
  <circle cx="774.4" cy="268.6" r="6.7" fill="#103529" fill-opacity="0.84"/>
  <circle cx="782.7" cy="290.4" r="6.5" fill="#08261f" fill-opacity="0.94"/>
  <circle cx="786.5" cy="313.2" r="5.8" fill="#08261f" fill-opacity="0.75"/>
  <circle cx="814.7" cy="333.2" r="7.1" fill="#1e4638" fill-opacity="0.78"/>
  <circle cx="840.7" cy="291.1" r="7.3" fill="#103529" fill-opacity="0.84"/>
  <circle cx="849.1" cy="257.8" r="8.4" fill="#08261f" fill-opacity="0.87"/>
  <circle cx="859.5" cy="241.1" r="7.2" fill="#103529" fill-opacity="0.79"/>
  <circle cx="876.3" cy="233.3" r="5.6" fill="#08261f" fill-opacity="0.80"/>
  <circle cx="907.3" cy="287.3" r="7.7" fill="#103529" fill-opacity="0.86"/>
  <circle cx="909.0" cy="287.3" r="8.2" fill="#08261f" fill-opacity="0.92"/>
  <circle cx="925.8" cy="237.3" r="6.4" fill="#1e4638" fill-opacity="0.84"/>
  <circle cx="923.2" cy="180.2" r="8.8" fill="#1e4638" fill-opacity="0.82"/>
  <circle cx="951.0" cy="237.2" r="6.5" fill="#103529" fill-opacity="0.91"/>
  <circle cx="938.0" cy="253.7" r="7.2" fill="#103529" fill-opacity="0.87"/>
  <circle cx="957.3" cy="234.1" r="6.1" fill="#1e4638" fill-opacity="0.83"/>
  <circle cx="970.9" cy="240.9" r="7.6" fill="#08261f" fill-opacity="0.90"/>
  <circle cx="675.1" cy="327.6" r="31" fill="#e2d71c" stroke="#c5b90f" stroke-width="2"/>
  <text x="675.1" y="339.6" text-anchor="middle" fill="#0f172a" font-family="Georgia, serif" font-size="58" font-weight="700">9</text>
</svg>
